<svg id="Layer_1" data-name="Layer 1" xmlns="http://www.w3.org/2000/svg" xmlns:xlink="http://www.w3.org/1999/xlink" viewBox="0 0 830 740"><defs><style>.cls-1,.cls-17{fill:none;}.cls-2{clip-path:url(#clip-path);}.cls-3{fill:#fff;}.cls-4{fill:#00f4ff;}.cls-5{clip-path:url(#clip-path-2);}.cls-6{font-size:32px;}.cls-12,.cls-6,.cls-7{font-family:Arial-ItalicMT, Arial;font-style:italic;}.cls-20,.cls-7{font-size:21.33px;}.cls-8{clip-path:url(#clip-path-4);}.cls-9{clip-path:url(#clip-path-6);}.cls-10{clip-path:url(#clip-path-8);}.cls-11{clip-path:url(#clip-path-10);}.cls-12,.cls-14{font-size:14.67px;}.cls-13{clip-path:url(#clip-path-12);}.cls-14{font-family:Helvetica-Oblique, Helvetica;}.cls-15{clip-path:url(#clip-path-14);}.cls-16{clip-path:url(#clip-path-16);}.cls-17{stroke:#000;stroke-width:2px;}.cls-18,.cls-21,.cls-25{font-size:16px;}.cls-18,.cls-23{font-family:ArialMT, Arial;}.cls-19{clip-path:url(#clip-path-18);}.cls-20,.cls-21{font-family:Helvetica, Helvetica;}.cls-22{letter-spacing:-0.07em;}.cls-23{font-size:36px;}.cls-24{clip-path:url(#clip-path-20);}.cls-25{font-family:STIXGeneral-Regular, STIXGeneral;}.cls-26{clip-path:url(#clip-path-22);}</style><clipPath id="clip-path"><rect class="cls-1" x="-63" width="1024" height="768"/></clipPath><clipPath id="clip-path-2"><rect class="cls-1" x="361.54" y="42.77" width="109.88" height="100"/></clipPath><clipPath id="clip-path-4"><rect class="cls-1" x="361.54" y="161.77" width="109.88" height="100"/></clipPath><clipPath id="clip-path-6"><rect class="cls-1" x="361.54" y="280.77" width="109.88" height="100"/></clipPath><clipPath id="clip-path-8"><rect class="cls-1" x="361.54" y="399.77" width="109.88" height="100"/></clipPath><clipPath id="clip-path-10"><rect class="cls-1" x="515.95" y="64.72" width="56.11" height="56.11"/></clipPath><clipPath id="clip-path-12"><rect class="cls-1" x="515.95" y="333.83" width="56.11" height="56.11"/></clipPath><clipPath id="clip-path-14"><rect class="cls-1" x="515.95" y="155.79" width="56.11" height="56.11"/></clipPath><clipPath id="clip-path-16"><rect class="cls-1" x="515.95" y="421.72" width="56.11" height="56.11"/></clipPath><clipPath id="clip-path-18"><rect class="cls-1" x="47.6" y="208.81" width="126.63" height="124.92"/></clipPath><clipPath id="clip-path-20"><rect class="cls-1" x="667.4" y="208.36" width="126.63" height="124.92"/></clipPath><clipPath id="clip-path-22"><rect class="cls-1" x="223.41" y="519" width="451.59" height="194.79"/></clipPath></defs><title>bifactor_model</title><g class="cls-2"><rect class="cls-3" x="-63" width="1024" height="768"/><rect class="cls-4" x="366.47" y="42.77" width="100" height="100"/></g><g class="cls-5"><text class="cls-6" transform="translate(400 104)">Y</text><text class="cls-7" transform="translate(421.34 106.26)">1</text></g><g class="cls-2"><rect class="cls-4" x="366.47" y="161.77" width="100" height="100"/></g><g class="cls-8"><text class="cls-6" transform="translate(400 223)">Y</text><text class="cls-7" transform="translate(421.34 225.26)">2</text></g><g class="cls-2"><rect class="cls-4" x="366.47" y="280.77" width="100" height="100"/></g><g class="cls-9"><text class="cls-6" transform="translate(400 342)">Y</text><text class="cls-7" transform="translate(421.34 344.26)">3</text></g><g class="cls-2"><rect class="cls-4" x="366.47" y="399.77" width="100" height="100"/></g><g class="cls-10"><text class="cls-6" transform="translate(400 461)">Y</text><text class="cls-7" transform="translate(421.34 463.26)">4</text></g><g class="cls-2"><circle class="cls-4" cx="544" cy="92.77" r="28.05" transform="translate(93.73 411.84) rotate(-45)"/></g><g class="cls-11"><path d="M542.36,94.83h-1.17q-.51,0-1,0a3,3,0,0,0-1,.24,1.94,1.94,0,0,0-.75.58,2,2,0,0,0-.5,1,1.34,1.34,0,0,0,.58,1.51,3.24,3.24,0,0,0,1.73.42,4.82,4.82,0,0,0,2.22-.5,3,3,0,0,0,1.39-1.76h1.85a4.56,4.56,0,0,1-2.11,2.88,6.42,6.42,0,0,1-3.39,1,9.66,9.66,0,0,1-1.73-.15,4.73,4.73,0,0,1-1.49-.53,2.38,2.38,0,0,1-.93-1.07,2.91,2.91,0,0,1-.09-1.78,3.05,3.05,0,0,1,1.14-1.78A4.13,4.13,0,0,1,539,94v0a2.8,2.8,0,0,1-1.27-.95,1.85,1.85,0,0,1-.26-1.57,3,3,0,0,1,.71-1.43,3.8,3.8,0,0,1,1.22-.95,6.64,6.64,0,0,1,2.94-.72,5.54,5.54,0,0,1,3.05.76,2.67,2.67,0,0,1,.86,2.79h-1.85a1.35,1.35,0,0,0-.55-1.58,3.85,3.85,0,0,0-1.78-.4,4,4,0,0,0-1.59.33,1.84,1.84,0,0,0-1.07,1.35,1.1,1.1,0,0,0,.5,1.35,3.43,3.43,0,0,0,1.58.3h1.21Z"/><text class="cls-12" transform="translate(546.24 101.55)">1</text></g><g class="cls-2"><circle class="cls-4" cx="544" cy="361.88" r="28.05" transform="translate(-96.56 490.66) rotate(-45)"/></g><g class="cls-13"><path d="M542.36,364.83h-1.17q-.51,0-1,0a3,3,0,0,0-1,.24,1.94,1.94,0,0,0-.75.58,2,2,0,0,0-.5,1,1.34,1.34,0,0,0,.58,1.51,3.24,3.24,0,0,0,1.73.42,4.82,4.82,0,0,0,2.22-.5,3,3,0,0,0,1.39-1.76h1.85a4.56,4.56,0,0,1-2.11,2.88,6.42,6.42,0,0,1-3.39,1,9.66,9.66,0,0,1-1.73-.15,4.73,4.73,0,0,1-1.49-.53,2.38,2.38,0,0,1-.93-1.07,2.91,2.91,0,0,1-.09-1.78,3.05,3.05,0,0,1,1.14-1.78A4.13,4.13,0,0,1,539,364v0a2.8,2.8,0,0,1-1.27-.95,1.85,1.85,0,0,1-.26-1.57,3,3,0,0,1,.71-1.43,3.8,3.8,0,0,1,1.22-.95,6.64,6.64,0,0,1,2.94-.72,5.54,5.54,0,0,1,3.05.76,2.67,2.67,0,0,1,.86,2.79h-1.85a1.35,1.35,0,0,0-.55-1.58,3.85,3.85,0,0,0-1.78-.4,4,4,0,0,0-1.59.33,1.84,1.84,0,0,0-1.07,1.35,1.1,1.1,0,0,0,.5,1.35,3.43,3.43,0,0,0,1.58.3h1.21Z"/><text class="cls-14" transform="translate(546.24 371.69)">3</text></g><g class="cls-2"><circle class="cls-4" cx="544" cy="183.84" r="28.05" transform="translate(29.34 438.51) rotate(-45)"/></g><g class="cls-15"><path d="M542.36,186.83h-1.17q-.51,0-1,0a3,3,0,0,0-1,.24,1.94,1.94,0,0,0-.75.58,2,2,0,0,0-.5,1,1.34,1.34,0,0,0,.58,1.51,3.24,3.24,0,0,0,1.73.42,4.82,4.82,0,0,0,2.22-.5,3,3,0,0,0,1.39-1.76h1.85a4.56,4.56,0,0,1-2.11,2.88,6.42,6.42,0,0,1-3.39,1,9.66,9.66,0,0,1-1.73-.15,4.73,4.73,0,0,1-1.49-.53,2.38,2.38,0,0,1-.93-1.07,2.91,2.91,0,0,1-.09-1.78,3.05,3.05,0,0,1,1.14-1.78A4.13,4.13,0,0,1,539,186v0a2.8,2.8,0,0,1-1.27-.95,1.85,1.85,0,0,1-.26-1.57,3,3,0,0,1,.71-1.43,3.8,3.8,0,0,1,1.22-.95,6.64,6.64,0,0,1,2.94-.72,5.54,5.54,0,0,1,3.05.76,2.67,2.67,0,0,1,.86,2.79h-1.85a1.35,1.35,0,0,0-.55-1.58,3.85,3.85,0,0,0-1.78-.4,4,4,0,0,0-1.59.33,1.84,1.84,0,0,0-1.07,1.35,1.1,1.1,0,0,0,.5,1.35,3.43,3.43,0,0,0,1.58.3h1.21Z"/><text class="cls-14" transform="translate(546.24 193.69)">2</text></g><g class="cls-2"><circle class="cls-4" cx="544" cy="449.77" r="28.05" transform="translate(-158.7 516.4) rotate(-45)"/></g><g class="cls-16"><path d="M542.36,452.83h-1.17q-.51,0-1,0a3,3,0,0,0-1,.24,1.94,1.94,0,0,0-.75.58,2,2,0,0,0-.5,1,1.34,1.34,0,0,0,.58,1.51,3.24,3.24,0,0,0,1.73.42,4.82,4.82,0,0,0,2.22-.5,3,3,0,0,0,1.39-1.76h1.85a4.56,4.56,0,0,1-2.11,2.88,6.42,6.42,0,0,1-3.39,1,9.66,9.66,0,0,1-1.73-.15,4.73,4.73,0,0,1-1.49-.53,2.38,2.38,0,0,1-.93-1.07,2.91,2.91,0,0,1-.09-1.78,3.05,3.05,0,0,1,1.14-1.78A4.13,4.13,0,0,1,539,452v0a2.8,2.8,0,0,1-1.27-.95,1.85,1.85,0,0,1-.26-1.57,3,3,0,0,1,.71-1.43,3.8,3.8,0,0,1,1.22-.95,6.64,6.64,0,0,1,2.94-.72,5.54,5.54,0,0,1,3.05.76,2.67,2.67,0,0,1,.86,2.79h-1.85a1.35,1.35,0,0,0-.55-1.58,3.85,3.85,0,0,0-1.78-.4,4,4,0,0,0-1.59.33,1.84,1.84,0,0,0-1.07,1.35,1.1,1.1,0,0,0,.5,1.35,3.43,3.43,0,0,0,1.58.3h1.21Z"/><text class="cls-14" transform="translate(546.24 459.69)">4</text></g><g class="cls-2"><path class="cls-17" d="M515.95,92.77H475.07"/><polygon points="476.07 87.97 466.47 92.77 476.07 97.57 476.07 87.97"/><polyline class="cls-17" points="474.87 198.98 475.85 198.77 516.59 189.85"/><polygon points="474.82 194.08 466.47 200.82 476.88 203.46 474.82 194.08"/><polyline class="cls-17" points="474.83 345.01 475.8 345.25 516.74 355.23"/><polygon points="476.94 340.58 466.47 342.97 474.66 349.91 476.94 340.58"/><polyline class="cls-17" points="515.95 449.77 476.07 449.77 475.07 449.77"/><polygon points="476.07 444.97 466.47 449.77 476.07 454.57 476.07 444.97"/><text class="cls-18" transform="translate(487 186)">1</text><text class="cls-18" transform="translate(487 372)">1</text><text class="cls-18" transform="translate(487 440)">1</text><circle class="cls-4" cx="110.91" cy="271.27" r="62.46" transform="translate(-159.33 157.88) rotate(-45)"/></g><g class="cls-19"><path d="M100.24,269.81q.51-2.09-.74-2.09a4.56,4.56,0,0,0-1,.12l.54-2.57a5.29,5.29,0,0,1,2.06-.35q3.15,0,2.43,3.34h.07a8.87,8.87,0,0,1,7-3.34q6.22,0,4.94,6.19L111.24,291H108L112.07,272q.95-4.13-2.88-4.25a5.83,5.83,0,0,0-4.38,1.78,9.12,9.12,0,0,0-2.2,4.46l-2.13,10H97.23Z"/><text class="cls-20" transform="translate(115.99 286.45)">1</text></g><g class="cls-2"><polyline class="cls-17" points="359.05 126.32 358.18 126.82 164.86 239.76"/><polygon points="360.61 130.97 366.47 121.98 355.76 122.68 360.61 130.97"/><polyline class="cls-17" points="358.03 223.15 357.05 223.34 172.23 259.33"/><polygon points="357.97 228.05 366.47 221.51 356.13 218.63 357.97 228.05"/><polyline class="cls-17" points="358.03 319.39 357.05 319.2 172.23 283.21"/><polygon points="356.13 323.91 366.47 321.04 357.97 314.49 356.13 323.91"/><polyline class="cls-17" points="359.05 416.23 358.18 415.72 164.86 302.79"/><polygon points="355.76 419.87 366.47 420.56 360.61 411.58 355.76 419.87"/><path d="M257.29,141.75a4.7,4.7,0,0,1,1.2-.13,2.43,2.43,0,0,1,1.83.63,6.31,6.31,0,0,1,1.13,2.09l4.84,12a4.49,4.49,0,0,0,.41.67.77.77,0,0,0,.63.32h.6V159h-1.23a2.37,2.37,0,0,1-2.37-1.78l-2.93-7.72-3.62,9.5h-2.33l4.92-12.07-.87-2.31q-.46-1.17-1.44-1.12h-.76Z"/><text class="cls-21" transform="translate(268.35 160.84)"><tspan class="cls-22">1</tspan><tspan x="7.73" y="0">1</tspan></text><path d="M256.29,209.75a4.7,4.7,0,0,1,1.2-.13,2.43,2.43,0,0,1,1.83.63,6.31,6.31,0,0,1,1.13,2.09l4.84,12a4.49,4.49,0,0,0,.41.67.77.77,0,0,0,.63.32h.6V227h-1.23a2.37,2.37,0,0,1-2.37-1.78l-2.93-7.72-3.62,9.5h-2.33l4.92-12.07-.87-2.31q-.46-1.17-1.44-1.12h-.76Z"/><text class="cls-21" transform="translate(267.35 228.84)">21</text><path d="M256.29,274.75a4.7,4.7,0,0,1,1.2-.13,2.43,2.43,0,0,1,1.83.63,6.31,6.31,0,0,1,1.13,2.09l4.84,12a4.49,4.49,0,0,0,.41.67.77.77,0,0,0,.63.32h.6V292h-1.23a2.37,2.37,0,0,1-2.37-1.78l-2.93-7.72-3.62,9.5h-2.33l4.92-12.07-.87-2.31q-.46-1.17-1.44-1.12h-.76Z"/><text class="cls-21" transform="translate(267.35 293.84)">31</text><path d="M256.29,332.75a4.7,4.7,0,0,1,1.2-.13,2.43,2.43,0,0,1,1.83.63,6.31,6.31,0,0,1,1.13,2.09l4.84,12a4.49,4.49,0,0,0,.41.67.77.77,0,0,0,.63.32h.6V350h-1.23a2.37,2.37,0,0,1-2.37-1.78l-2.93-7.72-3.62,9.5h-2.33l4.92-12.07-.87-2.31q-.46-1.17-1.44-1.12h-.76Z"/><text class="cls-21" transform="translate(267.35 351.84)">41</text><text class="cls-23" transform="translate(25 50)">Bifactor Model</text><polyline class="cls-17" points="152.87 179.86 129.13 203.6 128.42 204.31"/><polygon points="125.74 200.21 122.34 210.39 132.52 207 125.74 200.21"/><path d="M124.06,164.35c-1.2.43-1.78,1.18-1.78,1.78s.38.91,1.18,1.08c.89-1,3-2.54,4.3-2.54.53,0,.77.22.77.58,0,1.08-2.5,2.52-4.7,2.71-2.09,1.46-4.46,4.75-4.46,7.9a2,2,0,0,0,2.21,2.18s.46,0,1.13,0c1.94,0,3,.62,3,2.38,0,2-2.38,4-4.34,4a1.28,1.28,0,0,1-1.27-1.3,1,1,0,0,1,1.15-1c.5,0,.84.72,1.27.72,1.06,0,2.33-.65,2.33-1.63s-.82-1.18-2-1.18c-.26,0-1.44.22-1.82.22a3.11,3.11,0,0,1-3-3.41c0-3.86,2.33-6.7,4.8-8.9v0c-.77,0-1.75-.48-1.75-1.42s1-2,3-2.5Z"/><text class="cls-21" transform="translate(127.44 181.84)">1</text><circle class="cls-4" cx="730.7" cy="270.83" r="62.46" transform="translate(22.51 596.01) rotate(-45)"/></g><g class="cls-24"><path d="M720.24,269.81q.51-2.09-.74-2.09a4.56,4.56,0,0,0-1,.12l.54-2.57a5.29,5.29,0,0,1,2.06-.35q3.15,0,2.43,3.34h.07a8.87,8.87,0,0,1,7-3.34q6.22,0,4.94,6.19L731.24,291H728L732.07,272q.95-4.13-2.88-4.25a5.83,5.83,0,0,0-4.38,1.78,9.12,9.12,0,0,0-2.2,4.46l-2.13,10h-3.25Z"/><text class="cls-20" transform="translate(735.99 286.45)">2</text></g><g class="cls-2"><polyline class="cls-17" points="772.66 179.42 748.92 203.16 748.22 203.86"/><polygon points="745.53 199.76 742.13 209.94 752.32 206.55 745.53 199.76"/><path d="M744.06,164.35c-1.2.43-1.78,1.18-1.78,1.78s.38.91,1.18,1.08c.89-1,3-2.54,4.3-2.54.53,0,.77.22.77.58,0,1.08-2.5,2.52-4.7,2.71-2.09,1.46-4.46,4.75-4.46,7.9a2,2,0,0,0,2.21,2.18s.46,0,1.13,0c1.94,0,3,.62,3,2.38,0,2-2.38,4-4.34,4a1.28,1.28,0,0,1-1.27-1.3,1,1,0,0,1,1.15-1c.5,0,.84.72,1.27.72,1.06,0,2.33-.65,2.33-1.63s-.82-1.18-2-1.18c-.26,0-1.44.22-1.82.22a3.11,3.11,0,0,1-3-3.41c0-3.86,2.33-6.7,4.8-8.9v0c-.77,0-1.75-.48-1.75-1.42s1-2,3-2.5Z"/><text class="cls-25" transform="translate(747.44 183.64)">2</text><polyline class="cls-17" points="474.93 222.76 475.91 222.94 669.31 259.29"/><polygon points="476.79 218.22 466.47 221.17 475.02 227.66 476.79 218.22"/><text class="cls-18" transform="translate(487 83)">1</text><polyline class="cls-17" points="474.92 319.62 475.9 319.43 669.34 282.53"/><polygon points="475 314.72 466.47 321.23 476.8 324.15 475 314.72"/><path d="M594.29,219.75a4.7,4.7,0,0,1,1.2-.13,2.43,2.43,0,0,1,1.83.63,6.31,6.31,0,0,1,1.13,2.09l4.84,12a4.49,4.49,0,0,0,.41.67.77.77,0,0,0,.63.32h.6V237h-1.23a2.37,2.37,0,0,1-2.37-1.78l-2.93-7.72-3.62,9.5h-2.33l4.92-12.07-.87-2.31q-.46-1.17-1.44-1.12h-.76Z"/><text class="cls-21" transform="translate(605.35 238.84)">22</text><path d="M594.29,308.75a4.7,4.7,0,0,1,1.2-.13,2.43,2.43,0,0,1,1.83.63,6.31,6.31,0,0,1,1.13,2.09l4.84,12a4.49,4.49,0,0,0,.41.67.77.77,0,0,0,.63.32h.6V326h-1.23a2.37,2.37,0,0,1-2.37-1.78l-2.93-7.72-3.62,9.5h-2.33l4.92-12.07-.87-2.31q-.46-1.17-1.44-1.12h-.76Z"/><text class="cls-21" transform="translate(605.35 327.84)">32</text></g><g class="cls-26"><path d="M240.26,530.8a2.26,2.26,0,0,0,.14-.83,1,1,0,0,0-1-1,1.56,1.56,0,0,0-1.26.76c-.07.18-.36,1.29-.5,1.94-.25.93-.5,1.9-.72,2.87L235.27,541c-.14.54-1.69,3.05-4.06,3.05-1.83,0-2.23-1.58-2.23-2.91,0-1.65.61-3.88,1.83-7a6.5,6.5,0,0,0,.72-2.59,2.85,2.85,0,0,0-2.94-2.94c-3.41,0-4.74,5.21-4.74,5.53s.36.36.43.36c.36,0,.4-.07.58-.65,1-3.37,2.41-4.45,3.63-4.45.29,0,.9,0,.9,1.15a7.65,7.65,0,0,1-.61,2.51c-1.44,3.81-2.08,5.85-2.08,7.54,0,3.19,2.26,4.27,4.38,4.27a5.08,5.08,0,0,0,3.63-1.61,13.8,13.8,0,0,1-2.33,5.53,5.14,5.14,0,0,1-4,2.26,2.9,2.9,0,0,1-2.73-1.51,2.05,2.05,0,0,0,1.54-.43,2,2,0,0,0,.72-1.47,1.23,1.23,0,0,0-1.33-1.26,2.07,2.07,0,0,0-2,2.33c0,1.8,1.58,3.13,3.81,3.13,3.7,0,7.4-3.27,8.4-7.33l3.45-13.72"/><path d="M248.71,533.84c0-.68,0-.7-.75-.7a6.84,6.84,0,0,1-4.91,1.6v.9a8.26,8.26,0,0,0,3.63-.7v12.78c0,.83,0,1.15-2.51,1.15h-1v.9c.45,0,3.53-.1,4.46-.1.78,0,3.93.07,4.49.1v-.9h-1c-2.51,0-2.51-.33-2.51-1.15V533.84"/><path d="M291.12,539.71c.5,0,1.18,0,1.18-.72s-.68-.72-1.22-.72H269.64c-.54,0-1.22,0-1.22.72s.68.72,1.19.72h21.51m0-7c.54,0,1.22,0,1.22-.72s-.68-.72-1.18-.72H269.61c-.5,0-1.19,0-1.19.72s.68.72,1.22.72Z"/><path d="M319,540.93c-3.16,2.77-5.93,3.16-7.36,3.16-2.15,0-3.23-1.62-3.23-3.91a18.63,18.63,0,0,1,2.08-7.47c1.69-2.62,3.63-3.3,4.88-3.3,3.56,0,3.56,4.7,3.56,7.51,0,1.33,0,3.41.07,4m2.41-4.92c0-5.64-3.34-7.4-6-7.4-4.92,0-9.66,5.13-9.66,10.2,0,3.34,2.15,6.07,5.82,6.07a12.11,12.11,0,0,0,7.58-3c.47,1.9,1.65,3,3.27,3a3.32,3.32,0,0,0,3-2.55c0-.25-.21-.36-.43-.36s-.36.11-.47.36c-.65,1.76-1.94,1.76-2,1.76-1.11,0-1.11-2.8-1.11-3.66s0-.83.36-1.26a20.77,20.77,0,0,0,4.13-8.44c0-.07,0-.36-.43-.36s-.36.11-.54.76a21.21,21.21,0,0,1-3.52,7.11Z"/><path d="M335.61,533.84c0-.68,0-.7-.75-.7a6.84,6.84,0,0,1-4.91,1.6v.9a8.26,8.26,0,0,0,3.64-.7v12.78c0,.83,0,1.15-2.51,1.15h-1v.9c.45,0,3.53-.1,4.46-.1.78,0,3.93.07,4.49.1v-.9h-1c-2.51,0-2.51-.33-2.51-1.15V533.84"/><path d="M366,536.22h10c.5,0,1.18,0,1.18-.72s-.68-.72-1.18-.72H366V524.73c0-.5,0-1.18-.72-1.18s-.72.68-.72,1.18v10.06H354.51c-.5,0-1.19,0-1.19.72s.68.72,1.19.72h10.05v10.06c0,.5,0,1.19.72,1.19s.72-.68.72-1.19V536.22"/><path d="M399.93,534c1.47,3.77,3.19,9.27,3.77,10.09s.93.79,1.9.79h.79c.36,0,.39-.25.39-.36s-.07-.18-.18-.32a4.7,4.7,0,0,1-.83-1.65l-7.33-20.44c-.75-2.08-2.69-2.55-4.38-2.55-.18,0-.65,0-.65.39a.37.37,0,0,0,.32.36c1.19.22,1.44.43,2.33,2.87l3.49,9.77-9.91,9.84c-.43.43-.65.65-.65,1.11a1.05,1.05,0,0,0,1.08,1,1.52,1.52,0,0,0,1.18-.76l8.66-10.2"/><path d="M416.41,533.84c0-.68,0-.7-.75-.7a6.84,6.84,0,0,1-4.91,1.6v.9a8.26,8.26,0,0,0,3.64-.7v12.78c0,.83,0,1.15-2.51,1.15h-1v.9c.45,0,3.53-.1,4.46-.1.78,0,3.93.07,4.49.1v-.9h-1c-2.51,0-2.51-.33-2.51-1.15V533.84"/><path d="M430.71,533.84c0-.68-.05-.7-.75-.7a6.84,6.84,0,0,1-4.91,1.6v.9a8.26,8.26,0,0,0,3.64-.7v12.78c0,.83,0,1.15-2.51,1.15h-1v.9c.45,0,3.53-.1,4.46-.1.78,0,3.93.07,4.49.1v-.9h-1c-2.51,0-2.51-.33-2.51-1.15V533.84"/><path d="M455.94,534.54a6.63,6.63,0,0,0,.29-2.08c0-2.34-1.44-3.84-4.13-3.84a6.87,6.87,0,0,0-5.57,3.12,3.24,3.24,0,0,0-3.3-3.12,3,3,0,0,0-2.66,2,15.05,15.05,0,0,0-1.11,3.48c0,.36.36.36.43.36.36,0,.4,0,.61-.83.61-2.55,1.33-4.27,2.62-4.27.61,0,1.11.29,1.11,1.65a11.57,11.57,0,0,1-.58,3l-2.08,8.3c-.11.54-.32,1.36-.32,1.54a1,1,0,0,0,1,1,1.47,1.47,0,0,0,1.33-1c0-.07.47-1.76.68-2.66l.79-3.23c.21-.79.43-1.58.61-2.41.07-.22.36-1.4.4-1.62a10.6,10.6,0,0,1,2.44-3.3A5.71,5.71,0,0,1,452,529.4c1.54,0,1.94,1.22,1.94,2.51a9.11,9.11,0,0,1-.36,2.26l-4.09,16.52a2.23,2.23,0,0,0-.11.57,1,1,0,0,0,1,1c1.11,0,1.36-1,1.47-1.44l4.1-16.27"/><path d="M464.61,533.84c0-.68,0-.7-.75-.7a6.84,6.84,0,0,1-4.91,1.6v.9a8.26,8.26,0,0,0,3.64-.7v12.78c0,.83,0,1.15-2.51,1.15h-1v.9c.45,0,3.53-.1,4.46-.1.78,0,3.93.07,4.49.1v-.9h-1c-2.51,0-2.51-.33-2.51-1.15V533.84"/><path d="M495,536.22h10c.5,0,1.18,0,1.18-.72s-.68-.72-1.18-.72H495V524.73c0-.5,0-1.18-.72-1.18s-.72.68-.72,1.18v10.06H483.51c-.5,0-1.19,0-1.19.72s.68.72,1.19.72h10.05v10.06c0,.5,0,1.19.72,1.19s.72-.68.72-1.19V536.22"/><path d="M522.46,535.87a6.48,6.48,0,0,1,2.19-.32,4.61,4.61,0,0,1,1.69.21c-.54.25-.61.29-2,.29a6.48,6.48,0,0,1-1.9-.18m-1.18.47a7.36,7.36,0,0,0,3.09.5c.93,0,2.91,0,2.91-1.11,0-.86-1.26-1-2.62-1a7.92,7.92,0,0,0-3.34.68,2.35,2.35,0,0,1-1.44-2.08c0-2.19,3.52-3.48,6.75-3.48a5.41,5.41,0,0,1,3.3,1c.39.29.47.36.72.36a1,1,0,0,0,1-1c0-.68-2.19-2-4.63-2-4.13,0-8,2.41-8,5.14a3.31,3.31,0,0,0,1.44,2.55,6,6,0,0,0-3.27,4.85c0,2.33,2,4.52,5.85,4.52,4.74,0,6.75-3.16,6.75-3.7a.37.37,0,0,0-.39-.36.46.46,0,0,0-.36.25c-.5.83-1.37,2.15-5.67,2.15-2.19,0-5.24-.54-5.24-3.09A5.29,5.29,0,0,1,521.27,536.33Z"/><path d="M541.31,533.84c0-.68,0-.7-.75-.7a6.84,6.84,0,0,1-4.91,1.6v.9a8.26,8.26,0,0,0,3.64-.7v12.78c0,.83,0,1.15-2.51,1.15h-1v.9c.45,0,3.53-.1,4.46-.1.78,0,3.93.07,4.49.1v-.9h-1c-2.51,0-2.51-.33-2.51-1.15V533.84"/><path d="M240.26,584.5a2.26,2.26,0,0,0,.14-.83,1,1,0,0,0-1-1,1.56,1.56,0,0,0-1.26.76c-.07.18-.36,1.29-.5,1.94-.25.93-.5,1.9-.72,2.87l-1.62,6.47c-.14.54-1.69,3.05-4.06,3.05-1.83,0-2.23-1.58-2.23-2.91,0-1.65.61-3.88,1.83-7a6.5,6.5,0,0,0,.72-2.59,2.85,2.85,0,0,0-2.94-2.94c-3.41,0-4.74,5.21-4.74,5.53s.36.36.43.36c.36,0,.4-.07.58-.65,1-3.37,2.41-4.45,3.63-4.45.29,0,.9,0,.9,1.15a7.65,7.65,0,0,1-.61,2.51c-1.44,3.81-2.08,5.85-2.08,7.54,0,3.2,2.26,4.27,4.38,4.27A5.08,5.08,0,0,0,234.7,597a13.8,13.8,0,0,1-2.33,5.53,5.14,5.14,0,0,1-4,2.26,2.9,2.9,0,0,1-2.73-1.51,2.05,2.05,0,0,0,1.54-.43,2,2,0,0,0,.72-1.47,1.23,1.23,0,0,0-1.33-1.26,2.07,2.07,0,0,0-2,2.33c0,1.8,1.58,3.13,3.81,3.13,3.7,0,7.4-3.27,8.4-7.33l3.45-13.72"/><path d="M253,599h-.85a5.81,5.81,0,0,1-.65,2.28,12.89,12.89,0,0,1-2.48.15h-4.61c2.63-2.33,3.51-3,5-4.21,1.85-1.48,3.58-3,3.58-5.41,0-3-2.66-4.89-5.87-4.89s-5.21,2.18-5.21,4.49a1.33,1.33,0,1,0,2.66.08c0-.45-.18-1.33-1.48-1.33a3.94,3.94,0,0,1,3.66-2.33,3.75,3.75,0,0,1,3.81,4c0,2.18-1.55,3.91-2.36,4.81l-6,6c-.25.23-.25.28-.25,1h10.33L253,599"/><path d="M291.12,593.41c.5,0,1.18,0,1.18-.72s-.68-.72-1.22-.72H269.64c-.54,0-1.22,0-1.22.72s.68.72,1.19.72h21.51m0-7c.54,0,1.22,0,1.22-.72s-.68-.72-1.18-.72H269.61c-.5,0-1.19,0-1.19.72s.68.72,1.22.72Z"/><path d="M319,594.63c-3.16,2.76-5.93,3.16-7.36,3.16-2.15,0-3.23-1.62-3.23-3.91a18.63,18.63,0,0,1,2.08-7.47c1.69-2.62,3.63-3.3,4.88-3.3,3.56,0,3.56,4.7,3.56,7.51,0,1.33,0,3.41.07,4m2.41-4.92c0-5.64-3.34-7.4-6-7.4-4.92,0-9.66,5.13-9.66,10.2,0,3.34,2.15,6.07,5.82,6.07a12.11,12.11,0,0,0,7.58-3c.47,1.9,1.65,3,3.27,3a3.32,3.32,0,0,0,3-2.55c0-.25-.21-.36-.43-.36s-.36.11-.47.36c-.65,1.76-1.94,1.76-2,1.76-1.11,0-1.11-2.8-1.11-3.66s0-.83.36-1.26a20.77,20.77,0,0,0,4.13-8.44c0-.07,0-.36-.43-.36s-.36.11-.54.75a21.21,21.21,0,0,1-3.52,7.11Z"/><path d="M339.87,599H339a5.81,5.81,0,0,1-.65,2.28,12.89,12.89,0,0,1-2.48.15h-4.61c2.63-2.33,3.51-3,5-4.21,1.86-1.48,3.58-3,3.58-5.41,0-3-2.66-4.89-5.87-4.89s-5.21,2.18-5.21,4.49a1.33,1.33,0,1,0,2.66.08c0-.45-.17-1.33-1.48-1.33a3.94,3.94,0,0,1,3.66-2.33,3.75,3.75,0,0,1,3.81,4c0,2.18-1.55,3.91-2.36,4.81l-6,6c-.25.23-.25.28-.25,1h10.32l.75-4.56"/><path d="M366,589.92h10c.5,0,1.18,0,1.18-.72s-.68-.72-1.18-.72H366V578.43c0-.5,0-1.18-.72-1.18s-.72.68-.72,1.18v10.06H354.51c-.5,0-1.19,0-1.19.72s.68.72,1.19.72h10.05V600c0,.5,0,1.19.72,1.19s.72-.68.72-1.19V589.92"/><path d="M399.93,587.7c1.47,3.77,3.19,9.27,3.77,10.09s.93.79,1.9.79h.79c.36,0,.39-.25.39-.36s-.07-.18-.18-.32a4.7,4.7,0,0,1-.83-1.65l-7.33-20.44c-.75-2.08-2.69-2.55-4.38-2.55-.18,0-.65,0-.65.4a.37.37,0,0,0,.32.36c1.19.21,1.44.43,2.33,2.87l3.49,9.77-9.91,9.84c-.43.43-.65.65-.65,1.11a1.05,1.05,0,0,0,1.08,1,1.52,1.52,0,0,0,1.18-.76l8.66-10.2"/><path d="M420.67,599h-.85a5.81,5.81,0,0,1-.65,2.28,12.89,12.89,0,0,1-2.48.15h-4.61c2.63-2.33,3.51-3,5-4.21,1.85-1.48,3.58-3,3.58-5.41,0-3-2.66-4.89-5.87-4.89s-5.21,2.18-5.21,4.49a1.33,1.33,0,1,0,2.66.08c0-.45-.18-1.33-1.48-1.33a3.94,3.94,0,0,1,3.66-2.33,3.75,3.75,0,0,1,3.81,4c0,2.18-1.55,3.91-2.36,4.81l-6,6c-.25.23-.25.28-.25,1h10.33l.75-4.56"/><path d="M430.71,587.64c0-.68-.05-.7-.75-.7a6.84,6.84,0,0,1-4.91,1.6v.9a8.26,8.26,0,0,0,3.64-.7v12.78c0,.83,0,1.15-2.51,1.15h-1v.9c.45,0,3.53-.1,4.46-.1.78,0,3.93.07,4.49.1v-.9h-1c-2.51,0-2.51-.33-2.51-1.15V587.64"/><path d="M455.94,588.24a6.63,6.63,0,0,0,.29-2.08c0-2.33-1.44-3.84-4.13-3.84a6.87,6.87,0,0,0-5.57,3.12,3.24,3.24,0,0,0-3.3-3.12,3,3,0,0,0-2.66,2,15.05,15.05,0,0,0-1.11,3.48c0,.36.36.36.43.36.36,0,.4,0,.61-.83.61-2.55,1.33-4.27,2.62-4.27.61,0,1.11.29,1.11,1.65a11.57,11.57,0,0,1-.58,3l-2.08,8.3c-.11.54-.32,1.36-.32,1.54a1,1,0,0,0,1,1,1.47,1.47,0,0,0,1.33-1c0-.07.47-1.76.68-2.66l.79-3.23c.21-.79.43-1.58.61-2.41.07-.22.36-1.4.4-1.62a10.6,10.6,0,0,1,2.44-3.3A5.71,5.71,0,0,1,452,583.1c1.54,0,1.94,1.22,1.94,2.51a9.11,9.11,0,0,1-.36,2.26l-4.09,16.52a2.23,2.23,0,0,0-.11.58,1,1,0,0,0,1,1c1.11,0,1.36-1,1.47-1.44l4.1-16.27"/><path d="M464.61,587.64c0-.68,0-.7-.75-.7a6.84,6.84,0,0,1-4.91,1.6v.9a8.26,8.26,0,0,0,3.64-.7v12.78c0,.83,0,1.15-2.51,1.15h-1v.9c.45,0,3.53-.1,4.46-.1.78,0,3.93.07,4.49.1v-.9h-1c-2.51,0-2.51-.33-2.51-1.15V587.64"/><path d="M495,589.92h10c.5,0,1.18,0,1.18-.72s-.68-.72-1.18-.72H495V578.43c0-.5,0-1.18-.72-1.18s-.72.68-.72,1.18v10.06H483.51c-.5,0-1.19,0-1.19.72s.68.72,1.19.72h10.05V600c0,.5,0,1.19.72,1.19s.72-.68.72-1.19V589.92"/><path d="M529,587.7c1.47,3.77,3.2,9.27,3.77,10.09s.93.79,1.9.79h.79c.36,0,.4-.25.4-.36s-.07-.18-.18-.32a4.7,4.7,0,0,1-.83-1.65l-7.33-20.44c-.75-2.08-2.69-2.55-4.38-2.55-.18,0-.65,0-.65.4a.37.37,0,0,0,.32.36c1.19.21,1.44.43,2.33,2.87l3.48,9.77-9.91,9.84c-.43.43-.65.65-.65,1.11a1.05,1.05,0,0,0,1.08,1,1.52,1.52,0,0,0,1.18-.76L529,587.7"/><path d="M549.77,599h-.85a5.81,5.81,0,0,1-.65,2.28,12.89,12.89,0,0,1-2.48.15h-4.61c2.63-2.33,3.51-3,5-4.21,1.85-1.48,3.59-3,3.59-5.41,0-3-2.66-4.89-5.87-4.89s-5.21,2.18-5.21,4.49a1.33,1.33,0,1,0,2.66.08c0-.45-.17-1.33-1.48-1.33a4,4,0,0,1,3.66-2.33,3.75,3.75,0,0,1,3.81,4c0,2.18-1.55,3.91-2.36,4.81l-6,6c-.25.23-.25.28-.25,1H549l.75-4.56"/><path d="M564.07,599h-.85a5.8,5.8,0,0,1-.65,2.28,12.89,12.89,0,0,1-2.48.15h-4.61c2.63-2.33,3.51-3,5-4.21,1.86-1.48,3.59-3,3.59-5.41,0-3-2.66-4.89-5.87-4.89s-5.21,2.18-5.21,4.49a1.33,1.33,0,1,0,2.66.08c0-.45-.17-1.33-1.48-1.33a3.94,3.94,0,0,1,3.66-2.33,3.75,3.75,0,0,1,3.81,4c0,2.18-1.56,3.91-2.36,4.81l-6,6c-.25.23-.25.28-.25,1h10.33l.75-4.56"/><path d="M585,588.24a6.62,6.62,0,0,0,.29-2.08c0-2.33-1.44-3.84-4.13-3.84a6.87,6.87,0,0,0-5.57,3.12,3.24,3.24,0,0,0-3.3-3.12,3,3,0,0,0-2.66,2,15.05,15.05,0,0,0-1.11,3.48c0,.36.36.36.43.36.36,0,.4,0,.61-.83.61-2.55,1.33-4.27,2.62-4.27.61,0,1.11.29,1.11,1.65a11.57,11.57,0,0,1-.58,3l-2.08,8.3c-.11.54-.32,1.36-.32,1.54a1,1,0,0,0,1,1,1.47,1.47,0,0,0,1.33-1c0-.07.47-1.76.68-2.66l.79-3.23c.21-.79.43-1.58.61-2.41.07-.22.36-1.4.4-1.62a10.6,10.6,0,0,1,2.44-3.3,5.71,5.71,0,0,1,3.45-1.26c1.54,0,1.94,1.22,1.94,2.51a9.11,9.11,0,0,1-.36,2.26l-4.1,16.52a2.23,2.23,0,0,0-.11.58,1,1,0,0,0,1,1c1.11,0,1.36-1,1.47-1.44l4.1-16.27"/><path d="M598,599h-.85a5.81,5.81,0,0,1-.65,2.28,12.89,12.89,0,0,1-2.48.15h-4.61c2.63-2.33,3.51-3,5-4.21,1.85-1.48,3.59-3,3.59-5.41,0-3-2.66-4.89-5.87-4.89s-5.21,2.18-5.21,4.49a1.33,1.33,0,1,0,2.66.08c0-.45-.18-1.33-1.48-1.33a3.94,3.94,0,0,1,3.66-2.33,3.75,3.75,0,0,1,3.81,4c0,2.18-1.55,3.91-2.36,4.81l-6,6c-.25.23-.25.28-.25,1h10.32L598,599"/><path d="M624,589.92h10c.5,0,1.18,0,1.18-.72s-.68-.72-1.18-.72H624V578.43c0-.5,0-1.18-.72-1.18s-.72.68-.72,1.18v10.06H612.51c-.5,0-1.19,0-1.19.72s.68.72,1.19.72h10.05V600c0,.5,0,1.19.72,1.19s.72-.68.72-1.19V589.92"/><path d="M651.46,589.57a6.48,6.48,0,0,1,2.19-.32,4.61,4.61,0,0,1,1.69.21c-.54.25-.61.29-2,.29a6.48,6.48,0,0,1-1.9-.18m-1.18.47a7.36,7.36,0,0,0,3.09.5c.93,0,2.91,0,2.91-1.11,0-.86-1.26-1-2.62-1a7.92,7.92,0,0,0-3.34.68,2.35,2.35,0,0,1-1.44-2.08c0-2.19,3.52-3.48,6.75-3.48a5.41,5.41,0,0,1,3.3,1c.39.29.47.36.72.36a1,1,0,0,0,1-1c0-.68-2.19-2-4.63-2-4.13,0-8,2.41-8,5.14a3.31,3.31,0,0,0,1.44,2.55,6,6,0,0,0-3.27,4.85c0,2.33,2,4.53,5.85,4.53,4.74,0,6.75-3.16,6.75-3.7a.37.37,0,0,0-.39-.36.46.46,0,0,0-.36.25c-.5.83-1.37,2.15-5.67,2.15-2.19,0-5.24-.54-5.24-3.09A5.29,5.29,0,0,1,650.27,590Z"/><path d="M674.57,599h-.85a5.8,5.8,0,0,1-.65,2.28,12.89,12.89,0,0,1-2.48.15H666c2.63-2.33,3.51-3,5-4.21,1.86-1.48,3.59-3,3.59-5.41,0-3-2.66-4.89-5.87-4.89s-5.21,2.18-5.21,4.49a1.33,1.33,0,1,0,2.66.08c0-.45-.17-1.33-1.48-1.33a3.94,3.94,0,0,1,3.66-2.33,3.75,3.75,0,0,1,3.81,4c0,2.18-1.56,3.91-2.36,4.81l-6,6c-.25.23-.25.28-.25,1h10.33l.75-4.56"/><path d="M240.26,638.3a2.26,2.26,0,0,0,.14-.83,1,1,0,0,0-1-1,1.56,1.56,0,0,0-1.26.75c-.07.18-.36,1.29-.5,1.94-.25.93-.5,1.9-.72,2.87l-1.62,6.46c-.14.54-1.69,3.05-4.06,3.05-1.83,0-2.23-1.58-2.23-2.91,0-1.65.61-3.88,1.83-7a6.5,6.5,0,0,0,.72-2.59,2.85,2.85,0,0,0-2.94-2.94c-3.41,0-4.74,5.21-4.74,5.53s.36.36.43.36c.36,0,.4-.07.58-.65,1-3.37,2.41-4.45,3.63-4.45.29,0,.9,0,.9,1.15a7.64,7.64,0,0,1-.61,2.51c-1.44,3.81-2.08,5.85-2.08,7.54,0,3.2,2.26,4.27,4.38,4.27a5.08,5.08,0,0,0,3.63-1.62,13.8,13.8,0,0,1-2.33,5.53,5.14,5.14,0,0,1-4,2.26,2.9,2.9,0,0,1-2.73-1.51,2.05,2.05,0,0,0,1.54-.43,1.94,1.94,0,0,0,.72-1.47,1.22,1.22,0,0,0-1.33-1.26,2.07,2.07,0,0,0-2,2.33c0,1.8,1.58,3.13,3.81,3.13,3.7,0,7.4-3.27,8.4-7.33l3.45-13.72"/><path d="M247.15,649c2,0,3.36,1.35,3.36,4,0,3.11-1.8,4-3.26,4-1,0-3.21-.28-4.26-1.75a1.36,1.36,0,0,0,1.45-1.4,1.39,1.39,0,1,0-2.78.08c0,2.35,2.61,3.88,5.64,3.88,3.48,0,5.89-2.33,5.89-4.84,0-2-1.6-3.91-4.36-4.49,2.63-1,3.58-2.83,3.58-4.36,0-2-2.28-3.46-5.06-3.46s-4.91,1.35-4.91,3.36a1.29,1.29,0,1,0,2.58.05,1.27,1.27,0,0,0-1.28-1.3,4.76,4.76,0,0,1,3.53-1.38A2.52,2.52,0,0,1,250,644.2a4.81,4.81,0,0,1-1,3c-.83,1-1.53,1-2.78,1.08a7.81,7.81,0,0,0-.8.07s-.25.05-.25.33.23.35.65.35h1.35"/><path d="M291.12,647.21c.5,0,1.18,0,1.18-.72s-.68-.72-1.22-.72H269.64c-.54,0-1.22,0-1.22.72s.68.72,1.19.72h21.51m0-7c.54,0,1.22,0,1.22-.72s-.68-.72-1.18-.72H269.61c-.5,0-1.19,0-1.19.72s.68.72,1.22.72Z"/><path d="M319,648.43c-3.16,2.77-5.93,3.16-7.36,3.16-2.15,0-3.23-1.62-3.23-3.91a18.62,18.62,0,0,1,2.08-7.47c1.69-2.62,3.63-3.3,4.88-3.3,3.56,0,3.56,4.7,3.56,7.51,0,1.33,0,3.41.07,4m2.41-4.92c0-5.64-3.34-7.4-6-7.4-4.92,0-9.66,5.13-9.66,10.2,0,3.34,2.15,6.07,5.82,6.07a12.11,12.11,0,0,0,7.58-3c.47,1.9,1.65,3,3.27,3a3.32,3.32,0,0,0,3-2.55c0-.25-.21-.36-.43-.36s-.36.11-.47.36c-.65,1.76-1.94,1.76-2,1.76-1.11,0-1.11-2.8-1.11-3.66s0-.83.36-1.26a20.77,20.77,0,0,0,4.13-8.44c0-.07,0-.36-.43-.36s-.36.11-.54.75a21.2,21.2,0,0,1-3.52,7.11Z"/><path d="M334.05,649c2,0,3.36,1.35,3.36,4,0,3.11-1.8,4-3.26,4-1,0-3.21-.28-4.26-1.75a1.36,1.36,0,0,0,1.46-1.4,1.39,1.39,0,1,0-2.78.08c0,2.35,2.61,3.88,5.64,3.88,3.48,0,5.89-2.33,5.89-4.84,0-2-1.6-3.91-4.36-4.49,2.63-1,3.58-2.83,3.58-4.36,0-2-2.28-3.46-5.06-3.46s-4.91,1.35-4.91,3.36a1.29,1.29,0,1,0,2.58.05,1.27,1.27,0,0,0-1.28-1.3,4.77,4.77,0,0,1,3.53-1.38,2.52,2.52,0,0,1,2.71,2.73,4.81,4.81,0,0,1-1,3c-.83,1-1.53,1-2.78,1.08a7.78,7.78,0,0,0-.8.07c-.05,0-.25.05-.25.33s.22.35.65.35h1.35"/><path d="M366,643.72h10c.5,0,1.18,0,1.18-.72s-.68-.72-1.18-.72H366V632.23c0-.5,0-1.18-.72-1.18s-.72.68-.72,1.18v10.06H354.51c-.5,0-1.19,0-1.19.72s.68.72,1.19.72h10.05v10.06c0,.5,0,1.19.72,1.19s.72-.68.72-1.19V643.72"/><path d="M399.93,641.5c1.47,3.77,3.19,9.27,3.77,10.09s.93.79,1.9.79h.79c.36,0,.39-.25.39-.36s-.07-.18-.18-.32a4.71,4.71,0,0,1-.83-1.65l-7.33-20.44c-.75-2.08-2.69-2.55-4.38-2.55-.18,0-.65,0-.65.4a.37.37,0,0,0,.32.36c1.19.22,1.44.43,2.33,2.87l3.49,9.77-9.91,9.84c-.43.43-.65.65-.65,1.11a1.05,1.05,0,0,0,1.08,1,1.52,1.52,0,0,0,1.18-.75l8.66-10.2"/><path d="M414.85,649c2,0,3.36,1.35,3.36,4,0,3.11-1.81,4-3.26,4-1,0-3.21-.28-4.26-1.75a1.36,1.36,0,0,0,1.46-1.4,1.39,1.39,0,1,0-2.78.08c0,2.35,2.61,3.88,5.64,3.88,3.49,0,5.89-2.33,5.89-4.84,0-2-1.61-3.91-4.36-4.49,2.63-1,3.58-2.83,3.58-4.36,0-2-2.28-3.46-5.06-3.46s-4.91,1.35-4.91,3.36a1.29,1.29,0,1,0,2.58.05,1.27,1.27,0,0,0-1.28-1.3,4.77,4.77,0,0,1,3.53-1.38,2.52,2.52,0,0,1,2.71,2.73,4.81,4.81,0,0,1-1,3c-.83,1-1.53,1-2.78,1.08a7.78,7.78,0,0,0-.8.07s-.25.05-.25.33.23.35.65.35h1.35"/><path d="M430.71,641.44c0-.68-.05-.7-.75-.7a6.84,6.84,0,0,1-4.91,1.6v.9a8.26,8.26,0,0,0,3.64-.7v12.78c0,.83,0,1.15-2.51,1.15h-1v.9c.45,0,3.53-.1,4.46-.1.78,0,3.93.07,4.49.1v-.9h-1c-2.51,0-2.51-.33-2.51-1.15V641.44"/><path d="M455.94,642a6.62,6.62,0,0,0,.29-2.08c0-2.33-1.44-3.84-4.13-3.84a6.87,6.87,0,0,0-5.57,3.12,3.24,3.24,0,0,0-3.3-3.12,3,3,0,0,0-2.66,2,15,15,0,0,0-1.11,3.48c0,.36.36.36.43.36.36,0,.4,0,.61-.83.61-2.55,1.33-4.27,2.62-4.27.61,0,1.11.29,1.11,1.65a11.57,11.57,0,0,1-.58,3l-2.08,8.3c-.11.54-.32,1.36-.32,1.54a1,1,0,0,0,1,1,1.47,1.47,0,0,0,1.33-1c0-.07.47-1.76.68-2.66l.79-3.23c.21-.79.43-1.58.61-2.41.07-.22.36-1.4.4-1.62a10.59,10.59,0,0,1,2.44-3.3A5.71,5.71,0,0,1,452,636.9c1.54,0,1.94,1.22,1.94,2.51a9.11,9.11,0,0,1-.36,2.26l-4.09,16.52a2.22,2.22,0,0,0-.11.57,1,1,0,0,0,1,1c1.11,0,1.36-1,1.47-1.44l4.1-16.27"/><path d="M464.61,641.44c0-.68,0-.7-.75-.7a6.84,6.84,0,0,1-4.91,1.6v.9a8.26,8.26,0,0,0,3.64-.7v12.78c0,.83,0,1.15-2.51,1.15h-1v.9c.45,0,3.53-.1,4.46-.1.78,0,3.93.07,4.49.1v-.9h-1c-2.51,0-2.51-.33-2.51-1.15V641.44"/><path d="M495,643.72h10c.5,0,1.18,0,1.18-.72s-.68-.72-1.18-.72H495V632.23c0-.5,0-1.18-.72-1.18s-.72.68-.72,1.18v10.06H483.51c-.5,0-1.19,0-1.19.72s.68.72,1.19.72h10.05v10.06c0,.5,0,1.19.72,1.19s.72-.68.72-1.19V643.72"/><path d="M529,641.5c1.47,3.77,3.2,9.27,3.77,10.09s.93.79,1.9.79h.79c.36,0,.4-.25.4-.36s-.07-.18-.18-.32a4.71,4.71,0,0,1-.83-1.65l-7.33-20.44c-.75-2.08-2.69-2.55-4.38-2.55-.18,0-.65,0-.65.4a.37.37,0,0,0,.32.36c1.19.22,1.44.43,2.33,2.87l3.48,9.77-9.91,9.84c-.43.43-.65.65-.65,1.11a1.05,1.05,0,0,0,1.08,1,1.52,1.52,0,0,0,1.18-.75L529,641.5"/><path d="M544,649c2,0,3.36,1.35,3.36,4,0,3.11-1.8,4-3.26,4-1,0-3.21-.28-4.26-1.75a1.36,1.36,0,0,0,1.45-1.4,1.39,1.39,0,1,0-2.78.08c0,2.35,2.61,3.88,5.64,3.88,3.48,0,5.89-2.33,5.89-4.84,0-2-1.6-3.91-4.36-4.49,2.63-1,3.58-2.83,3.58-4.36,0-2-2.28-3.46-5.06-3.46s-4.91,1.35-4.91,3.36a1.29,1.29,0,1,0,2.58.05,1.27,1.27,0,0,0-1.28-1.3,4.77,4.77,0,0,1,3.53-1.38,2.52,2.52,0,0,1,2.71,2.73,4.81,4.81,0,0,1-1,3c-.83,1-1.53,1-2.78,1.08a7.79,7.79,0,0,0-.8.07s-.25.05-.25.33.22.35.65.35H544"/><path d="M564.07,652.82h-.85a5.8,5.8,0,0,1-.65,2.28,12.84,12.84,0,0,1-2.48.15h-4.61c2.63-2.33,3.51-3,5-4.21,1.86-1.48,3.59-3,3.59-5.41,0-3-2.66-4.89-5.87-4.89s-5.21,2.18-5.21,4.49a1.33,1.33,0,1,0,2.66.08c0-.45-.17-1.33-1.48-1.33a3.94,3.94,0,0,1,3.66-2.33,3.75,3.75,0,0,1,3.81,4c0,2.18-1.56,3.91-2.36,4.81l-6,6c-.25.23-.25.28-.25,1h10.33l.75-4.56"/><path d="M585,642a6.62,6.62,0,0,0,.29-2.08c0-2.33-1.44-3.84-4.13-3.84a6.87,6.87,0,0,0-5.57,3.12,3.24,3.24,0,0,0-3.3-3.12,3,3,0,0,0-2.66,2,15,15,0,0,0-1.11,3.48c0,.36.36.36.43.36.36,0,.4,0,.61-.83.61-2.55,1.33-4.27,2.62-4.27.61,0,1.11.29,1.11,1.65a11.57,11.57,0,0,1-.58,3l-2.08,8.3c-.11.54-.32,1.36-.32,1.54a1,1,0,0,0,1,1,1.47,1.47,0,0,0,1.33-1c0-.07.47-1.76.68-2.66l.79-3.23c.21-.79.43-1.58.61-2.41.07-.22.36-1.4.4-1.62a10.6,10.6,0,0,1,2.44-3.3,5.71,5.71,0,0,1,3.45-1.26c1.54,0,1.94,1.22,1.94,2.51a9.11,9.11,0,0,1-.36,2.26l-4.1,16.52a2.22,2.22,0,0,0-.11.57,1,1,0,0,0,1,1c1.11,0,1.36-1,1.47-1.44L585,642"/><path d="M598,652.82h-.85a5.8,5.8,0,0,1-.65,2.28,12.84,12.84,0,0,1-2.48.15h-4.61c2.63-2.33,3.51-3,5-4.21,1.85-1.48,3.59-3,3.59-5.41,0-3-2.66-4.89-5.87-4.89s-5.21,2.18-5.21,4.49a1.33,1.33,0,1,0,2.66.08c0-.45-.18-1.33-1.48-1.33a3.94,3.94,0,0,1,3.66-2.33,3.75,3.75,0,0,1,3.81,4c0,2.18-1.55,3.91-2.36,4.81l-6,6c-.25.23-.25.28-.25,1h10.32l.75-4.56"/><path d="M624,643.72h10c.5,0,1.18,0,1.18-.72s-.68-.72-1.18-.72H624V632.23c0-.5,0-1.18-.72-1.18s-.72.68-.72,1.18v10.06H612.51c-.5,0-1.19,0-1.19.72s.68.72,1.19.72h10.05v10.06c0,.5,0,1.19.72,1.19s.72-.68.72-1.19V643.72"/><path d="M651.46,643.37a6.47,6.47,0,0,1,2.19-.32,4.59,4.59,0,0,1,1.69.22c-.54.25-.61.29-2,.29a6.49,6.49,0,0,1-1.9-.18m-1.18.47a7.36,7.36,0,0,0,3.09.5c.93,0,2.91,0,2.91-1.11,0-.86-1.26-1-2.62-1a7.92,7.92,0,0,0-3.34.68,2.35,2.35,0,0,1-1.44-2.08c0-2.19,3.52-3.48,6.75-3.48a5.41,5.41,0,0,1,3.3,1c.39.29.47.36.72.36a1,1,0,0,0,1-1c0-.68-2.19-2-4.63-2-4.13,0-8,2.41-8,5.14a3.31,3.31,0,0,0,1.44,2.55,6,6,0,0,0-3.27,4.85c0,2.33,2,4.53,5.85,4.53,4.74,0,6.75-3.16,6.75-3.7a.37.37,0,0,0-.39-.36.46.46,0,0,0-.36.25c-.5.83-1.37,2.15-5.67,2.15-2.19,0-5.24-.54-5.24-3.09A5.29,5.29,0,0,1,650.27,643.83Z"/><path d="M668.75,649c2,0,3.36,1.35,3.36,4,0,3.11-1.8,4-3.26,4-1,0-3.21-.28-4.26-1.75a1.36,1.36,0,0,0,1.46-1.4,1.39,1.39,0,1,0-2.78.08c0,2.35,2.61,3.88,5.64,3.88,3.49,0,5.89-2.33,5.89-4.84,0-2-1.6-3.91-4.36-4.49,2.63-1,3.58-2.83,3.58-4.36,0-2-2.28-3.46-5.06-3.46S664,642.1,664,644.1a1.29,1.29,0,1,0,2.58.05,1.27,1.27,0,0,0-1.28-1.3,4.77,4.77,0,0,1,3.53-1.38,2.52,2.52,0,0,1,2.71,2.73,4.81,4.81,0,0,1-1,3c-.83,1-1.53,1-2.78,1.08a7.79,7.79,0,0,0-.8.07s-.25.05-.25.33.23.35.65.35h1.35"/><path d="M240.26,692.1a2.26,2.26,0,0,0,.14-.83,1,1,0,0,0-1-1,1.56,1.56,0,0,0-1.26.75c-.07.18-.36,1.29-.5,1.94-.25.93-.5,1.9-.72,2.87l-1.62,6.46c-.14.54-1.69,3.05-4.06,3.05-1.83,0-2.23-1.58-2.23-2.91,0-1.65.61-3.88,1.83-7a6.5,6.5,0,0,0,.72-2.59,2.85,2.85,0,0,0-2.94-2.94c-3.41,0-4.74,5.21-4.74,5.53s.36.36.43.36c.36,0,.4-.07.58-.65,1-3.37,2.41-4.45,3.63-4.45.29,0,.9,0,.9,1.15a7.64,7.64,0,0,1-.61,2.51c-1.44,3.81-2.08,5.85-2.08,7.54,0,3.2,2.26,4.27,4.38,4.27a5.08,5.08,0,0,0,3.63-1.62,13.8,13.8,0,0,1-2.33,5.53,5.14,5.14,0,0,1-4,2.26,2.9,2.9,0,0,1-2.73-1.51,2.05,2.05,0,0,0,1.54-.43,1.94,1.94,0,0,0,.72-1.47,1.22,1.22,0,0,0-1.33-1.26,2.07,2.07,0,0,0-2,2.33c0,1.8,1.58,3.13,3.81,3.13,3.7,0,7.4-3.27,8.4-7.33l3.45-13.72"/><path d="M248.83,697v9.17h-6.62Zm4.74,10.07v-.9h-2.78V695c0-.53,0-.7-.55-.7-.3,0-.4,0-.65.35l-8.3,11.53v.9h7.37v2.06c0,.85,0,1.15-2,1.15h-.68v.9c1.25,0,2.86-.1,3.76-.1s2.53.05,3.78.1v-.9h-.68c-2,0-2-.3-2-1.15v-2.06Z"/><path d="M291.12,701c.5,0,1.18,0,1.18-.72s-.68-.72-1.22-.72H269.64c-.54,0-1.22,0-1.22.72s.68.72,1.19.72h21.51m0-7c.54,0,1.22,0,1.22-.72s-.68-.72-1.18-.72H269.61c-.5,0-1.19,0-1.19.72s.68.72,1.22.72Z"/><path d="M319,702.23c-3.16,2.77-5.93,3.16-7.36,3.16-2.15,0-3.23-1.62-3.23-3.91a18.62,18.62,0,0,1,2.08-7.47c1.69-2.62,3.63-3.3,4.88-3.3,3.56,0,3.56,4.7,3.56,7.51,0,1.33,0,3.41.07,4m2.41-4.92c0-5.64-3.34-7.4-6-7.4-4.92,0-9.66,5.13-9.66,10.2,0,3.34,2.15,6.07,5.82,6.07a12.11,12.11,0,0,0,7.58-3c.47,1.9,1.65,3,3.27,3a3.32,3.32,0,0,0,3-2.55c0-.25-.21-.36-.43-.36s-.36.11-.47.36c-.65,1.76-1.94,1.76-2,1.76-1.11,0-1.11-2.8-1.11-3.66s0-.83.36-1.26a20.77,20.77,0,0,0,4.13-8.44c0-.07,0-.36-.43-.36s-.36.11-.54.75a21.2,21.2,0,0,1-3.52,7.11Z"/><path d="M335.73,697v9.17h-6.62Zm4.74,10.07v-.9h-2.78V695c0-.53,0-.7-.55-.7-.3,0-.4,0-.65.35l-8.3,11.53v.9h7.37v2.06c0,.85,0,1.15-2,1.15h-.68v.9c1.25,0,2.86-.1,3.76-.1s2.53.05,3.79.1v-.9h-.68c-2,0-2-.3-2-1.15v-2.06Z"/><path d="M366,697.52h10c.5,0,1.18,0,1.18-.72s-.68-.72-1.18-.72H366V686c0-.5,0-1.18-.72-1.18s-.72.68-.72,1.18v10.06H354.51c-.5,0-1.19,0-1.19.72s.68.72,1.19.72h10.05v10.06c0,.5,0,1.19.72,1.19s.72-.68.72-1.19V697.52"/><path d="M399.93,695.3c1.47,3.77,3.19,9.27,3.77,10.09s.93.79,1.9.79h.79c.36,0,.39-.25.39-.36s-.07-.18-.18-.32a4.71,4.71,0,0,1-.83-1.65l-7.33-20.44c-.75-2.08-2.69-2.55-4.38-2.55-.18,0-.65,0-.65.4a.37.37,0,0,0,.32.36c1.19.22,1.44.43,2.33,2.87l3.49,9.77-9.91,9.84c-.43.43-.65.65-.65,1.11a1.05,1.05,0,0,0,1.08,1,1.52,1.52,0,0,0,1.18-.75l8.66-10.2"/><path d="M416.53,697v9.17h-6.62Zm4.74,10.07v-.9h-2.78V695c0-.53,0-.7-.55-.7-.3,0-.4,0-.65.35L409,706.17v.9h7.37v2.06c0,.85,0,1.15-2,1.15h-.68v.9c1.25,0,2.86-.1,3.76-.1s2.53.05,3.79.1v-.9h-.68c-2,0-2-.3-2-1.15v-2.06Z"/><path d="M430.71,695.24c0-.68-.05-.7-.75-.7a6.84,6.84,0,0,1-4.91,1.6v.9a8.26,8.26,0,0,0,3.64-.7v12.78c0,.83,0,1.15-2.51,1.15h-1v.9c.45,0,3.53-.1,4.46-.1.78,0,3.93.08,4.49.1v-.9h-1c-2.51,0-2.51-.33-2.51-1.15V695.24"/><path d="M455.94,695.84a6.62,6.62,0,0,0,.29-2.08c0-2.33-1.44-3.84-4.13-3.84a6.87,6.87,0,0,0-5.57,3.12,3.24,3.24,0,0,0-3.3-3.12,3,3,0,0,0-2.66,2,15,15,0,0,0-1.11,3.48c0,.36.36.36.43.36.36,0,.4,0,.61-.83.61-2.55,1.33-4.27,2.62-4.27.61,0,1.11.29,1.11,1.65a11.57,11.57,0,0,1-.58,3l-2.08,8.3c-.11.54-.32,1.36-.32,1.54a1,1,0,0,0,1,1,1.47,1.47,0,0,0,1.33-1c0-.07.47-1.76.68-2.66l.79-3.23c.21-.79.43-1.58.61-2.41.07-.22.36-1.4.4-1.62a10.59,10.59,0,0,1,2.44-3.3A5.71,5.71,0,0,1,452,690.7c1.54,0,1.94,1.22,1.94,2.51a9.11,9.11,0,0,1-.36,2.26L449.47,712a2.22,2.22,0,0,0-.11.58,1,1,0,0,0,1,1c1.11,0,1.36-1,1.47-1.44l4.1-16.27"/><path d="M464.61,695.24c0-.68,0-.7-.75-.7a6.84,6.84,0,0,1-4.91,1.6v.9a8.26,8.26,0,0,0,3.64-.7v12.78c0,.83,0,1.15-2.51,1.15h-1v.9c.45,0,3.53-.1,4.46-.1.78,0,3.93.08,4.49.1v-.9h-1c-2.51,0-2.51-.33-2.51-1.15V695.24"/><path d="M495,697.52h10c.5,0,1.18,0,1.18-.72s-.68-.72-1.18-.72H495V686c0-.5,0-1.18-.72-1.18s-.72.68-.72,1.18v10.06H483.51c-.5,0-1.19,0-1.19.72s.68.72,1.19.72h10.05v10.06c0,.5,0,1.19.72,1.19s.72-.68.72-1.19V697.52"/><path d="M522.46,697.17a6.47,6.47,0,0,1,2.19-.32,4.59,4.59,0,0,1,1.69.22c-.54.25-.61.29-2,.29a6.49,6.49,0,0,1-1.9-.18m-1.18.47a7.36,7.36,0,0,0,3.09.5c.93,0,2.91,0,2.91-1.11,0-.86-1.26-1-2.62-1a7.92,7.92,0,0,0-3.34.68,2.35,2.35,0,0,1-1.44-2.08c0-2.19,3.52-3.48,6.75-3.48a5.41,5.41,0,0,1,3.3,1c.39.29.47.36.72.36a1,1,0,0,0,1-1c0-.68-2.19-2-4.63-2-4.13,0-8,2.41-8,5.14a3.31,3.31,0,0,0,1.44,2.55,6,6,0,0,0-3.27,4.85c0,2.33,2,4.53,5.85,4.53,4.74,0,6.75-3.16,6.75-3.7a.37.37,0,0,0-.39-.36.46.46,0,0,0-.36.25c-.5.83-1.37,2.15-5.67,2.15-2.19,0-5.24-.54-5.24-3.09A5.29,5.29,0,0,1,521.27,697.63Z"/><path d="M541.43,697v9.17h-6.62Zm4.74,10.07v-.9h-2.78V695c0-.53,0-.7-.55-.7-.3,0-.4,0-.65.35l-8.29,11.53v.9h7.37v2.06c0,.85,0,1.15-2,1.15h-.68v.9c1.25,0,2.86-.1,3.76-.1s2.53.05,3.79.1v-.9h-.68c-2,0-2-.3-2-1.15v-2.06Z"/></g></svg>