<svg id="Layer_1" data-name="Layer 1" xmlns="http://www.w3.org/2000/svg" xmlns:xlink="http://www.w3.org/1999/xlink" viewBox="0 0 1024 591"><defs><style>.cls-1,.cls-10,.cls-13{fill:none;}.cls-2{clip-path:url(#clip-path);}.cls-3{fill:#fff;}.cls-4{fill:#00f4ff;}.cls-5{clip-path:url(#clip-path-2);}.cls-11,.cls-6{font-size:32px;}.cls-16,.cls-6,.cls-7{font-family:Arial-ItalicMT, Arial;font-style:italic;}.cls-7{font-size:21.33px;}.cls-8{clip-path:url(#clip-path-4);}.cls-16,.cls-9{font-size:24px;}.cls-11,.cls-17,.cls-9{font-family:ArialMT, Arial;}.cls-10,.cls-13{stroke:#000;}.cls-10{stroke-miterlimit:10;stroke-width:1.76px;}.cls-12{clip-path:url(#clip-path-6);}.cls-13{stroke-width:2px;}.cls-14{clip-path:url(#clip-path-8);}.cls-15{clip-path:url(#clip-path-10);}.cls-17{font-size:21px;}.cls-18{letter-spacing:-0.07em;}</style><clipPath id="clip-path"><rect class="cls-1" width="1024" height="768"/></clipPath><clipPath id="clip-path-2"><rect class="cls-1" x="141.55" y="242.43" width="109.88" height="100"/></clipPath><clipPath id="clip-path-4"><rect class="cls-1" x="141.55" y="407.11" width="109.88" height="100"/></clipPath><clipPath id="clip-path-6"><rect class="cls-1" x="387.56" y="242.43" width="109.88" height="100"/></clipPath><clipPath id="clip-path-8"><rect class="cls-1" x="653.61" y="168.44" width="109.88" height="100"/></clipPath><clipPath id="clip-path-10"><rect class="cls-1" x="653.61" y="407.11" width="109.88" height="100"/></clipPath></defs><title>ram_simplified</title><g class="cls-2"><rect class="cls-3" width="1024" height="768"/><rect class="cls-4" x="146.49" y="242.43" width="100" height="100"/></g><g class="cls-5"><text class="cls-6" transform="translate(180 304)">X</text><text class="cls-7" transform="translate(201.34 306.26)">1</text></g><g class="cls-2"><rect class="cls-4" x="146.49" y="407.11" width="100" height="100"/></g><g class="cls-8"><text class="cls-6" transform="translate(180 468)">X</text><text class="cls-7" transform="translate(201.34 470.26)">2</text></g><g class="cls-2"><text class="cls-9" transform="translate(117 138)">Exogenous (X)</text><line class="cls-10" x1="117.11" y1="141.01" x2="275.87" y2="141.01"/><text class="cls-11" transform="translate(26 45)">SEM notation redux (simplified RAM notation)</text><rect class="cls-4" x="392.5" y="242.43" width="100" height="100"/></g><g class="cls-12"><text class="cls-6" transform="translate(426 304)">Y</text><text class="cls-7" transform="translate(447.34 306.26)">1</text></g><g class="cls-2"><polyline class="cls-13" points="533.08 198.18 497.2 235.51 496.5 236.23"/><polygon points="493.74 232.19 490.55 242.44 500.66 238.84 493.74 232.19"/><rect class="cls-4" x="658.55" y="168.44" width="100" height="100"/></g><g class="cls-14"><text class="cls-6" transform="translate(692 230)">Y</text><text class="cls-7" transform="translate(713.34 232.26)">2</text></g><g class="cls-2"><polyline class="cls-13" points="799.13 124.18 763.25 161.52 762.56 162.24"/><polygon points="759.79 158.19 756.6 168.44 766.71 164.84 759.79 158.19"/><rect class="cls-4" x="658.55" y="407.11" width="100" height="100"/></g><g class="cls-15"><text class="cls-6" transform="translate(692 468)">Y</text><text class="cls-7" transform="translate(713.34 470.26)">3</text></g><g class="cls-2"><polyline class="cls-13" points="799.13 362.85 763.25 400.18 762.56 400.9"/><polygon points="759.79 396.86 756.6 407.11 766.71 403.51 759.79 396.86"/><path class="cls-13" d="M806.18,357.91l.82-.57q159.09-114.15,0-227.67l-.82-.57"/><polygon points="809.75 125.73 799.13 124.18 804.26 133.6 809.75 125.73"/><polygon points="804.24 353.41 799.13 362.85 809.75 361.27 804.24 353.41"/><path class="cls-13" d="M138.88,430.89l-.88-.47q-115-62.5-.27-115.84l.92-.41"/><polygon points="139.69 318.96 146.49 310.66 135.77 310.2 139.69 318.96"/><polygon points="135.76 434.67 146.49 434.89 140.23 426.18 135.76 434.67"/><polyline class="cls-13" points="246.49 423.64 384.52 331.25 385.35 330.69"/><polygon points="387.19 335.23 392.5 325.9 381.85 327.25 387.19 335.23"/><path class="cls-13" d="M246.49,292.43H383.9"/><polygon points="382.9 297.24 392.5 292.44 382.9 287.63 382.9 297.24"/><polyline class="cls-13" points="650.26 234.65 649.3 234.92 492.5 278.53"/><polygon points="650.59 239.54 658.55 232.34 648.02 230.29 650.59 239.54"/><polyline class="cls-13" points="651.24 421.63 650.39 421.11 492.5 323.38"/><polygon points="647.86 425.19 658.55 426.16 652.91 417.02 647.86 425.19"/><path class="cls-13" d="M246.49,457.11H650"/><polygon points="648.95 461.9 658.55 457.11 648.95 452.31 648.95 461.9"/><text class="cls-9" transform="translate(502 560)">Endogenous (</text><text class="cls-16" transform="translate(651.45 560)">Y</text><text class="cls-9" transform="translate(667.46 560)">)</text><line class="cls-10" x1="502.35" y1="562.75" x2="675.8" y2="562.75"/><text class="cls-17" transform="translate(914 212)">Residual </text><text class="cls-17" transform="translate(901 236)">Association </text><text class="cls-17" transform="translate(895 260)">(Disturbance </text><text class="cls-17" transform="translate(900 284)">Correlation)</text><text class="cls-17" transform="translate(390 445)">Regression path</text><text class="cls-17" transform="translate(151 534)">Observed </text><text class="cls-17" transform="translate(160 558)">variable</text><text class="cls-17" transform="translate(867 84)">Disturbance </text><text class="cls-17" transform="translate(832 108)">(Residual variance)</text><text class="cls-17" transform="translate(185 207)"><tspan class="cls-18">V</tspan><tspan x="12.45" y="0">ariance</tspan></text><text class="cls-17" transform="translate(12 316)">Correlation</text><polyline class="cls-13" points="278.83 207.49 249.91 236.41 249.21 237.11"/><polygon points="246.52 233.01 243.12 243.19 253.31 239.8 246.52 233.01"/><polyline class="cls-13" points="281.11 372.16 252.08 399.75 251.36 400.44"/><polygon points="248.78 396.27 245.12 406.36 255.39 403.23 248.78 396.27"/></g></svg>