<svg id="Layer_1" data-name="Layer 1" xmlns="http://www.w3.org/2000/svg" xmlns:xlink="http://www.w3.org/1999/xlink" viewBox="0 0 1024 640"><defs><style>.cls-1,.cls-15,.cls-7{fill:none;}.cls-2{clip-path:url(#clip-path);}.cls-3{fill:#fff;}.cls-4{fill:#00f4ff;}.cls-5{clip-path:url(#clip-path-2);}.cls-6{font-size:22px;}.cls-17,.cls-18,.cls-6{font-family:ArialMT, Arial;}.cls-7{stroke:#000;}.cls-15,.cls-7{stroke-width:2px;}.cls-8{clip-path:url(#clip-path-4);}.cls-9{clip-path:url(#clip-path-6);}.cls-10{clip-path:url(#clip-path-8);}.cls-11{clip-path:url(#clip-path-10);}.cls-12{clip-path:url(#clip-path-12);}.cls-13{clip-path:url(#clip-path-14);}.cls-14{clip-path:url(#clip-path-16);}.cls-15{stroke:#00fdff;}.cls-16{font-size:24px;font-family:Arial-BoldMT, Arial;font-weight:700;}.cls-17{font-size:18px;}.cls-18{font-size:32px;}</style><clipPath id="clip-path"><rect class="cls-1" y="-7" width="1024" height="768"/></clipPath><clipPath id="clip-path-2"><rect class="cls-1" x="89.52" y="125.28" width="146.5" height="85.88"/></clipPath><clipPath id="clip-path-4"><rect class="cls-1" x="299.07" y="125.28" width="158.5" height="85.88"/></clipPath><clipPath id="clip-path-6"><rect class="cls-1" x="514.61" y="125.52" width="158.5" height="85.88"/></clipPath><clipPath id="clip-path-8"><rect class="cls-1" x="730.16" y="125.52" width="158.5" height="85.88"/></clipPath><clipPath id="clip-path-10"><rect class="cls-1" x="246.35" y="315.82" width="158.5" height="85.88"/></clipPath><clipPath id="clip-path-12"><rect class="cls-1" x="376.09" y="507.28" width="158.5" height="85.88"/></clipPath><clipPath id="clip-path-14"><rect class="cls-1" x="591.64" y="507.28" width="158.5" height="85.88"/></clipPath><clipPath id="clip-path-16"><rect class="cls-1" x="807.18" y="507.28" width="158.5" height="85.88"/></clipPath></defs><title>sem_process</title><g class="cls-2"><rect class="cls-3" y="-7" width="1024" height="768"/><rect class="cls-4" x="91.67" y="125.28" width="142.21" height="85.88"/></g><g class="cls-5"><text class="cls-6" transform="translate(127 163)">Specify </text><text class="cls-6" transform="translate(133 189)">Model</text></g><g class="cls-2"><path class="cls-7" d="M233.88,168.22h58.73"/><polygon points="291.61 173.02 301.21 168.22 291.61 163.42 291.61 173.02"/><rect class="cls-4" x="301.21" y="125.28" width="154.21" height="85.88"/></g><g class="cls-8"><text class="cls-6" transform="translate(347 163)">Check </text><text class="cls-6" transform="translate(317 189)">identification</text></g><g class="cls-2"><rect class="cls-4" x="516.76" y="125.52" width="154.21" height="85.88"/></g><g class="cls-9"><text class="cls-6" transform="translate(555 163)">Prepare </text><text class="cls-6" transform="translate(572 189)">data</text></g><g class="cls-2"><rect class="cls-4" x="732.3" y="125.52" width="154.21" height="85.88"/></g><g class="cls-10"><text class="cls-6" transform="translate(767 163)">Estimate </text><text class="cls-6" transform="translate(779 189)">model</text></g><g class="cls-2"><rect class="cls-4" x="248.49" y="315.82" width="154.21" height="85.88"/></g><g class="cls-11"><text class="cls-6" transform="translate(271 366)">Evaluate fit</text></g><g class="cls-2"><rect class="cls-4" x="378.24" y="507.28" width="154.21" height="85.88"/></g><g class="cls-12"><text class="cls-6" transform="translate(414 545)">Interpret </text><text class="cls-6" transform="translate(408 571)">estimates</text></g><g class="cls-2"><rect class="cls-4" x="593.78" y="507.28" width="154.21" height="85.88"/></g><g class="cls-13"><text class="cls-6" transform="translate(627 545)">Consider </text><text class="cls-6" transform="translate(607 571)">other models</text></g><g class="cls-2"><rect class="cls-4" x="809.33" y="507.28" width="154.21" height="85.88"/></g><g class="cls-14"><text class="cls-6" transform="translate(853 545)">Report </text><text class="cls-6" transform="translate(854 571)">results</text></g><g class="cls-2"><polyline class="cls-7" points="455.42 168.31 507.16 168.36 508.16 168.37"/><polygon points="507.15 173.16 516.76 168.38 507.16 163.56 507.15 173.16"/><path class="cls-7" d="M671,168.46H723.7"/><polygon points="722.7 173.26 732.3 168.46 722.7 163.66 722.7 173.26"/><rect class="cls-15" x="38.16" y="84.04" width="868.64" height="140.84"/><text class="cls-16" transform="translate(365 491)">3. Interpret</text><text class="cls-16" transform="translate(45 110)">1. Estimate</text><rect class="cls-15" x="200.99" y="274.34" width="249.22" height="140.84"/><text class="cls-16" transform="translate(208 300)">2. Evaluate</text><rect class="cls-15" x="355.91" y="464.89" width="629.96" height="140.84"/><path class="cls-7" d="M585.18,550.22H532.45"/><polygon points="584.18 555.02 593.78 550.22 584.18 545.42 584.18 555.02"/><path class="cls-7" d="M748,550.22h52.73"/><polygon points="799.73 555.02 809.33 550.22 799.73 545.42 799.73 555.02"/><polyline class="cls-7" points="162.7 219.7 162.7 220.7 162.7 358.7 248.4 358.7"/><polygon points="167.5 220.7 162.7 211.1 157.9 220.7 167.5 220.7"/><text class="cls-17" transform="translate(87 364)">Bad fit: </text><text class="cls-17" transform="translate(49 385)">Respecify model</text><polyline class="cls-7" points="325.6 401.7 325.6 550.2 368.6 550.2 369.6 550.2"/><polygon points="368.6 555 378.2 550.2 368.6 545.4 368.6 555"/><text class="cls-17" transform="translate(237 553)">Good fit: </text><text class="cls-17" transform="translate(205 574)">Make inferences</text><text class="cls-18" transform="translate(171 51)">The process of fitting structural equation models</text><polyline class="cls-7" points="809.4 211.4 809.4 358.7 412.3 358.7 411.3 358.7"/><polygon points="412.3 353.9 402.7 358.7 412.3 363.5 412.3 353.9"/></g></svg>