<?xml version="1.0" encoding="utf-8"?>
<!-- Generator: Adobe Illustrator 22.0.0, SVG Export Plug-In . SVG Version: 6.00 Build 0)  -->
<svg version="1.1" id="Layer_1" xmlns="http://www.w3.org/2000/svg" xmlns:xlink="http://www.w3.org/1999/xlink" x="0px" y="0px"
	 viewBox="0 0 1024 768" style="enable-background:new 0 0 1024 768;" xml:space="preserve">
<style type="text/css">
	.st0{clip-path:url(#SVGID_2_);fill:#FFFFFF;}
	.st1{clip-path:url(#SVGID_2_);}
	.st2{font-family:'ArialMT';}
	.st3{font-size:36px;}
	.st4{clip-path:url(#SVGID_2_);fill:#00F4FF;}
	.st5{clip-path:url(#SVGID_4_);}
	.st6{font-family:'Arial-ItalicMT';}
	.st7{font-size:32px;}
	.st8{font-size:21.3333px;}
	.st9{clip-path:url(#SVGID_6_);fill:#00F4FF;}
	.st10{clip-path:url(#SVGID_8_);}
	.st11{clip-path:url(#SVGID_10_);fill:#00F4FF;}
	.st12{clip-path:url(#SVGID_12_);}
	.st13{clip-path:url(#SVGID_14_);fill:none;stroke:#000000;stroke-width:2;}
	.st14{clip-path:url(#SVGID_14_);}
	.st15{clip-path:url(#SVGID_14_);fill:#00F4FF;}
	.st16{clip-path:url(#SVGID_16_);}
	.st17{clip-path:url(#SVGID_18_);fill:#00F4FF;}
	.st18{clip-path:url(#SVGID_20_);}
	.st19{clip-path:url(#SVGID_22_);fill:#00F4FF;}
	.st20{clip-path:url(#SVGID_24_);}
	.st21{clip-path:url(#SVGID_26_);fill:#00F4FF;}
	.st22{clip-path:url(#SVGID_28_);}
	.st23{font-family:'Helvetica-Oblique';}
	.st24{clip-path:url(#SVGID_30_);fill:none;stroke:#000000;stroke-width:2;}
	.st25{clip-path:url(#SVGID_30_);}
	.st26{font-family:'Helvetica';}
	.st27{font-size:16px;}
	.st28{font-family:'HelveticaNeue';}
	.st29{font-size:24px;}
	.st30{font-family:'HelveticaNeue-Italic';}
	.st31{clip-path:url(#SVGID_30_);fill:#00F4FF;}
	.st32{clip-path:url(#SVGID_32_);}
	.st33{clip-path:url(#SVGID_34_);fill:#00F4FF;}
	.st34{clip-path:url(#SVGID_36_);}
	.st35{clip-path:url(#SVGID_38_);fill:#00F4FF;}
	.st36{clip-path:url(#SVGID_40_);}
	.st37{clip-path:url(#SVGID_42_);fill:none;stroke:#000000;stroke-width:2;}
	.st38{clip-path:url(#SVGID_42_);}
	.st39{clip-path:url(#SVGID_42_);fill:#00F4FF;}
	.st40{clip-path:url(#SVGID_44_);}
	.st41{clip-path:url(#SVGID_46_);fill:#00F4FF;}
	.st42{clip-path:url(#SVGID_48_);}
	.st43{clip-path:url(#SVGID_50_);fill:#00F4FF;}
	.st44{clip-path:url(#SVGID_52_);}
	.st45{clip-path:url(#SVGID_54_);fill:#00F4FF;}
	.st46{clip-path:url(#SVGID_56_);}
	.st47{clip-path:url(#SVGID_58_);fill:none;stroke:#000000;stroke-width:2;}
	.st48{clip-path:url(#SVGID_58_);}
	.st49{clip-path:url(#SVGID_58_);fill:#00F4FF;}
	.st50{clip-path:url(#SVGID_60_);}
	.st51{clip-path:url(#SVGID_62_);fill:#00F4FF;}
	.st52{clip-path:url(#SVGID_64_);}
	.st53{clip-path:url(#SVGID_66_);fill:#00F4FF;}
	.st54{clip-path:url(#SVGID_68_);}
	.st55{clip-path:url(#SVGID_70_);fill:none;stroke:#000000;stroke-width:2;}
	.st56{clip-path:url(#SVGID_70_);}
	.st57{clip-path:url(#SVGID_70_);fill:#00F4FF;}
	.st58{clip-path:url(#SVGID_72_);}
	.st59{clip-path:url(#SVGID_74_);fill:#00F4FF;}
	.st60{clip-path:url(#SVGID_76_);}
	.st61{clip-path:url(#SVGID_78_);fill:#00F4FF;}
	.st62{clip-path:url(#SVGID_80_);}
	.st63{clip-path:url(#SVGID_82_);fill:#00F4FF;}
	.st64{clip-path:url(#SVGID_84_);}
	.st65{clip-path:url(#SVGID_86_);fill:none;stroke:#000000;stroke-width:2;}
	.st66{clip-path:url(#SVGID_86_);}
	.st67{font-size:16.6667px;}
	.st68{font-size:25px;}
</style>
<g>
	<defs>
		<rect id="SVGID_1_" width="1024" height="768"/>
	</defs>
	<clipPath id="SVGID_2_">
		<use xlink:href="#SVGID_1_"  style="overflow:visible;"/>
	</clipPath>
	<rect class="st0" width="1024" height="768"/>
	<g class="st1">
		<text transform="matrix(1 0 0 1 23 50)" class="st2 st3">Constraints in Factor Models</text>
	</g>
	<rect x="296.5" y="104.8" class="st4" width="100" height="100"/>
</g>
<g>
	<defs>
		<rect id="SVGID_3_" x="291.6" y="104.8" width="109.9" height="100"/>
	</defs>
	<clipPath id="SVGID_4_">
		<use xlink:href="#SVGID_3_"  style="overflow:visible;"/>
	</clipPath>
	<g class="st5">
		<text transform="matrix(1 0 0 1 329 166)" class="st6 st7">N</text>
	</g>
	<g class="st5">
		<text transform="matrix(1 0 0 1 352.1094 168.2607)" class="st6 st8">1</text>
	</g>
</g>
<g>
	<defs>
		<rect id="SVGID_5_" width="1024" height="768"/>
	</defs>
	<clipPath id="SVGID_6_">
		<use xlink:href="#SVGID_5_"  style="overflow:visible;"/>
	</clipPath>
	<rect x="296.5" y="223.8" class="st9" width="100" height="100"/>
</g>
<g>
	<defs>
		<rect id="SVGID_7_" x="291.6" y="223.8" width="109.9" height="100"/>
	</defs>
	<clipPath id="SVGID_8_">
		<use xlink:href="#SVGID_7_"  style="overflow:visible;"/>
	</clipPath>
	<g class="st10">
		<text transform="matrix(1 0 0 1 329 285)" class="st6 st7">N</text>
	</g>
	<g class="st10">
		<text transform="matrix(1 0 0 1 352.1094 287.2607)" class="st6 st8">2</text>
	</g>
</g>
<g>
	<defs>
		<rect id="SVGID_9_" width="1024" height="768"/>
	</defs>
	<clipPath id="SVGID_10_">
		<use xlink:href="#SVGID_9_"  style="overflow:visible;"/>
	</clipPath>
	<rect x="296.5" y="342.8" class="st11" width="100" height="100"/>
</g>
<g>
	<defs>
		<rect id="SVGID_11_" x="291.6" y="342.8" width="109.9" height="100"/>
	</defs>
	<clipPath id="SVGID_12_">
		<use xlink:href="#SVGID_11_"  style="overflow:visible;"/>
	</clipPath>
	<g class="st12">
		<text transform="matrix(1 0 0 1 329 404)" class="st6 st7">N</text>
	</g>
	<g class="st12">
		<text transform="matrix(1 0 0 1 352.1094 406.2607)" class="st6 st8">3</text>
	</g>
</g>
<g>
	<defs>
		<rect id="SVGID_13_" width="1024" height="768"/>
	</defs>
	<clipPath id="SVGID_14_">
		<use xlink:href="#SVGID_13_"  style="overflow:visible;"/>
	</clipPath>
	<polyline class="st13" points="424.9,154.7 406.1,154.8 405.1,154.8 	"/>
	<polygon class="st14" points="406.1,150 396.5,154.8 406.1,159.6 	"/>
	<polyline class="st13" points="405.1,274.2 406.1,274.2 425.8,274.3 	"/>
	<polygon class="st14" points="406.1,269.4 396.5,274.1 406.1,279 	"/>
	<polyline class="st13" points="405.1,393.4 406.1,393.4 424.2,393.6 	"/>
	<polygon class="st14" points="406.2,388.6 396.5,393.3 406.1,398.2 	"/>
	<rect x="296.5" y="104.8" class="st15" width="100" height="100"/>
</g>
<g>
	<defs>
		<rect id="SVGID_15_" x="291.6" y="104.8" width="109.9" height="100"/>
	</defs>
	<clipPath id="SVGID_16_">
		<use xlink:href="#SVGID_15_"  style="overflow:visible;"/>
	</clipPath>
	<g class="st16">
		<text transform="matrix(1 0 0 1 329 166)" class="st6 st7">N</text>
	</g>
	<g class="st16">
		<text transform="matrix(1 0 0 1 352.1094 168.2607)" class="st6 st8">1</text>
	</g>
</g>
<g>
	<defs>
		<rect id="SVGID_17_" width="1024" height="768"/>
	</defs>
	<clipPath id="SVGID_18_">
		<use xlink:href="#SVGID_17_"  style="overflow:visible;"/>
	</clipPath>
	<rect x="296.5" y="223.8" class="st17" width="100" height="100"/>
</g>
<g>
	<defs>
		<rect id="SVGID_19_" x="291.6" y="223.8" width="109.9" height="100"/>
	</defs>
	<clipPath id="SVGID_20_">
		<use xlink:href="#SVGID_19_"  style="overflow:visible;"/>
	</clipPath>
	<g class="st18">
		<text transform="matrix(1 0 0 1 329 285)" class="st6 st7">N</text>
	</g>
	<g class="st18">
		<text transform="matrix(1 0 0 1 352.1094 287.2607)" class="st6 st8">2</text>
	</g>
</g>
<g>
	<defs>
		<rect id="SVGID_21_" width="1024" height="768"/>
	</defs>
	<clipPath id="SVGID_22_">
		<use xlink:href="#SVGID_21_"  style="overflow:visible;"/>
	</clipPath>
	<rect x="296.5" y="342.8" class="st19" width="100" height="100"/>
</g>
<g>
	<defs>
		<rect id="SVGID_23_" x="291.6" y="342.8" width="109.9" height="100"/>
	</defs>
	<clipPath id="SVGID_24_">
		<use xlink:href="#SVGID_23_"  style="overflow:visible;"/>
	</clipPath>
	<g class="st20">
		<text transform="matrix(1 0 0 1 329 404)" class="st6 st7">N</text>
	</g>
	<g class="st20">
		<text transform="matrix(1 0 0 1 352.1094 406.2607)" class="st6 st8">3</text>
	</g>
</g>
<g>
	<defs>
		<rect id="SVGID_25_" width="1024" height="768"/>
	</defs>
	<clipPath id="SVGID_26_">
		<use xlink:href="#SVGID_25_"  style="overflow:visible;"/>
	</clipPath>
	<circle class="st21" cx="93.6" cy="273.8" r="62.5"/>
</g>
<g>
	<defs>
		<rect id="SVGID_27_" x="30.4" y="211.4" width="126.4" height="124.9"/>
	</defs>
	<clipPath id="SVGID_28_">
		<use xlink:href="#SVGID_27_"  style="overflow:visible;"/>
	</clipPath>
	<g class="st22">
		<text transform="matrix(1 0 0 1 55 287)" class="st23 st3">Neur</text>
	</g>
</g>
<g>
	<defs>
		<rect id="SVGID_29_" width="1024" height="768"/>
	</defs>
	<clipPath id="SVGID_30_">
		<use xlink:href="#SVGID_29_"  style="overflow:visible;"/>
	</clipPath>
	<polyline class="st24" points="288.7,182 287.8,182.4 150.1,247.2 	"/>
	<polygon class="st25" points="289.9,186.8 296.5,178.3 285.8,178.1 	"/>
	<polyline class="st24" points="287.9,273.8 286.9,273.8 156,273.8 	"/>
	<polygon class="st25" points="286.9,278.6 296.5,273.8 286.9,269 	"/>
	<polyline class="st24" points="288.7,365.6 287.8,365.2 150.1,300.4 	"/>
	<polygon class="st25" points="285.8,369.5 296.5,369.3 289.9,360.9 	"/>
	<path class="st25" d="M217.3,244.8c0.3-0.1,0.7-0.1,1.2-0.1c0.8,0,1.4,0.2,1.8,0.6c0.4,0.4,0.8,1.1,1.1,2.1l4.8,12
		c0.1,0.2,0.3,0.5,0.4,0.7c0.2,0.2,0.4,0.3,0.6,0.3h0.6v1.7h-1.2c-1.1,0-1.9-0.6-2.4-1.8l-2.9-7.7l-3.6,9.5h-2.3l4.9-12.1l-0.9-2.3
		c-0.3-0.8-0.8-1.2-1.4-1.1h-0.8V244.8z"/>
	<g class="st25">
		<text transform="matrix(1 0 0 1 228.3477 263.8398)" class="st26 st27">2</text>
	</g>
	<polyline class="st24" points="131.2,181.8 107.5,205.5 106.8,206.2 	"/>
	<polygon class="st25" points="104.1,202.1 100.7,212.3 110.9,208.9 	"/>
	<g class="st25">
		<text transform="matrix(1 0 0 1 54 111)" class="st28 st29">Mexico</text>
	</g>
	<g class="st25">
		<text transform="matrix(1 0 0 1 44 140)" class="st30 st29">N</text>
	</g>
	<g class="st25">
		<text transform="matrix(1 0 0 1 61.3281 140)" class="st28 st29"> = 1000</text>
	</g>
	<rect x="862.4" y="27.7" class="st31" width="100" height="100"/>
</g>
<g>
	<defs>
		<rect id="SVGID_31_" x="857.5" y="27.7" width="109.9" height="100"/>
	</defs>
	<clipPath id="SVGID_32_">
		<use xlink:href="#SVGID_31_"  style="overflow:visible;"/>
	</clipPath>
	<g class="st32">
		<text transform="matrix(1 0 0 1 895 89)" class="st6 st7">N</text>
	</g>
	<g class="st32">
		<text transform="matrix(1 0 0 1 918.1094 91.2607)" class="st6 st8">1</text>
	</g>
</g>
<g>
	<defs>
		<rect id="SVGID_33_" width="1024" height="768"/>
	</defs>
	<clipPath id="SVGID_34_">
		<use xlink:href="#SVGID_33_"  style="overflow:visible;"/>
	</clipPath>
	<rect x="862.4" y="146.7" class="st33" width="100" height="100"/>
</g>
<g>
	<defs>
		<rect id="SVGID_35_" x="857.5" y="146.7" width="109.9" height="100"/>
	</defs>
	<clipPath id="SVGID_36_">
		<use xlink:href="#SVGID_35_"  style="overflow:visible;"/>
	</clipPath>
	<g class="st34">
		<text transform="matrix(1 0 0 1 895 208)" class="st6 st7">N</text>
	</g>
	<g class="st34">
		<text transform="matrix(1 0 0 1 918.1094 210.2607)" class="st6 st8">2</text>
	</g>
</g>
<g>
	<defs>
		<rect id="SVGID_37_" width="1024" height="768"/>
	</defs>
	<clipPath id="SVGID_38_">
		<use xlink:href="#SVGID_37_"  style="overflow:visible;"/>
	</clipPath>
	<rect x="862.4" y="265.7" class="st35" width="100" height="100"/>
</g>
<g>
	<defs>
		<rect id="SVGID_39_" x="857.5" y="265.7" width="109.9" height="100"/>
	</defs>
	<clipPath id="SVGID_40_">
		<use xlink:href="#SVGID_39_"  style="overflow:visible;"/>
	</clipPath>
	<g class="st36">
		<text transform="matrix(1 0 0 1 895 327)" class="st6 st7">N</text>
	</g>
	<g class="st36">
		<text transform="matrix(1 0 0 1 918.1094 329.2607)" class="st6 st8">3</text>
	</g>
</g>
<g>
	<defs>
		<rect id="SVGID_41_" width="1024" height="768"/>
	</defs>
	<clipPath id="SVGID_42_">
		<use xlink:href="#SVGID_41_"  style="overflow:visible;"/>
	</clipPath>
	<polyline class="st37" points="990.9,77.6 972,77.6 971,77.6 	"/>
	<polygon class="st38" points="972,72.8 962.4,77.6 972,82.4 	"/>
	<polyline class="st37" points="971,197 972,197.1 991.7,197.2 	"/>
	<polygon class="st38" points="972.1,192.3 962.4,197 972,201.9 	"/>
	<polyline class="st37" points="971,316.2 972,316.3 990.2,316.4 	"/>
	<polygon class="st38" points="972.1,311.5 962.4,316.2 972,321.1 	"/>
	<rect x="862.4" y="27.7" class="st39" width="100" height="100"/>
</g>
<g>
	<defs>
		<rect id="SVGID_43_" x="857.5" y="27.7" width="109.9" height="100"/>
	</defs>
	<clipPath id="SVGID_44_">
		<use xlink:href="#SVGID_43_"  style="overflow:visible;"/>
	</clipPath>
	<g class="st40">
		<text transform="matrix(1 0 0 1 895 89)" class="st6 st7">N</text>
	</g>
	<g class="st40">
		<text transform="matrix(1 0 0 1 918.1094 91.2607)" class="st6 st8">1</text>
	</g>
</g>
<g>
	<defs>
		<rect id="SVGID_45_" width="1024" height="768"/>
	</defs>
	<clipPath id="SVGID_46_">
		<use xlink:href="#SVGID_45_"  style="overflow:visible;"/>
	</clipPath>
	<rect x="862.4" y="146.7" class="st41" width="100" height="100"/>
</g>
<g>
	<defs>
		<rect id="SVGID_47_" x="857.5" y="146.7" width="109.9" height="100"/>
	</defs>
	<clipPath id="SVGID_48_">
		<use xlink:href="#SVGID_47_"  style="overflow:visible;"/>
	</clipPath>
	<g class="st42">
		<text transform="matrix(1 0 0 1 895 208)" class="st6 st7">N</text>
	</g>
	<g class="st42">
		<text transform="matrix(1 0 0 1 918.1094 210.2607)" class="st6 st8">2</text>
	</g>
</g>
<g>
	<defs>
		<rect id="SVGID_49_" width="1024" height="768"/>
	</defs>
	<clipPath id="SVGID_50_">
		<use xlink:href="#SVGID_49_"  style="overflow:visible;"/>
	</clipPath>
	<rect x="862.4" y="265.7" class="st43" width="100" height="100"/>
</g>
<g>
	<defs>
		<rect id="SVGID_51_" x="857.5" y="265.7" width="109.9" height="100"/>
	</defs>
	<clipPath id="SVGID_52_">
		<use xlink:href="#SVGID_51_"  style="overflow:visible;"/>
	</clipPath>
	<g class="st44">
		<text transform="matrix(1 0 0 1 895 327)" class="st6 st7">N</text>
	</g>
	<g class="st44">
		<text transform="matrix(1 0 0 1 918.1094 329.2607)" class="st6 st8">3</text>
	</g>
</g>
<g>
	<defs>
		<rect id="SVGID_53_" width="1024" height="768"/>
	</defs>
	<clipPath id="SVGID_54_">
		<use xlink:href="#SVGID_53_"  style="overflow:visible;"/>
	</clipPath>
	<circle class="st45" cx="659.5" cy="196.7" r="62.5"/>
</g>
<g>
	<defs>
		<rect id="SVGID_55_" x="596.3" y="134.2" width="126.4" height="124.9"/>
	</defs>
	<clipPath id="SVGID_56_">
		<use xlink:href="#SVGID_55_"  style="overflow:visible;"/>
	</clipPath>
	<g class="st46">
		<text transform="matrix(1 0 0 1 620 209)" class="st23 st3">Neur</text>
	</g>
</g>
<g>
	<defs>
		<rect id="SVGID_57_" width="1024" height="768"/>
	</defs>
	<clipPath id="SVGID_58_">
		<use xlink:href="#SVGID_57_"  style="overflow:visible;"/>
	</clipPath>
	<polyline class="st47" points="854.7,104.8 853.8,105.3 716,170.1 	"/>
	<polygon class="st48" points="855.8,109.6 862.4,101.2 851.7,100.9 	"/>
	<path class="st47" d="M853.8,196.7h-1c-43.6,0-87.2,0-130.9,0"/>
	<polygon class="st48" points="852.8,201.5 862.4,196.7 852.8,191.9 	"/>
	<polyline class="st47" points="854.7,288.5 853.8,288.1 716,223.3 	"/>
	<polygon class="st48" points="851.7,292.4 862.4,292.1 855.8,283.7 	"/>
	<path class="st48" d="M783.3,167.8c0.3-0.1,0.7-0.1,1.2-0.1c0.8,0,1.4,0.2,1.8,0.6c0.4,0.4,0.8,1.1,1.1,2.1l4.8,12
		c0.1,0.2,0.3,0.5,0.4,0.7c0.2,0.2,0.4,0.3,0.6,0.3h0.6v1.7h-1.2c-1.1,0-1.9-0.6-2.4-1.8l-2.9-7.7l-3.6,9.5h-2.3l4.9-12.1l-0.9-2.3
		c-0.3-0.8-0.8-1.2-1.4-1.1h-0.8V167.8z"/>
	<g class="st48">
		<text transform="matrix(1 0 0 1 794.3477 186.8398)" class="st26 st27">2</text>
	</g>
	<polyline class="st47" points="697.2,104.6 673.4,128.3 672.7,129 	"/>
	<polygon class="st48" points="670,124.9 666.6,135.1 676.8,131.7 	"/>
	<g class="st48">
		<text transform="matrix(1 0 0 1 597 57)" class="st28 st29">Canada</text>
	</g>
	<g class="st48">
		<text transform="matrix(1 0 0 1 590 86)" class="st30 st29">N</text>
	</g>
	<g class="st48">
		<text transform="matrix(1 0 0 1 607.3281 86)" class="st28 st29"> = 1000</text>
	</g>
	<rect x="738.4" y="401.2" class="st49" width="100" height="100"/>
</g>
<g>
	<defs>
		<rect id="SVGID_59_" x="733.5" y="401.2" width="109.9" height="100"/>
	</defs>
	<clipPath id="SVGID_60_">
		<use xlink:href="#SVGID_59_"  style="overflow:visible;"/>
	</clipPath>
	<g class="st50">
		<text transform="matrix(1 0 0 1 771 462)" class="st6 st7">N</text>
	</g>
	<g class="st50">
		<text transform="matrix(1 0 0 1 794.1094 464.2607)" class="st6 st8">1</text>
	</g>
</g>
<g>
	<defs>
		<rect id="SVGID_61_" width="1024" height="768"/>
	</defs>
	<clipPath id="SVGID_62_">
		<use xlink:href="#SVGID_61_"  style="overflow:visible;"/>
	</clipPath>
	<rect x="738.4" y="520.2" class="st51" width="100" height="100"/>
</g>
<g>
	<defs>
		<rect id="SVGID_63_" x="733.5" y="520.2" width="109.9" height="100"/>
	</defs>
	<clipPath id="SVGID_64_">
		<use xlink:href="#SVGID_63_"  style="overflow:visible;"/>
	</clipPath>
	<g class="st52">
		<text transform="matrix(1 0 0 1 771 581)" class="st6 st7">N</text>
	</g>
	<g class="st52">
		<text transform="matrix(1 0 0 1 794.1094 583.2607)" class="st6 st8">2</text>
	</g>
</g>
<g>
	<defs>
		<rect id="SVGID_65_" width="1024" height="768"/>
	</defs>
	<clipPath id="SVGID_66_">
		<use xlink:href="#SVGID_65_"  style="overflow:visible;"/>
	</clipPath>
	<rect x="738.4" y="639.2" class="st53" width="100" height="100"/>
</g>
<g>
	<defs>
		<rect id="SVGID_67_" x="733.5" y="639.2" width="109.9" height="100"/>
	</defs>
	<clipPath id="SVGID_68_">
		<use xlink:href="#SVGID_67_"  style="overflow:visible;"/>
	</clipPath>
	<g class="st54">
		<text transform="matrix(1 0 0 1 771 700)" class="st6 st7">N</text>
	</g>
	<g class="st54">
		<text transform="matrix(1 0 0 1 794.1094 702.2607)" class="st6 st8">3</text>
	</g>
</g>
<g>
	<defs>
		<rect id="SVGID_69_" width="1024" height="768"/>
	</defs>
	<clipPath id="SVGID_70_">
		<use xlink:href="#SVGID_69_"  style="overflow:visible;"/>
	</clipPath>
	<polyline class="st55" points="866.9,451.1 848,451.1 847,451.1 	"/>
	<polygon class="st56" points="848,446.3 838.4,451.1 848,455.9 	"/>
	<polyline class="st55" points="847,570.6 848,570.6 867.7,570.7 	"/>
	<polygon class="st56" points="848,565.8 838.4,570.5 848,575.4 	"/>
	<polyline class="st55" points="847,689.8 848,689.8 866.1,689.9 	"/>
	<polygon class="st56" points="848.1,685 838.4,689.7 848,694.6 	"/>
	<rect x="738.4" y="401.2" class="st57" width="100" height="100"/>
</g>
<g>
	<defs>
		<rect id="SVGID_71_" x="733.5" y="401.2" width="109.9" height="100"/>
	</defs>
	<clipPath id="SVGID_72_">
		<use xlink:href="#SVGID_71_"  style="overflow:visible;"/>
	</clipPath>
	<g class="st58">
		<text transform="matrix(1 0 0 1 771 462)" class="st6 st7">N</text>
	</g>
	<g class="st58">
		<text transform="matrix(1 0 0 1 794.1094 464.2607)" class="st6 st8">1</text>
	</g>
</g>
<g>
	<defs>
		<rect id="SVGID_73_" width="1024" height="768"/>
	</defs>
	<clipPath id="SVGID_74_">
		<use xlink:href="#SVGID_73_"  style="overflow:visible;"/>
	</clipPath>
	<rect x="738.4" y="520.2" class="st59" width="100" height="100"/>
</g>
<g>
	<defs>
		<rect id="SVGID_75_" x="733.5" y="520.2" width="109.9" height="100"/>
	</defs>
	<clipPath id="SVGID_76_">
		<use xlink:href="#SVGID_75_"  style="overflow:visible;"/>
	</clipPath>
	<g class="st60">
		<text transform="matrix(1 0 0 1 771 581)" class="st6 st7">N</text>
	</g>
	<g class="st60">
		<text transform="matrix(1 0 0 1 794.1094 583.2607)" class="st6 st8">2</text>
	</g>
</g>
<g>
	<defs>
		<rect id="SVGID_77_" width="1024" height="768"/>
	</defs>
	<clipPath id="SVGID_78_">
		<use xlink:href="#SVGID_77_"  style="overflow:visible;"/>
	</clipPath>
	<rect x="738.4" y="639.2" class="st61" width="100" height="100"/>
</g>
<g>
	<defs>
		<rect id="SVGID_79_" x="733.5" y="639.2" width="109.9" height="100"/>
	</defs>
	<clipPath id="SVGID_80_">
		<use xlink:href="#SVGID_79_"  style="overflow:visible;"/>
	</clipPath>
	<g class="st62">
		<text transform="matrix(1 0 0 1 771 700)" class="st6 st7">N</text>
	</g>
	<g class="st62">
		<text transform="matrix(1 0 0 1 794.1094 702.2607)" class="st6 st8">3</text>
	</g>
</g>
<g>
	<defs>
		<rect id="SVGID_81_" width="1024" height="768"/>
	</defs>
	<clipPath id="SVGID_82_">
		<use xlink:href="#SVGID_81_"  style="overflow:visible;"/>
	</clipPath>
	<circle class="st63" cx="535.5" cy="570.2" r="62.5"/>
</g>
<g>
	<defs>
		<rect id="SVGID_83_" x="472.3" y="507.7" width="126.4" height="124.9"/>
	</defs>
	<clipPath id="SVGID_84_">
		<use xlink:href="#SVGID_83_"  style="overflow:visible;"/>
	</clipPath>
	<g class="st64">
		<text transform="matrix(1 0 0 1 496 583)" class="st23 st3">Neur</text>
	</g>
</g>
<g>
	<defs>
		<rect id="SVGID_85_" width="1024" height="768"/>
	</defs>
	<clipPath id="SVGID_86_">
		<use xlink:href="#SVGID_85_"  style="overflow:visible;"/>
	</clipPath>
	<polyline class="st65" points="730.6,478.4 729.7,478.8 592,543.6 	"/>
	<polygon class="st66" points="731.8,483.1 738.4,474.7 727.7,474.4 	"/>
	<path class="st65" d="M729.8,570.2h-1c-43.6,0-87.2,0-130.9,0"/>
	<polygon class="st66" points="728.8,575 738.4,570.2 728.8,565.4 	"/>
	<polyline class="st65" points="730.6,662 729.7,661.6 592,596.8 	"/>
	<polygon class="st66" points="727.7,665.9 738.4,665.7 731.8,657.2 	"/>
	<path class="st66" d="M659.3,540.8c0.3-0.1,0.7-0.1,1.2-0.1c0.8,0,1.4,0.2,1.8,0.6c0.4,0.4,0.8,1.1,1.1,2.1l4.8,12
		c0.1,0.2,0.3,0.5,0.4,0.7c0.2,0.2,0.4,0.3,0.6,0.3h0.6v1.7h-1.2c-1.1,0-1.9-0.6-2.4-1.8l-2.9-7.7l-3.6,9.5h-2.3l4.9-12.1l-0.9-2.3
		c-0.3-0.8-0.8-1.2-1.4-1.1h-0.8V540.8z"/>
	<g class="st66">
		<text transform="matrix(1 0 0 1 670.3477 559.8398)" class="st26 st27">2</text>
	</g>
	<polyline class="st65" points="573.1,478.1 549.4,501.9 548.7,502.6 	"/>
	<polygon class="st66" points="546,498.5 542.6,508.6 552.8,505.3 	"/>
	<g class="st66">
		<text transform="matrix(1 0 0 1 534 430)" class="st28 st29">US</text>
	</g>
	<g class="st66">
		<text transform="matrix(1 0 0 1 501 459)" class="st30 st29">N</text>
	</g>
	<g class="st66">
		<text transform="matrix(1 0 0 1 518.3281 459)" class="st28 st29"> = 1000</text>
	</g>
	<g class="st66">
		<text transform="matrix(1 0 0 1 84 520)" class="st30 st29">N</text>
	</g>
	<g class="st66">
		<text transform="matrix(1 0 0 1 101.3281 521.7754)" class="st30 st67">2</text>
	</g>
	<g class="st66">
		<text transform="matrix(1 0 0 1 110.5947 520)" class="st28 st68">: “I worry a lot” (1-5)</text>
	</g>
	<g class="st66">
		<text transform="matrix(1 0 0 1 64 580)" class="st28 st68">Is the loading of </text>
	</g>
	<g class="st66">
		<text transform="matrix(1 0 0 1 249.6748 580)" class="st30 st29">N</text>
	</g>
	<g class="st66">
		<text transform="matrix(1 0 0 1 267.0029 581.7754)" class="st30 st67">2</text>
	</g>
	<g class="st66">
		<text transform="matrix(1 0 0 1 276.2695 580)" class="st28 st68"> on the </text>
	</g>
	<g class="st66">
		<text transform="matrix(1 0 0 1 67 610)"><tspan x="0" y="0" class="st28 st68">Neu</tspan><tspan x="45.4" y="0" class="st28 st68">r</tspan><tspan x="53.2" y="0" class="st28 st68">oticism factor similar </tspan></text>
	</g>
	<g class="st66">
		<text transform="matrix(1 0 0 1 110 640)"><tspan x="0" y="0" class="st28 st68">ac</tspan><tspan x="26.8" y="0" class="st28 st68">r</tspan><tspan x="34.7" y="0" class="st28 st68">oss countries?</tspan></text>
	</g>
</g>
</svg>
