<svg id="Layer_1" data-name="Layer 1" xmlns="http://www.w3.org/2000/svg" xmlns:xlink="http://www.w3.org/1999/xlink" viewBox="0 0 1024 591"><defs><style>.cls-1,.cls-18,.cls-21,.cls-5,.cls-9{fill:none;}.cls-2{clip-path:url(#clip-path);}.cls-3{fill:#fff;}.cls-4{clip-path:url(#clip-path-2);}.cls-5,.cls-9{stroke:#231f20;}.cls-18,.cls-5,.cls-9{stroke-miterlimit:10;}.cls-5{stroke-width:1.98px;}.cls-6{fill:#231f20;}.cls-7{clip-path:url(#clip-path-3);}.cls-8{clip-path:url(#clip-path-4);}.cls-9{stroke-width:2px;}.cls-10{clip-path:url(#clip-path-5);}.cls-11{clip-path:url(#clip-path-6);}.cls-12{fill:#00f3ff;}.cls-13{clip-path:url(#clip-path-8);}.cls-14,.cls-19{font-size:32px;}.cls-14,.cls-15,.cls-24,.cls-25,.cls-30{font-family:Arial-ItalicMT, Arial;font-style:italic;}.cls-15{font-size:21.33px;}.cls-16{clip-path:url(#clip-path-10);}.cls-17,.cls-30{font-size:24px;}.cls-17,.cls-19,.cls-22,.cls-31{font-family:ArialMT, Arial;}.cls-18,.cls-21{stroke:#000;}.cls-18{stroke-width:1.76px;}.cls-20{clip-path:url(#clip-path-12);}.cls-21{stroke-width:2px;}.cls-22{font-size:16px;}.cls-23{clip-path:url(#clip-path-14);}.cls-24{font-size:22px;}.cls-25{font-size:14.67px;}.cls-26{clip-path:url(#clip-path-16);}.cls-27{clip-path:url(#clip-path-18);}.cls-28{clip-path:url(#clip-path-20);}.cls-29{clip-path:url(#clip-path-22);}.cls-31{font-size:21px;}.cls-32{letter-spacing:-0.07em;}</style><clipPath id="clip-path"><rect class="cls-1" width="1024" height="768"/></clipPath><clipPath id="clip-path-2"><rect class="cls-1" x="173" y="367" width="47" height="39"/></clipPath><clipPath id="clip-path-3"><rect class="cls-1" x="173" y="203" width="47" height="39"/></clipPath><clipPath id="clip-path-4"><rect class="cls-1" x="775" y="59" width="48" height="39"/></clipPath><clipPath id="clip-path-5"><rect class="cls-1" x="775" y="299" width="48" height="39"/></clipPath><clipPath id="clip-path-6"><rect class="cls-1" x="509" y="134" width="48" height="39"/></clipPath><clipPath id="clip-path-8"><rect class="cls-1" x="141.55" y="242.43" width="109.88" height="100"/></clipPath><clipPath id="clip-path-10"><rect class="cls-1" x="141.55" y="407.11" width="109.88" height="100"/></clipPath><clipPath id="clip-path-12"><rect class="cls-1" x="387.56" y="242.43" width="109.88" height="100"/></clipPath><clipPath id="clip-path-14"><rect class="cls-1" x="505.02" y="170.12" width="56.11" height="56.11"/></clipPath><clipPath id="clip-path-16"><rect class="cls-1" x="653.61" y="168.44" width="109.88" height="100"/></clipPath><clipPath id="clip-path-18"><rect class="cls-1" x="771.08" y="96.12" width="56.11" height="56.11"/></clipPath><clipPath id="clip-path-20"><rect class="cls-1" x="653.61" y="407.11" width="109.88" height="100"/></clipPath><clipPath id="clip-path-22"><rect class="cls-1" x="771.08" y="334.79" width="56.11" height="56.11"/></clipPath></defs><title>sem_process</title><g class="cls-2"><rect class="cls-3" width="1024" height="768"/></g><g class="cls-4"><path class="cls-3" d="M181.94,406A21.72,21.72,0,1,1,218,389.91,22,22,0,0,1,211.11,406"/><path class="cls-5" d="M178.11,401.41a21.49,21.49,0,0,1-3.28-11.5,21.61,21.61,0,1,1,43.22,0,22,22,0,0,1-3.18,11.44"/><path class="cls-6" d="M181.94,406a30.47,30.47,0,0,1-1.73-9.58l-2.53,4.34L173,402.44a29.44,29.44,0,0,1,8.94,3.56"/><path class="cls-6" d="M211.11,406a30.52,30.52,0,0,0,1.6-9.61l2.59,4.3,4.7,1.62a29.4,29.4,0,0,0-8.89,3.69"/></g><g class="cls-7"><path class="cls-3" d="M181.94,242A21.72,21.72,0,1,1,218,225.91,22,22,0,0,1,211.11,242"/><path class="cls-5" d="M178.11,237.41a21.49,21.49,0,0,1-3.28-11.5,21.61,21.61,0,1,1,43.22,0,22,22,0,0,1-3.18,11.44"/><path class="cls-6" d="M181.94,242a30.47,30.47,0,0,1-1.73-9.58l-2.53,4.34L173,238.44a29.44,29.44,0,0,1,8.94,3.56"/><path class="cls-6" d="M211.11,242a30.52,30.52,0,0,0,1.6-9.61l2.59,4.3,4.7,1.62a29.4,29.4,0,0,0-8.89,3.69"/></g><g class="cls-8"><path class="cls-3" d="M784.13,98a21.44,21.44,0,0,1-7.27-16.09A22.07,22.07,0,1,1,813.92,98"/><path class="cls-9" d="M780.22,93.41a21.16,21.16,0,0,1-3.35-11.5,22.07,22.07,0,0,1,44.14,0,21.7,21.7,0,0,1-3.24,11.44"/><path class="cls-6" d="M784.13,98a29.9,29.9,0,0,1-1.77-9.58l-2.58,4.34L775,94.44A30.44,30.44,0,0,1,784.13,98"/><path class="cls-6" d="M813.92,98a29.94,29.94,0,0,0,1.63-9.61l2.65,4.3,4.8,1.62A30.38,30.38,0,0,0,813.92,98"/></g><g class="cls-10"><path class="cls-3" d="M784.13,338a21.44,21.44,0,0,1-7.27-16.09A22.07,22.07,0,1,1,813.92,338"/><path class="cls-9" d="M780.22,333.41a21.16,21.16,0,0,1-3.35-11.5,22.07,22.07,0,0,1,44.14,0,21.7,21.7,0,0,1-3.24,11.44"/><path class="cls-6" d="M784.13,338a29.9,29.9,0,0,1-1.77-9.58l-2.58,4.34L775,334.44a30.44,30.44,0,0,1,9.13,3.56"/><path class="cls-6" d="M813.92,338a29.94,29.94,0,0,0,1.63-9.61l2.65,4.3,4.8,1.62a30.38,30.38,0,0,0-9.08,3.69"/></g><g class="cls-11"><path class="cls-3" d="M518.13,173a21.44,21.44,0,0,1-7.27-16.09A22.07,22.07,0,1,1,547.92,173"/><path class="cls-9" d="M514.22,168.41a21.16,21.16,0,0,1-3.35-11.5,22.07,22.07,0,0,1,44.14,0,21.7,21.7,0,0,1-3.24,11.44"/><path class="cls-6" d="M518.13,173a29.9,29.9,0,0,1-1.77-9.58l-2.58,4.34L509,169.44a30.44,30.44,0,0,1,9.13,3.56"/><path class="cls-6" d="M547.92,173a29.94,29.94,0,0,0,1.63-9.61l2.65,4.3,4.8,1.62a30.38,30.38,0,0,0-9.08,3.69"/></g><g class="cls-2"><rect class="cls-12" x="146.49" y="242.43" width="100" height="100"/></g><g class="cls-13"><text class="cls-14" transform="translate(180 304)">X</text><text class="cls-15" transform="translate(201.34 306.26)">1</text></g><g class="cls-2"><rect class="cls-12" x="146.49" y="407.11" width="100" height="100"/></g><g class="cls-16"><text class="cls-14" transform="translate(180 468)">X</text><text class="cls-15" transform="translate(201.34 470.26)">2</text></g><g class="cls-2"><text class="cls-17" transform="translate(117 138)">Exogenous (X)</text><line class="cls-18" x1="117.11" y1="141.01" x2="275.87" y2="141.01"/><text class="cls-19" transform="translate(28 45)">SEM notation redux (RAM notation)</text><rect class="cls-12" x="392.5" y="242.43" width="100" height="100"/></g><g class="cls-20"><text class="cls-14" transform="translate(426 304)">Y</text><text class="cls-15" transform="translate(447.34 306.26)">1</text></g><g class="cls-2"><polyline class="cls-21" points="533.08 198.18 497.2 235.51 496.5 236.23"/><polygon points="493.74 232.19 490.55 242.44 500.66 238.84 493.74 232.19"/><text class="cls-22" transform="translate(493 222)">1</text><circle class="cls-12" cx="533.08" cy="198.18" r="28.05" transform="translate(16 434.99) rotate(-45)"/></g><g class="cls-23"><text class="cls-24" transform="translate(521 206)">D</text><text class="cls-25" transform="translate(536.89 207.55)">1</text></g><g class="cls-2"><rect class="cls-12" x="658.55" y="168.44" width="100" height="100"/></g><g class="cls-26"><text class="cls-14" transform="translate(692 230)">Y</text><text class="cls-15" transform="translate(713.34 232.26)">2</text></g><g class="cls-2"><polyline class="cls-21" points="799.13 124.18 763.25 161.52 762.56 162.24"/><polygon points="759.79 158.19 756.6 168.44 766.71 164.84 759.79 158.19"/><text class="cls-22" transform="translate(759 148)">1</text><circle class="cls-12" cx="799.13" cy="124.18" r="28.05" transform="translate(146.25 601.44) rotate(-45)"/></g><g class="cls-27"><text class="cls-24" transform="translate(787 132)">D</text><text class="cls-25" transform="translate(802.89 133.55)">2</text></g><g class="cls-2"><rect class="cls-12" x="658.55" y="407.11" width="100" height="100"/></g><g class="cls-28"><text class="cls-14" transform="translate(692 468)">Y</text><text class="cls-15" transform="translate(713.34 470.26)">3</text></g><g class="cls-2"><polyline class="cls-21" points="799.13 362.85 763.25 400.18 762.56 400.9"/><polygon points="759.79 396.86 756.6 407.11 766.71 403.51 759.79 396.86"/><text class="cls-22" transform="translate(759 386)">1</text><circle class="cls-12" cx="799.13" cy="362.85" r="28.05" transform="translate(-22.51 671.35) rotate(-45)"/></g><g class="cls-29"><text class="cls-24" transform="translate(787 370)">D</text><text class="cls-25" transform="translate(802.89 371.55)">3</text></g><g class="cls-2"><path class="cls-21" d="M828.39,340.77l.77-.63q114.73-96.89.06-193.32l-.78-.63"/><polygon points="832.25 143.09 821.78 140.75 826.19 150.53 832.25 143.09"/><polygon points="826.12 336.42 821.74 346.22 832.21 343.85 826.12 336.42"/><path class="cls-21" d="M138.88,430.89l-.88-.47q-115-62.5-.27-115.84l.92-.41"/><polygon points="139.69 318.96 146.49 310.66 135.77 310.2 139.69 318.96"/><polygon points="135.76 434.67 146.49 434.89 140.23 426.18 135.76 434.67"/><polyline class="cls-21" points="246.49 423.64 384.52 331.25 385.35 330.69"/><polygon points="387.19 335.23 392.5 325.9 381.85 327.25 387.19 335.23"/><path class="cls-21" d="M246.49,292.43H383.9"/><polygon points="382.9 297.24 392.5 292.44 382.9 287.63 382.9 297.24"/><polyline class="cls-21" points="650.26 234.65 649.3 234.92 492.5 278.53"/><polygon points="650.59 239.54 658.55 232.34 648.02 230.29 650.59 239.54"/><polyline class="cls-21" points="651.24 421.63 650.39 421.11 492.5 323.38"/><polygon points="647.86 425.19 658.55 426.16 652.91 417.02 647.86 425.19"/><path class="cls-21" d="M246.49,457.11H650"/><polygon points="648.95 461.9 658.55 457.11 648.95 452.31 648.95 461.9"/><text class="cls-17" transform="translate(502 560)">Endogenous (</text><text class="cls-30" transform="translate(651.45 560)">Y</text><text class="cls-17" transform="translate(667.46 560)">)</text><line class="cls-18" x1="502.35" y1="562.75" x2="675.8" y2="562.75"/><text class="cls-31" transform="translate(914 212)">Residual </text><text class="cls-31" transform="translate(901 236)">Association </text><text class="cls-31" transform="translate(895 260)">(Disturbance </text><text class="cls-31" transform="translate(900 284)">Correlation)</text><text class="cls-31" transform="translate(390 445)">Regression path</text><text class="cls-31" transform="translate(151 534)">Observed </text><text class="cls-31" transform="translate(160 558)">variable</text><text class="cls-31" transform="translate(867 84)">Disturbance </text><text class="cls-31" transform="translate(832 108)">(Residual variance)</text><text class="cls-31" transform="translate(220 202)"><tspan class="cls-32">V</tspan><tspan x="12.45" y="0">ariance</tspan></text><text class="cls-31" transform="translate(12 316)">Correlation</text></g></svg>