<svg id="Layer_1" data-name="Layer 1" xmlns="http://www.w3.org/2000/svg" xmlns:xlink="http://www.w3.org/1999/xlink" viewBox="0 0 1024 589"><defs><style>.cls-1,.cls-22,.cls-5,.cls-9{fill:none;}.cls-2{clip-path:url(#clip-path);}.cls-3{fill:#fff;}.cls-4{clip-path:url(#clip-path-2);}.cls-5,.cls-9{stroke:#231f20;stroke-miterlimit:10;}.cls-5{stroke-width:1.98px;}.cls-6{fill:#231f20;}.cls-7{clip-path:url(#clip-path-3);}.cls-8{clip-path:url(#clip-path-4);}.cls-9{stroke-width:2px;}.cls-10{clip-path:url(#clip-path-5);}.cls-11{clip-path:url(#clip-path-6);}.cls-12{fill:#00f3ff;}.cls-13{clip-path:url(#clip-path-8);}.cls-14,.cls-19{font-size:32px;}.cls-14,.cls-15,.cls-18,.cls-25,.cls-26{font-family:HelveticaNeue-MediumItalic, Helvetica Neue;font-style:italic;}.cls-15{font-size:21.33px;}.cls-16{clip-path:url(#clip-path-10);}.cls-17,.cls-18{font-size:24px;}.cls-17,.cls-19,.cls-23{font-family:HelveticaNeue-Medium, Helvetica Neue;}.cls-20{letter-spacing:-0.02em;}.cls-21{clip-path:url(#clip-path-12);}.cls-22{stroke:#000;stroke-width:2px;}.cls-23{font-size:14px;}.cls-24{clip-path:url(#clip-path-14);}.cls-25{font-size:22px;}.cls-26{font-size:14.67px;}.cls-27{clip-path:url(#clip-path-16);}.cls-28{clip-path:url(#clip-path-18);}.cls-29{clip-path:url(#clip-path-20);}.cls-30{clip-path:url(#clip-path-22);}.cls-31{font-size:21px;font-family:HelveticaNeue, Helvetica Neue;}.cls-32{letter-spacing:-0.02em;}.cls-33{letter-spacing:-0.02em;}.cls-34{letter-spacing:-0.05em;}</style><clipPath id="clip-path"><rect class="cls-1" width="1024" height="768"/></clipPath><clipPath id="clip-path-2"><rect class="cls-1" x="173" y="367" width="47" height="39"/></clipPath><clipPath id="clip-path-3"><rect class="cls-1" x="173" y="203" width="47" height="39"/></clipPath><clipPath id="clip-path-4"><rect class="cls-1" x="775" y="59" width="48" height="39"/></clipPath><clipPath id="clip-path-5"><rect class="cls-1" x="775" y="299" width="48" height="39"/></clipPath><clipPath id="clip-path-6"><rect class="cls-1" x="509" y="134" width="48" height="39"/></clipPath><clipPath id="clip-path-8"><rect class="cls-1" x="140.96" y="242.43" width="111.07" height="100"/></clipPath><clipPath id="clip-path-10"><rect class="cls-1" x="140.96" y="407.11" width="111.07" height="100"/></clipPath><clipPath id="clip-path-12"><rect class="cls-1" x="386.96" y="242.43" width="111.07" height="100"/></clipPath><clipPath id="clip-path-14"><rect class="cls-1" x="505.02" y="170.12" width="56.11" height="56.11"/></clipPath><clipPath id="clip-path-16"><rect class="cls-1" x="653.01" y="168.44" width="111.07" height="100"/></clipPath><clipPath id="clip-path-18"><rect class="cls-1" x="771.08" y="96.12" width="56.11" height="56.11"/></clipPath><clipPath id="clip-path-20"><rect class="cls-1" x="653.01" y="407.11" width="111.07" height="100"/></clipPath><clipPath id="clip-path-22"><rect class="cls-1" x="771.08" y="334.79" width="56.11" height="56.11"/></clipPath></defs><title>ram_notation</title><g class="cls-2"><rect class="cls-3" width="1024" height="768"/></g><g class="cls-4"><path class="cls-3" d="M181.94,406A21.72,21.72,0,1,1,218,389.91,22,22,0,0,1,211.11,406"/><path class="cls-5" d="M178.11,401.41a21.49,21.49,0,0,1-3.28-11.5,21.61,21.61,0,1,1,43.22,0,22,22,0,0,1-3.18,11.44"/><path class="cls-6" d="M181.94,406a30.47,30.47,0,0,1-1.73-9.58l-2.53,4.34L173,402.44a29.44,29.44,0,0,1,8.94,3.56"/><path class="cls-6" d="M211.11,406a30.52,30.52,0,0,0,1.6-9.61l2.59,4.3,4.7,1.62a29.4,29.4,0,0,0-8.89,3.69"/></g><g class="cls-7"><path class="cls-3" d="M181.94,242A21.72,21.72,0,1,1,218,225.91,22,22,0,0,1,211.11,242"/><path class="cls-5" d="M178.11,237.41a21.49,21.49,0,0,1-3.28-11.5,21.61,21.61,0,1,1,43.22,0,22,22,0,0,1-3.18,11.44"/><path class="cls-6" d="M181.94,242a30.47,30.47,0,0,1-1.73-9.58l-2.53,4.34L173,238.44a29.44,29.44,0,0,1,8.94,3.56"/><path class="cls-6" d="M211.11,242a30.52,30.52,0,0,0,1.6-9.61l2.59,4.3,4.7,1.62a29.4,29.4,0,0,0-8.89,3.69"/></g><g class="cls-8"><path class="cls-3" d="M784.13,98a21.44,21.44,0,0,1-7.27-16.09A22.07,22.07,0,1,1,813.92,98"/><path class="cls-9" d="M780.22,93.41a21.16,21.16,0,0,1-3.35-11.5,22.07,22.07,0,0,1,44.14,0,21.7,21.7,0,0,1-3.24,11.44"/><path class="cls-6" d="M784.13,98a29.9,29.9,0,0,1-1.77-9.58l-2.58,4.34L775,94.44A30.44,30.44,0,0,1,784.13,98"/><path class="cls-6" d="M813.92,98a29.94,29.94,0,0,0,1.63-9.61l2.65,4.3,4.8,1.62A30.38,30.38,0,0,0,813.92,98"/></g><g class="cls-10"><path class="cls-3" d="M784.13,338a21.44,21.44,0,0,1-7.27-16.09A22.07,22.07,0,1,1,813.92,338"/><path class="cls-9" d="M780.22,333.41a21.16,21.16,0,0,1-3.35-11.5,22.07,22.07,0,0,1,44.14,0,21.7,21.7,0,0,1-3.24,11.44"/><path class="cls-6" d="M784.13,338a29.9,29.9,0,0,1-1.77-9.58l-2.58,4.34L775,334.44a30.44,30.44,0,0,1,9.13,3.56"/><path class="cls-6" d="M813.92,338a29.94,29.94,0,0,0,1.63-9.61l2.65,4.3,4.8,1.62a30.38,30.38,0,0,0-9.08,3.69"/></g><g class="cls-11"><path class="cls-3" d="M518.13,173a21.44,21.44,0,0,1-7.27-16.09A22.07,22.07,0,1,1,547.92,173"/><path class="cls-9" d="M514.22,168.41a21.16,21.16,0,0,1-3.35-11.5,22.07,22.07,0,0,1,44.14,0,21.7,21.7,0,0,1-3.24,11.44"/><path class="cls-6" d="M518.13,173a29.9,29.9,0,0,1-1.77-9.58l-2.58,4.34L509,169.44a30.44,30.44,0,0,1,9.13,3.56"/><path class="cls-6" d="M547.92,173a29.94,29.94,0,0,0,1.63-9.61l2.65,4.3,4.8,1.62a30.38,30.38,0,0,0-9.08,3.69"/></g><g class="cls-2"><rect class="cls-12" x="146.49" y="242.43" width="100" height="100"/></g><g class="cls-13"><text class="cls-14" transform="translate(180 305)">X</text><text class="cls-15" transform="translate(200.74 307.31)">1</text></g><g class="cls-2"><rect class="cls-12" x="146.49" y="407.11" width="100" height="100"/></g><g class="cls-16"><text class="cls-14" transform="translate(180 469)">X</text><text class="cls-15" transform="translate(200.74 471.31)">2</text></g><g class="cls-2"><text class="cls-17" transform="translate(117 139)">Exogenous (</text><text class="cls-18" transform="translate(254.4 139)">X</text><text class="cls-17" transform="translate(269.95 139)">)</text><text class="cls-19" transform="translate(20 46)">SEM notation <tspan class="cls-20" x="208.64" y="0">r</tspan><tspan x="219.36" y="0">edux (RAM notation)</tspan></text><rect class="cls-12" x="392.5" y="242.43" width="100" height="100"/></g><g class="cls-21"><text class="cls-14" transform="translate(426 305)">Y</text><text class="cls-15" transform="translate(446.16 307.31)">1</text></g><g class="cls-2"><polyline class="cls-22" points="533.08 198.18 497.2 235.51 496.5 236.23"/><polygon points="493.74 232.19 490.55 242.44 500.66 238.84 493.74 232.19"/><text class="cls-23" transform="translate(494 222)">1</text><circle class="cls-12" cx="533.08" cy="198.18" r="28.05" transform="translate(16 434.99) rotate(-45)"/></g><g class="cls-24"><text class="cls-25" transform="translate(521 207)">D</text><text class="cls-26" transform="translate(536.88 208.59)">1</text></g><g class="cls-2"><rect class="cls-12" x="658.55" y="168.44" width="100" height="100"/></g><g class="cls-27"><text class="cls-14" transform="translate(693 231)">Y</text><text class="cls-15" transform="translate(713.16 233.31)">2</text></g><g class="cls-2"><polyline class="cls-22" points="799.13 124.18 763.25 161.52 762.56 162.24"/><polygon points="759.79 158.19 756.6 168.44 766.71 164.84 759.79 158.19"/><text class="cls-23" transform="translate(760 148)">1</text><circle class="cls-12" cx="799.13" cy="124.18" r="28.05" transform="translate(146.25 601.44) rotate(-45)"/></g><g class="cls-28"><text class="cls-25" transform="translate(787 133)">D</text><text class="cls-26" transform="translate(802.88 134.59)">2</text></g><g class="cls-2"><rect class="cls-12" x="658.55" y="407.11" width="100" height="100"/></g><g class="cls-29"><text class="cls-14" transform="translate(693 469)">Y</text><text class="cls-15" transform="translate(713.16 471.31)">3</text></g><g class="cls-2"><polyline class="cls-22" points="799.13 362.85 763.25 400.18 762.56 400.9"/><polygon points="759.79 396.86 756.6 407.11 766.71 403.51 759.79 396.86"/><text class="cls-23" transform="translate(760 386)">1</text><circle class="cls-12" cx="799.13" cy="362.85" r="28.05" transform="translate(-22.51 671.35) rotate(-45)"/></g><g class="cls-30"><text class="cls-25" transform="translate(787 371)">D</text><text class="cls-26" transform="translate(802.88 372.59)">3</text></g><g class="cls-2"><path class="cls-22" d="M828.39,340.77l.77-.63q114.73-96.89.06-193.32l-.78-.63"/><polygon points="832.25 143.09 821.78 140.75 826.19 150.53 832.25 143.09"/><polygon points="826.12 336.42 821.74 346.22 832.21 343.85 826.12 336.42"/><path class="cls-22" d="M138.88,430.89l-.88-.47q-115-62.5-.27-115.84l.92-.41"/><polygon points="139.69 318.96 146.49 310.66 135.77 310.2 139.69 318.96"/><polygon points="135.76 434.67 146.49 434.89 140.23 426.18 135.76 434.67"/><polyline class="cls-22" points="246.49 423.64 384.52 331.25 385.35 330.69"/><polygon points="387.19 335.23 392.5 325.9 381.85 327.25 387.19 335.23"/><polyline class="cls-22" points="246.49 292.44 382.9 292.44 383.9 292.44"/><polygon points="382.9 297.24 392.5 292.44 382.9 287.63 382.9 297.24"/><polyline class="cls-22" points="650.26 234.65 649.3 234.92 492.5 278.53"/><polygon points="650.59 239.54 658.55 232.34 648.02 230.29 650.59 239.54"/><polyline class="cls-22" points="651.24 421.63 650.39 421.11 492.5 323.38"/><polygon points="647.86 425.19 658.55 426.16 652.91 417.02 647.86 425.19"/><polyline class="cls-22" points="246.49 457.11 648.95 457.11 649.95 457.11"/><polygon points="648.95 461.9 658.55 457.11 648.95 452.31 648.95 461.9"/><text class="cls-17" transform="translate(502 561)">Endogenous (</text><text class="cls-18" transform="translate(654.95 561)">Y</text><text class="cls-17" transform="translate(670.07 561)">)</text><text class="cls-31" transform="translate(914 211)">Residual</text><text class="cls-31" transform="translate(900 236)">Association</text><text class="cls-31" transform="translate(895 261)">(Disturbance</text><text class="cls-31" transform="translate(901 286)">Cor<tspan class="cls-32" x="34.21" y="0">r</tspan><tspan x="40.84" y="0">elation)</tspan></text><text class="cls-31" transform="translate(390 446)">Reg<tspan class="cls-33" x="37.72" y="0">r</tspan><tspan x="44.33" y="0">ession path</tspan></text><text class="cls-31" transform="translate(151 534)">Observed</text><text class="cls-31" transform="translate(160 559)">variable</text><text class="cls-31" transform="translate(866 84)">Disturbance</text><text class="cls-31" transform="translate(835 109)">(Residual variance)</text><text class="cls-31" transform="translate(221 203)"><tspan class="cls-34">V</tspan><tspan x="11.7" y="0">ariance</tspan></text><text class="cls-31" transform="translate(12 316)">Cor<tspan class="cls-32" x="34.21" y="0">r</tspan><tspan x="40.84" y="0">elation</tspan></text></g></svg>