<svg id="Layer_1" data-name="Layer 1" xmlns="http://www.w3.org/2000/svg" xmlns:xlink="http://www.w3.org/1999/xlink" viewBox="0 0 1024 590"><defs><style>.cls-1,.cls-16{fill:none;}.cls-2{clip-path:url(#clip-path);}.cls-3{fill:#fff;}.cls-4{fill:#00f4ff;}.cls-5{clip-path:url(#clip-path-2);}.cls-11,.cls-6{font-size:32px;}.cls-10,.cls-6,.cls-7{font-family:HelveticaNeue-MediumItalic, Helvetica Neue;font-style:italic;}.cls-7{font-size:21.33px;}.cls-8{clip-path:url(#clip-path-4);}.cls-10,.cls-9{font-size:24px;}.cls-11,.cls-9{font-family:HelveticaNeue-Medium, Helvetica Neue;}.cls-12{letter-spacing:-0.02em;}.cls-13{clip-path:url(#clip-path-6);}.cls-14{clip-path:url(#clip-path-8);}.cls-15{clip-path:url(#clip-path-10);}.cls-16{stroke:#000;stroke-width:2px;}.cls-17{font-size:21px;font-family:HelveticaNeue, Helvetica Neue;}.cls-18{letter-spacing:-0.02em;}.cls-19{letter-spacing:-0.02em;}.cls-20{letter-spacing:-0.05em;}</style><clipPath id="clip-path"><rect class="cls-1" width="1024" height="768"/></clipPath><clipPath id="clip-path-2"><rect class="cls-1" x="140.96" y="242.43" width="111.07" height="100"/></clipPath><clipPath id="clip-path-4"><rect class="cls-1" x="140.96" y="407.11" width="111.07" height="100"/></clipPath><clipPath id="clip-path-6"><rect class="cls-1" x="386.96" y="242.43" width="111.07" height="100"/></clipPath><clipPath id="clip-path-8"><rect class="cls-1" x="653.01" y="168.44" width="111.07" height="100"/></clipPath><clipPath id="clip-path-10"><rect class="cls-1" x="653.01" y="407.11" width="111.07" height="100"/></clipPath></defs><title>ram_simplified</title><g class="cls-2"><rect class="cls-3" width="1024" height="768"/><rect class="cls-4" x="146.49" y="242.43" width="100" height="100"/></g><g class="cls-5"><text class="cls-6" transform="translate(180 305)">X</text><text class="cls-7" transform="translate(200.74 307.31)">1</text></g><g class="cls-2"><rect class="cls-4" x="146.49" y="407.11" width="100" height="100"/></g><g class="cls-8"><text class="cls-6" transform="translate(180 469)">X</text><text class="cls-7" transform="translate(200.74 471.31)">2</text></g><g class="cls-2"><text class="cls-9" transform="translate(117 139)">Exogenous (</text><text class="cls-10" transform="translate(254.4 139)">X</text><text class="cls-9" transform="translate(269.95 139)">)</text><text class="cls-11" transform="translate(21 46)">SEM notation <tspan class="cls-12" x="208.64" y="0">r</tspan><tspan x="219.36" y="0">edux (simpliﬁed notation)</tspan></text><rect class="cls-4" x="392.5" y="242.43" width="100" height="100"/></g><g class="cls-13"><text class="cls-6" transform="translate(426 305)">Y</text><text class="cls-7" transform="translate(446.16 307.31)">1</text></g><g class="cls-2"><rect class="cls-4" x="658.55" y="168.44" width="100" height="100"/></g><g class="cls-14"><text class="cls-6" transform="translate(693 231)">Y</text><text class="cls-7" transform="translate(713.16 233.31)">2</text></g><g class="cls-2"><rect class="cls-4" x="658.55" y="407.11" width="100" height="100"/></g><g class="cls-15"><text class="cls-6" transform="translate(693 469)">Y</text><text class="cls-7" transform="translate(713.16 471.31)">3</text></g><g class="cls-2"><path class="cls-16" d="M796.18,368.91l.82-.57q159.09-114.15,0-227.67l-.82-.57"/><polygon points="799.75 136.73 789.13 135.18 794.26 144.6 799.75 136.73"/><polygon points="794.24 364.41 789.13 373.85 799.75 372.27 794.24 364.41"/><path class="cls-16" d="M138.88,430.89l-.88-.47q-115-62.5-.27-115.84l.92-.41"/><polygon points="139.69 318.96 146.49 310.66 135.77 310.2 139.69 318.96"/><polygon points="135.76 434.67 146.49 434.89 140.23 426.18 135.76 434.67"/><polyline class="cls-16" points="246.49 423.64 384.52 331.25 385.35 330.69"/><polygon points="387.19 335.23 392.5 325.9 381.85 327.25 387.19 335.23"/><path class="cls-16" d="M246.49,292.43H383.9"/><polygon points="382.9 297.24 392.5 292.44 382.9 287.63 382.9 297.24"/><polyline class="cls-16" points="650.26 234.65 649.3 234.92 492.5 278.53"/><polygon points="650.59 239.54 658.55 232.34 648.02 230.29 650.59 239.54"/><polyline class="cls-16" points="651.24 421.63 650.39 421.11 492.5 323.38"/><polygon points="647.86 425.19 658.55 426.16 652.91 417.02 647.86 425.19"/><path class="cls-16" d="M246.49,457.11H650"/><polygon points="648.95 461.9 658.55 457.11 648.95 452.31 648.95 461.9"/><text class="cls-9" transform="translate(502 561)">Endogenous (</text><text class="cls-10" transform="translate(654.95 561)">Y</text><text class="cls-9" transform="translate(670.07 561)">)</text><text class="cls-17" transform="translate(907 219)">Residual</text><text class="cls-17" transform="translate(893 244)">Association</text><text class="cls-17" transform="translate(888 269)">(Disturbance</text><text class="cls-17" transform="translate(894 294)">Cor<tspan class="cls-18" x="34.21" y="0">r</tspan><tspan x="40.84" y="0">elation)</tspan></text><text class="cls-17" transform="translate(390 446)">Reg<tspan class="cls-19" x="37.72" y="0">r</tspan><tspan x="44.33" y="0">ession path</tspan></text><text class="cls-17" transform="translate(151 534)">Observed</text><text class="cls-17" transform="translate(160 559)">variable</text><text class="cls-17" transform="translate(628 111)">Disturbance</text><text class="cls-17" transform="translate(597 136)">(Residual variance)</text><text class="cls-17" transform="translate(171 214)"><tspan class="cls-20">V</tspan><tspan x="11.7" y="0">ariance</tspan></text><text class="cls-17" transform="translate(12 316)">Cor<tspan class="cls-18" x="34.21" y="0">r</tspan><tspan x="40.84" y="0">elation</tspan></text><polyline class="cls-16" points="274.83 211.49 249.91 236.41 249.21 237.11"/><polygon points="246.52 233.01 243.12 243.19 253.31 239.8 246.52 233.01"/><polyline class="cls-16" points="273.83 375.49 248.91 400.4 248.21 401.11"/><polygon points="245.52 397.01 242.12 407.19 252.31 403.8 245.52 397.01"/><polyline class="cls-16" points="519.83 211.49 494.91 236.41 494.2 237.11"/><polygon points="491.52 233.01 488.12 243.19 498.31 239.8 491.52 233.01"/><polyline class="cls-16" points="786.83 137.49 761.91 162.41 761.21 163.11"/><polygon points="758.52 159.01 755.12 169.19 765.31 165.8 758.52 159.01"/><polyline class="cls-16" points="786.83 375.49 761.91 400.4 761.21 401.11"/><polygon points="758.52 397.01 755.12 407.19 765.31 403.8 758.52 397.01"/></g></svg>