<svg id="Layer_1" data-name="Layer 1" xmlns="http://www.w3.org/2000/svg" xmlns:xlink="http://www.w3.org/1999/xlink" viewBox="0 0 990 618"><defs><style>.cls-1,.cls-17,.cls-7{fill:none;}.cls-2{clip-path:url(#clip-path);}.cls-3{fill:#fff;}.cls-4{fill:#00f4ff;}.cls-5{clip-path:url(#clip-path-2);}.cls-6{font-size:22px;}.cls-20,.cls-21,.cls-6{font-family:HelveticaNeue-Medium, Helvetica Neue;}.cls-7{stroke:#000;}.cls-17,.cls-7{stroke-width:2px;}.cls-8{clip-path:url(#clip-path-4);}.cls-9{clip-path:url(#clip-path-6);}.cls-10{letter-spacing:-0.02em;}.cls-11{letter-spacing:-0.02em;}.cls-12{clip-path:url(#clip-path-8);}.cls-13{clip-path:url(#clip-path-10);}.cls-14{clip-path:url(#clip-path-12);}.cls-15{clip-path:url(#clip-path-14);}.cls-16{clip-path:url(#clip-path-16);}.cls-17{stroke:#00fdff;}.cls-18{font-size:24px;font-family:HelveticaNeue-Bold, Helvetica Neue;font-weight:700;}.cls-19{letter-spacing:-0.02em;}.cls-20{font-size:18px;}.cls-21{font-size:32px;}.cls-22{letter-spacing:-0.02em;}</style><clipPath id="clip-path"><rect class="cls-1" x="-16" y="-17" width="1024" height="768"/></clipPath><clipPath id="clip-path-2"><rect class="cls-1" x="73.11" y="115.28" width="147.32" height="85.88"/></clipPath><clipPath id="clip-path-4"><rect class="cls-1" x="282.66" y="115.28" width="159.32" height="85.88"/></clipPath><clipPath id="clip-path-6"><rect class="cls-1" x="498.2" y="115.52" width="159.32" height="85.88"/></clipPath><clipPath id="clip-path-8"><rect class="cls-1" x="713.75" y="115.52" width="159.32" height="85.88"/></clipPath><clipPath id="clip-path-10"><rect class="cls-1" x="229.94" y="305.82" width="159.32" height="85.88"/></clipPath><clipPath id="clip-path-12"><rect class="cls-1" x="359.68" y="497.28" width="159.32" height="85.88"/></clipPath><clipPath id="clip-path-14"><rect class="cls-1" x="575.23" y="497.28" width="159.32" height="85.88"/></clipPath><clipPath id="clip-path-16"><rect class="cls-1" x="790.77" y="497.28" width="159.32" height="85.88"/></clipPath></defs><title>sem_process</title><g class="cls-2"><rect class="cls-3" x="-16" y="-17" width="1024" height="768"/><rect class="cls-4" x="75.67" y="115.28" width="142.21" height="85.88"/></g><g class="cls-5"><text class="cls-6" transform="translate(109 153)">Specify </text><text class="cls-6" transform="translate(115 180)">Model</text></g><g class="cls-2"><polyline class="cls-7" points="217.88 158.22 275.61 158.22 276.61 158.22"/><polygon points="275.61 163.02 285.21 158.22 275.61 153.42 275.61 163.02"/><rect class="cls-4" x="285.21" y="115.28" width="154.21" height="85.88"/></g><g class="cls-8"><text class="cls-6" transform="translate(330 153)">Check </text><text class="cls-6" transform="translate(297 180)">identiﬁcation</text></g><g class="cls-2"><rect class="cls-4" x="500.76" y="115.52" width="154.21" height="85.88"/></g><g class="cls-9"><text class="cls-6" transform="translate(538 153)">P<tspan class="cls-10" x="14.67" y="0">r</tspan><tspan x="22.04" y="0">epa</tspan><tspan class="cls-11" x="59.95" y="0">r</tspan><tspan x="67.32" y="0">e </tspan></text><text class="cls-6" transform="translate(555 180)">data</text></g><g class="cls-2"><rect class="cls-4" x="716.3" y="115.52" width="154.21" height="85.88"/></g><g class="cls-12"><text class="cls-6" transform="translate(749 153)">Estimate </text><text class="cls-6" transform="translate(762 180)">model</text></g><g class="cls-2"><rect class="cls-4" x="232.49" y="305.82" width="154.21" height="85.88"/></g><g class="cls-13"><text class="cls-6" transform="translate(253 357)">Evaluate ﬁt</text></g><g class="cls-2"><rect class="cls-4" x="362.24" y="497.28" width="154.21" height="85.88"/></g><g class="cls-14"><text class="cls-6" transform="translate(396 535)">Interp<tspan class="cls-10" x="59.49" y="0">r</tspan><tspan x="66.86" y="0">et </tspan></text><text class="cls-6" transform="translate(390 562)">estimates</text></g><g class="cls-2"><rect class="cls-4" x="577.78" y="497.28" width="154.21" height="85.88"/></g><g class="cls-15"><text class="cls-6" transform="translate(609 535)">Consider </text><text class="cls-6" transform="translate(588 562)">other models</text></g><g class="cls-2"><rect class="cls-4" x="793.33" y="497.28" width="154.21" height="85.88"/></g><g class="cls-16"><text class="cls-6" transform="translate(836 535)">Report </text><text class="cls-6" transform="translate(837 562)"><tspan class="cls-10">r</tspan><tspan x="7.37" y="0">esults</tspan></text></g><g class="cls-2"><polyline class="cls-7" points="439.42 158.31 491.16 158.36 492.16 158.37"/><polygon points="491.15 163.16 500.76 158.38 491.16 153.56 491.15 163.16"/><polyline class="cls-7" points="654.97 158.46 706.7 158.46 707.7 158.46"/><polygon points="706.7 163.26 716.3 158.46 706.7 153.66 706.7 163.26"/><rect class="cls-17" x="22.16" y="74.04" width="868.64" height="140.84"/><text class="cls-18" transform="translate(349 481)">3. Interp<tspan class="cls-19" x="94.22" y="0">r</tspan><tspan x="103.15" y="0">et</tspan></text><text class="cls-18" transform="translate(28 100)">1. Estimate</text><rect class="cls-17" x="184.99" y="264.34" width="249.22" height="140.84"/><text class="cls-18" transform="translate(193 291)">2. Evaluate</text><rect class="cls-17" x="339.91" y="454.89" width="629.96" height="140.84"/><polyline class="cls-7" points="569.18 540.22 568.18 540.22 516.45 540.22"/><polygon points="568.18 545.02 577.78 540.22 568.18 535.42 568.18 545.02"/><polyline class="cls-7" points="731.99 540.22 783.73 540.22 784.73 540.22"/><polygon points="783.73 545.02 793.33 540.22 783.73 535.42 783.73 545.02"/><polyline class="cls-7" points="146.7 209.7 146.7 210.7 146.7 348.7 232.4 348.7"/><polygon points="151.5 210.7 146.7 201.1 141.9 210.7 151.5 210.7"/><text class="cls-20" transform="translate(69 354)">Bad ﬁt: </text><text class="cls-20" transform="translate(30 377)">Respecify model</text><polyline class="cls-7" points="309.6 391.7 309.6 540.2 352.6 540.2 353.6 540.2"/><polygon points="352.6 545 362.2 540.2 352.6 535.4 352.6 545"/><text class="cls-20" transform="translate(219 543)">Good ﬁt: </text><text class="cls-20" transform="translate(187 566)">Make infe<tspan class="cls-19" x="81.04" y="0">r</tspan><tspan x="87.06" y="0">ences</tspan></text><text class="cls-21" transform="translate(137 42)">The p<tspan class="cls-22" x="83.58" y="0">r</tspan><tspan x="94.3" y="0">ocess of ﬁtting structural equation models</tspan></text><polyline class="cls-7" points="793.4 201.4 793.4 348.7 396.3 348.7 395.3 348.7"/><polygon points="396.3 343.9 386.7 348.7 396.3 353.5 396.3 343.9"/></g></svg>