<svg id="Layer_1" data-name="Layer 1" xmlns="http://www.w3.org/2000/svg" xmlns:xlink="http://www.w3.org/1999/xlink" viewBox="0 0 1024 536"><defs><style>.cls-1,.cls-17{fill:none;}.cls-2{clip-path:url(#clip-path);}.cls-3{fill:#fff;}.cls-4{fill:#00f4ff;}.cls-5{clip-path:url(#clip-path-2);}.cls-6{font-size:32px;}.cls-12,.cls-6,.cls-7{font-family:Arial-ItalicMT, Arial;font-style:italic;}.cls-7{font-size:21.33px;}.cls-8{clip-path:url(#clip-path-4);}.cls-9{clip-path:url(#clip-path-6);}.cls-10{clip-path:url(#clip-path-8);}.cls-11{clip-path:url(#clip-path-10);}.cls-12,.cls-14,.cls-20{font-size:14.67px;}.cls-13{clip-path:url(#clip-path-12);}.cls-14{font-family:Helvetica-Oblique, Helvetica;}.cls-15{clip-path:url(#clip-path-14);}.cls-16{clip-path:url(#clip-path-16);}.cls-17{stroke:#000;stroke-width:2px;}.cls-18,.cls-21{font-size:16px;}.cls-18,.cls-22{font-family:ArialMT, Arial;}.cls-19{clip-path:url(#clip-path-18);}.cls-20,.cls-21{font-family:Helvetica, Helvetica;}.cls-22{font-size:36px;}.cls-23{clip-path:url(#clip-path-20);}</style><clipPath id="clip-path"><rect class="cls-1" width="1024" height="768"/></clipPath><clipPath id="clip-path-2"><rect class="cls-1" x="723.14" y="42.77" width="109.88" height="100"/></clipPath><clipPath id="clip-path-4"><rect class="cls-1" x="723.14" y="161.77" width="109.88" height="100"/></clipPath><clipPath id="clip-path-6"><rect class="cls-1" x="723.14" y="280.77" width="109.88" height="100"/></clipPath><clipPath id="clip-path-8"><rect class="cls-1" x="723.14" y="399.77" width="109.88" height="100"/></clipPath><clipPath id="clip-path-10"><rect class="cls-1" x="877.55" y="64.72" width="56.11" height="56.11"/></clipPath><clipPath id="clip-path-12"><rect class="cls-1" x="877.55" y="302.72" width="56.11" height="56.11"/></clipPath><clipPath id="clip-path-14"><rect class="cls-1" x="877.55" y="183.72" width="56.11" height="56.11"/></clipPath><clipPath id="clip-path-16"><rect class="cls-1" x="877.55" y="421.72" width="56.11" height="56.11"/></clipPath><clipPath id="clip-path-18"><rect class="cls-1" x="409.21" y="208.81" width="126.63" height="124.92"/></clipPath><clipPath id="clip-path-20"><rect class="cls-1" x="48.07" y="170" width="308.93" height="194.79"/></clipPath></defs><title>common_path_model</title><g class="cls-2"><rect class="cls-3" width="1024" height="768"/><rect class="cls-4" x="728.08" y="42.77" width="100" height="100"/></g><g class="cls-5"><text class="cls-6" transform="translate(761 104)">Y</text><text class="cls-7" transform="translate(782.34 106.26)">1</text></g><g class="cls-2"><rect class="cls-4" x="728.08" y="161.77" width="100" height="100"/></g><g class="cls-8"><text class="cls-6" transform="translate(761 223)">Y</text><text class="cls-7" transform="translate(782.34 225.26)">2</text></g><g class="cls-2"><rect class="cls-4" x="728.08" y="280.77" width="100" height="100"/></g><g class="cls-9"><text class="cls-6" transform="translate(761 342)">Y</text><text class="cls-7" transform="translate(782.34 344.26)">3</text></g><g class="cls-2"><rect class="cls-4" x="728.08" y="399.77" width="100" height="100"/></g><g class="cls-10"><text class="cls-6" transform="translate(761 461)">Y</text><text class="cls-7" transform="translate(782.34 463.26)">4</text></g><g class="cls-2"><circle class="cls-4" cx="905.61" cy="92.77" r="28.05" transform="translate(199.65 667.53) rotate(-45)"/></g><g class="cls-11"><path d="M903.36,94.83h-1.17q-.51,0-1,0a3,3,0,0,0-1,.24,1.94,1.94,0,0,0-.75.58,2,2,0,0,0-.5,1,1.34,1.34,0,0,0,.58,1.51,3.24,3.24,0,0,0,1.73.42,4.82,4.82,0,0,0,2.22-.5,3,3,0,0,0,1.39-1.76h1.85a4.56,4.56,0,0,1-2.11,2.88,6.42,6.42,0,0,1-3.39,1,9.66,9.66,0,0,1-1.73-.15,4.73,4.73,0,0,1-1.49-.53,2.38,2.38,0,0,1-.93-1.07,2.91,2.91,0,0,1-.09-1.78,3.05,3.05,0,0,1,1.14-1.78A4.13,4.13,0,0,1,900,94v0a2.8,2.8,0,0,1-1.27-.95,1.85,1.85,0,0,1-.26-1.57,3,3,0,0,1,.71-1.43,3.8,3.8,0,0,1,1.22-.95,6.64,6.64,0,0,1,2.94-.72,5.54,5.54,0,0,1,3.05.76,2.67,2.67,0,0,1,.86,2.79h-1.85a1.35,1.35,0,0,0-.55-1.58,3.85,3.85,0,0,0-1.78-.4,4,4,0,0,0-1.59.33,1.84,1.84,0,0,0-1.07,1.35,1.1,1.1,0,0,0,.5,1.35,3.43,3.43,0,0,0,1.58.3h1.21Z"/><text class="cls-12" transform="translate(907.24 101.55)">1</text></g><g class="cls-2"><circle class="cls-4" cx="905.61" cy="330.77" r="28.05" transform="translate(31.36 737.24) rotate(-45)"/></g><g class="cls-13"><path d="M903.36,333.83h-1.17q-.51,0-1,0a3,3,0,0,0-1,.24,1.94,1.94,0,0,0-.75.58,2,2,0,0,0-.5,1,1.34,1.34,0,0,0,.58,1.51,3.24,3.24,0,0,0,1.73.42,4.82,4.82,0,0,0,2.22-.5,3,3,0,0,0,1.39-1.76h1.85a4.56,4.56,0,0,1-2.11,2.88,6.42,6.42,0,0,1-3.39,1,9.66,9.66,0,0,1-1.73-.15,4.73,4.73,0,0,1-1.49-.53,2.38,2.38,0,0,1-.93-1.07,2.91,2.91,0,0,1-.09-1.78,3.05,3.05,0,0,1,1.14-1.78A4.13,4.13,0,0,1,900,333v0a2.8,2.8,0,0,1-1.27-.95,1.85,1.85,0,0,1-.26-1.57,3,3,0,0,1,.71-1.43,3.8,3.8,0,0,1,1.22-.95,6.64,6.64,0,0,1,2.94-.72,5.54,5.54,0,0,1,3.05.76,2.67,2.67,0,0,1,.86,2.79h-1.85a1.35,1.35,0,0,0-.55-1.58,3.85,3.85,0,0,0-1.78-.4,4,4,0,0,0-1.59.33,1.84,1.84,0,0,0-1.07,1.35,1.1,1.1,0,0,0,.5,1.35,3.43,3.43,0,0,0,1.58.3h1.21Z"/><text class="cls-14" transform="translate(907.24 340.69)">3</text></g><g class="cls-2"><circle class="cls-4" cx="905.61" cy="211.77" r="28.05" transform="translate(115.5 702.39) rotate(-45)"/></g><g class="cls-15"><path d="M903.36,214.83h-1.17q-.51,0-1,0a3,3,0,0,0-1,.24,1.94,1.94,0,0,0-.75.58,2,2,0,0,0-.5,1,1.34,1.34,0,0,0,.58,1.51,3.24,3.24,0,0,0,1.73.42,4.82,4.82,0,0,0,2.22-.5,3,3,0,0,0,1.39-1.76h1.85a4.56,4.56,0,0,1-2.11,2.88,6.42,6.42,0,0,1-3.39,1,9.66,9.66,0,0,1-1.73-.15,4.73,4.73,0,0,1-1.49-.53,2.38,2.38,0,0,1-.93-1.07,2.91,2.91,0,0,1-.09-1.78,3.05,3.05,0,0,1,1.14-1.78A4.13,4.13,0,0,1,900,214v0a2.8,2.8,0,0,1-1.27-.95,1.85,1.85,0,0,1-.26-1.57,3,3,0,0,1,.71-1.43,3.8,3.8,0,0,1,1.22-.95,6.64,6.64,0,0,1,2.94-.72,5.54,5.54,0,0,1,3.05.76,2.67,2.67,0,0,1,.86,2.79h-1.85a1.35,1.35,0,0,0-.55-1.58,3.85,3.85,0,0,0-1.78-.4,4,4,0,0,0-1.59.33,1.84,1.84,0,0,0-1.07,1.35,1.1,1.1,0,0,0,.5,1.35,3.43,3.43,0,0,0,1.58.3h1.21Z"/><text class="cls-14" transform="translate(907.24 221.69)">2</text></g><g class="cls-2"><circle class="cls-4" cx="905.61" cy="449.77" r="28.05" transform="translate(-52.79 772.1) rotate(-45)"/></g><g class="cls-16"><path d="M903.36,452.83h-1.17q-.51,0-1,0a3,3,0,0,0-1,.24,1.94,1.94,0,0,0-.75.58,2,2,0,0,0-.5,1,1.34,1.34,0,0,0,.58,1.51,3.24,3.24,0,0,0,1.73.42,4.82,4.82,0,0,0,2.22-.5,3,3,0,0,0,1.39-1.76h1.85a4.56,4.56,0,0,1-2.11,2.88,6.42,6.42,0,0,1-3.39,1,9.66,9.66,0,0,1-1.73-.15,4.73,4.73,0,0,1-1.49-.53,2.38,2.38,0,0,1-.93-1.07,2.91,2.91,0,0,1-.09-1.78,3.05,3.05,0,0,1,1.14-1.78A4.13,4.13,0,0,1,900,452v0a2.8,2.8,0,0,1-1.27-.95,1.85,1.85,0,0,1-.26-1.57,3,3,0,0,1,.71-1.43,3.8,3.8,0,0,1,1.22-.95,6.64,6.64,0,0,1,2.94-.72,5.54,5.54,0,0,1,3.05.76,2.67,2.67,0,0,1,.86,2.79h-1.85a1.35,1.35,0,0,0-.55-1.58,3.85,3.85,0,0,0-1.78-.4,4,4,0,0,0-1.59.33,1.84,1.84,0,0,0-1.07,1.35,1.1,1.1,0,0,0,.5,1.35,3.43,3.43,0,0,0,1.58.3h1.21Z"/><text class="cls-14" transform="translate(907.24 459.69)">4</text></g><g class="cls-2"><path class="cls-17" d="M877.55,92.77H836.68"/><polygon points="837.68 87.97 828.08 92.77 837.68 97.57 837.68 87.97"/><polyline class="cls-17" points="836.68 211.77 837.68 211.77 877.55 211.77"/><polygon points="837.68 206.97 828.08 211.77 837.68 216.57 837.68 206.97"/><polyline class="cls-17" points="836.68 330.77 837.68 330.77 877.55 330.77"/><polygon points="837.68 325.97 828.08 330.77 837.68 335.57 837.68 325.97"/><polyline class="cls-17" points="877.55 449.77 837.68 449.77 836.68 449.77"/><polygon points="837.68 444.97 828.08 449.77 837.68 454.57 837.68 444.97"/><text class="cls-18" transform="translate(848 203)">1</text><text class="cls-18" transform="translate(848 322)">1</text><text class="cls-18" transform="translate(848 440)">1</text><circle class="cls-4" cx="472.52" cy="271.27" r="62.46" transform="translate(-53.42 413.57) rotate(-45)"/></g><g class="cls-19"><path d="M463.24,269.81q.51-2.09-.74-2.09a4.56,4.56,0,0,0-1,.12l.54-2.57a5.29,5.29,0,0,1,2.06-.35q3.15,0,2.43,3.34h.07a8.87,8.87,0,0,1,7-3.34q6.22,0,4.94,6.19L474.24,291H471L475.07,272q.95-4.13-2.88-4.25a5.83,5.83,0,0,0-4.38,1.78,9.12,9.12,0,0,0-2.2,4.46l-2.13,10h-3.25Z"/><text class="cls-20" transform="translate(478.99 285.69)">1</text></g><g class="cls-2"><polyline class="cls-17" points="720.65 126.32 719.79 126.82 526.46 239.76"/><polygon points="722.21 130.97 728.08 121.98 717.37 122.68 722.21 130.97"/><polyline class="cls-17" points="719.64 223.15 718.66 223.34 533.83 259.33"/><polygon points="719.57 228.05 728.08 221.51 717.74 218.63 719.57 228.05"/><polyline class="cls-17" points="719.64 319.39 718.66 319.2 533.83 283.21"/><polygon points="717.74 323.91 728.08 321.04 719.57 314.49 717.74 323.91"/><polyline class="cls-17" points="720.65 416.23 719.79 415.72 526.46 302.79"/><polygon points="717.37 419.87 728.08 420.56 722.21 411.58 717.37 419.87"/><path d="M622.29,141.75a4.7,4.7,0,0,1,1.2-.13,2.43,2.43,0,0,1,1.83.63,6.31,6.31,0,0,1,1.13,2.09l4.84,12a4.49,4.49,0,0,0,.41.67.77.77,0,0,0,.63.32h.6V159h-1.23a2.37,2.37,0,0,1-2.37-1.78l-2.93-7.72-3.62,9.5h-2.33l4.92-12.07-.87-2.31q-.46-1.17-1.44-1.12h-.76Z"/><text class="cls-21" transform="translate(633.35 160.84)">1</text><path d="M622.29,209.75a4.7,4.7,0,0,1,1.2-.13,2.43,2.43,0,0,1,1.83.63,6.31,6.31,0,0,1,1.13,2.09l4.84,12a4.49,4.49,0,0,0,.41.67.77.77,0,0,0,.63.32h.6V227h-1.23a2.37,2.37,0,0,1-2.37-1.78l-2.93-7.72-3.62,9.5h-2.33l4.92-12.07-.87-2.31q-.46-1.17-1.44-1.12h-.76Z"/><text class="cls-21" transform="translate(633.35 228.84)">2</text><path d="M622.29,274.75a4.7,4.7,0,0,1,1.2-.13,2.43,2.43,0,0,1,1.83.63,6.31,6.31,0,0,1,1.13,2.09l4.84,12a4.49,4.49,0,0,0,.41.67.77.77,0,0,0,.63.32h.6V292h-1.23a2.37,2.37,0,0,1-2.37-1.78l-2.93-7.72-3.62,9.5h-2.33l4.92-12.07-.87-2.31q-.46-1.17-1.44-1.12h-.76Z"/><text class="cls-21" transform="translate(633.35 293.84)">3</text><path d="M622.29,332.75a4.7,4.7,0,0,1,1.2-.13,2.43,2.43,0,0,1,1.83.63,6.31,6.31,0,0,1,1.13,2.09l4.84,12a4.49,4.49,0,0,0,.41.67.77.77,0,0,0,.63.32h.6V350h-1.23a2.37,2.37,0,0,1-2.37-1.78l-2.93-7.72-3.62,9.5h-2.33l4.92-12.07-.87-2.31q-.46-1.17-1.44-1.12h-.76Z"/><text class="cls-21" transform="translate(633.35 351.84)">4</text><text class="cls-22" transform="translate(20 50)">Common Factor Model</text><polyline class="cls-17" points="514.48 179.86 490.74 203.6 490.03 204.31"/><polygon points="487.34 200.21 483.95 210.39 494.13 207 487.34 200.21"/><path d="M485.06,164.35c-1.2.43-1.78,1.18-1.78,1.78s.38.91,1.18,1.08c.89-1,3-2.54,4.3-2.54.53,0,.77.22.77.58,0,1.08-2.5,2.52-4.7,2.71-2.09,1.46-4.46,4.75-4.46,7.9a2,2,0,0,0,2.21,2.18s.46,0,1.13,0c1.94,0,3,.62,3,2.38,0,2-2.38,4-4.34,4a1.28,1.28,0,0,1-1.27-1.3,1,1,0,0,1,1.15-1c.5,0,.84.72,1.27.72,1.06,0,2.33-.65,2.33-1.63s-.82-1.18-2-1.18c-.26,0-1.44.22-1.82.22a3.11,3.11,0,0,1-3-3.41c0-3.86,2.33-6.7,4.8-8.9v0c-.77,0-1.75-.48-1.75-1.42s1-2,3-2.5Z"/><text class="cls-21" transform="translate(488.44 181.84)">1</text><text class="cls-18" transform="translate(848 85)">1</text></g><g class="cls-23"><path d="M64.52,181.8a2.26,2.26,0,0,0,.14-.83,1,1,0,0,0-1-1,1.56,1.56,0,0,0-1.26.75c-.07.18-.36,1.29-.5,1.94-.25.93-.5,1.91-.72,2.87L59.53,192c-.14.54-1.69,3.05-4.06,3.05-1.83,0-2.23-1.58-2.23-2.91,0-1.65.61-3.88,1.83-7a6.49,6.49,0,0,0,.72-2.59,2.85,2.85,0,0,0-2.94-2.94c-3.41,0-4.74,5.21-4.74,5.53s.36.36.43.36c.36,0,.4-.07.58-.65,1-3.37,2.41-4.45,3.63-4.45.29,0,.9,0,.9,1.15a7.65,7.65,0,0,1-.61,2.51c-1.44,3.81-2.08,5.85-2.08,7.54,0,3.2,2.26,4.27,4.38,4.27A5.08,5.08,0,0,0,59,194.27a13.8,13.8,0,0,1-2.33,5.53,5.14,5.14,0,0,1-4,2.26,2.9,2.9,0,0,1-2.73-1.51,2.05,2.05,0,0,0,1.54-.43,2,2,0,0,0,.72-1.47,1.22,1.22,0,0,0-1.33-1.26,2.07,2.07,0,0,0-2,2.33c0,1.8,1.58,3.13,3.81,3.13,3.7,0,7.4-3.27,8.4-7.33l3.45-13.72"/><path d="M73.06,184.84c0-.68,0-.7-.75-.7a6.84,6.84,0,0,1-4.91,1.6v.9a8.26,8.26,0,0,0,3.63-.7v12.78c0,.83,0,1.15-2.51,1.15h-1v.9c.45,0,3.53-.1,4.46-.1.78,0,3.93.07,4.49.1v-.9h-1c-2.51,0-2.51-.33-2.51-1.15V184.84"/><path d="M115.48,190.71c.5,0,1.18,0,1.18-.72s-.68-.72-1.22-.72H94c-.54,0-1.22,0-1.22.72s.68.72,1.19.72h21.51m0-7c.54,0,1.22,0,1.22-.72s-.68-.72-1.18-.72H94c-.5,0-1.19,0-1.19.72s.68.72,1.22.72Z"/><path d="M143.29,191.93c-3.16,2.77-5.93,3.16-7.36,3.16-2.15,0-3.23-1.62-3.23-3.91a18.63,18.63,0,0,1,2.08-7.47c1.69-2.62,3.63-3.3,4.88-3.3,3.56,0,3.56,4.7,3.56,7.51,0,1.33,0,3.41.07,4M145.7,187c0-5.64-3.34-7.4-6-7.4-4.92,0-9.66,5.13-9.66,10.2,0,3.34,2.15,6.07,5.82,6.07a12.11,12.11,0,0,0,7.58-3c.47,1.9,1.65,3,3.27,3a3.32,3.32,0,0,0,3-2.55c0-.25-.21-.36-.43-.36s-.36.11-.47.36c-.65,1.76-1.94,1.76-2,1.76-1.11,0-1.11-2.8-1.11-3.66s0-.83.36-1.26a20.76,20.76,0,0,0,4.13-8.44c0-.07,0-.36-.43-.36s-.36.11-.54.76a21.21,21.21,0,0,1-3.52,7.11Z"/><path d="M160,184.84c0-.68-.05-.7-.75-.7a6.84,6.84,0,0,1-4.91,1.6v.9a8.26,8.26,0,0,0,3.63-.7v12.78c0,.83,0,1.15-2.51,1.15h-1v.9c.45,0,3.53-.1,4.46-.1.78,0,3.93.07,4.49.1v-.9h-1c-2.51,0-2.51-.33-2.51-1.15V184.84"/><path d="M190.26,187.22h10c.5,0,1.18,0,1.18-.72s-.68-.72-1.18-.72h-10V175.73c0-.5,0-1.18-.72-1.18s-.72.68-.72,1.18v10.06H178.76c-.5,0-1.19,0-1.19.72s.68.72,1.19.72h10.05v10.06c0,.5,0,1.19.72,1.19s.72-.68.72-1.19V187.22"/><path d="M224.29,185c1.47,3.77,3.2,9.27,3.77,10.09s.93.79,1.9.79h.79c.36,0,.39-.25.39-.36s-.07-.18-.18-.32a4.7,4.7,0,0,1-.83-1.65l-7.33-20.44c-.75-2.08-2.69-2.55-4.38-2.55-.18,0-.65,0-.65.39a.37.37,0,0,0,.32.36c1.19.21,1.44.43,2.33,2.87l3.49,9.77L214,193.8c-.43.43-.65.65-.65,1.11a1.05,1.05,0,0,0,1.08,1,1.52,1.52,0,0,0,1.18-.76l8.66-10.2"/><path d="M240.76,184.84c0-.68-.05-.7-.75-.7a6.84,6.84,0,0,1-4.91,1.6v.9a8.26,8.26,0,0,0,3.63-.7v12.78c0,.83,0,1.15-2.51,1.15h-1v.9c.45,0,3.53-.1,4.46-.1.78,0,3.93.07,4.49.1v-.9h-1c-2.51,0-2.51-.33-2.51-1.15V184.84"/><path d="M266,185.54a6.63,6.63,0,0,0,.29-2.08c0-2.34-1.44-3.84-4.13-3.84a6.87,6.87,0,0,0-5.57,3.12,3.24,3.24,0,0,0-3.3-3.12,3,3,0,0,0-2.66,2,15.05,15.05,0,0,0-1.11,3.48c0,.36.36.36.43.36.36,0,.4,0,.61-.83.61-2.55,1.33-4.27,2.62-4.27.61,0,1.11.29,1.11,1.65a11.57,11.57,0,0,1-.57,3l-2.08,8.3c-.11.54-.32,1.36-.32,1.54a1,1,0,0,0,1,1,1.47,1.47,0,0,0,1.33-1c0-.07.47-1.76.68-2.66l.79-3.23c.21-.79.43-1.58.61-2.41.07-.22.36-1.4.4-1.62a10.6,10.6,0,0,1,2.44-3.3A5.71,5.71,0,0,1,262,180.4c1.54,0,1.94,1.22,1.94,2.51a9.11,9.11,0,0,1-.36,2.26l-4.1,16.52a2.23,2.23,0,0,0-.11.58,1,1,0,0,0,1,1c1.11,0,1.36-1,1.47-1.44l4.1-16.27"/><path d="M274.66,184.84c0-.68-.05-.7-.75-.7a6.84,6.84,0,0,1-4.91,1.6v.9a8.26,8.26,0,0,0,3.64-.7v12.78c0,.83,0,1.15-2.51,1.15h-1v.9c.45,0,3.53-.1,4.46-.1.78,0,3.93.07,4.49.1v-.9h-1c-2.51,0-2.51-.33-2.51-1.15V184.84"/><path d="M305.06,187.22h10c.5,0,1.18,0,1.18-.72s-.68-.72-1.18-.72h-10V175.73c0-.5,0-1.18-.72-1.18s-.72.68-.72,1.18v10.06H293.56c-.5,0-1.19,0-1.19.72s.68.72,1.19.72h10.05v10.06c0,.5,0,1.19.72,1.19s.72-.68.72-1.19V187.22"/><path d="M332.42,186.87a6.48,6.48,0,0,1,2.19-.32,4.61,4.61,0,0,1,1.69.22c-.54.25-.61.29-2,.29a6.48,6.48,0,0,1-1.9-.18m-1.18.47a7.36,7.36,0,0,0,3.09.5c.93,0,2.91,0,2.91-1.11,0-.86-1.26-1-2.62-1a7.92,7.92,0,0,0-3.34.68,2.35,2.35,0,0,1-1.44-2.08c0-2.19,3.52-3.48,6.75-3.48a5.41,5.41,0,0,1,3.3,1c.39.29.47.36.72.36a1,1,0,0,0,1-1c0-.68-2.19-2-4.63-2-4.13,0-8,2.41-8,5.14a3.31,3.31,0,0,0,1.44,2.55,6,6,0,0,0-3.27,4.85c0,2.33,2,4.53,5.85,4.53,4.74,0,6.75-3.16,6.75-3.7a.37.37,0,0,0-.39-.36.46.46,0,0,0-.36.25c-.5.83-1.37,2.15-5.67,2.15-2.19,0-5.24-.54-5.24-3.09A5.29,5.29,0,0,1,331.23,187.33Z"/><path d="M351.36,184.84c0-.68,0-.7-.75-.7a6.84,6.84,0,0,1-4.91,1.6v.9a8.26,8.26,0,0,0,3.63-.7v12.78c0,.83,0,1.15-2.51,1.15h-1v.9c.45,0,3.53-.1,4.46-.1.78,0,3.93.07,4.49.1v-.9h-1c-2.51,0-2.51-.33-2.51-1.15V184.84"/><path d="M64.52,235.5a2.26,2.26,0,0,0,.14-.83,1,1,0,0,0-1-1,1.56,1.56,0,0,0-1.26.76c-.07.18-.36,1.29-.5,1.94-.25.93-.5,1.9-.72,2.87l-1.62,6.47c-.14.54-1.69,3.05-4.06,3.05-1.83,0-2.23-1.58-2.23-2.91,0-1.65.61-3.88,1.83-7a6.49,6.49,0,0,0,.72-2.59,2.85,2.85,0,0,0-2.94-2.94c-3.41,0-4.74,5.21-4.74,5.53s.36.36.43.36c.36,0,.4-.07.58-.65,1-3.37,2.41-4.45,3.63-4.45.29,0,.9,0,.9,1.15a7.65,7.65,0,0,1-.61,2.51c-1.44,3.81-2.08,5.85-2.08,7.54,0,3.19,2.26,4.27,4.38,4.27A5.08,5.08,0,0,0,59,248a13.8,13.8,0,0,1-2.33,5.53,5.14,5.14,0,0,1-4,2.26,2.9,2.9,0,0,1-2.73-1.51,2.05,2.05,0,0,0,1.54-.43,2,2,0,0,0,.72-1.47,1.23,1.23,0,0,0-1.33-1.26,2.07,2.07,0,0,0-2,2.33c0,1.8,1.58,3.12,3.81,3.12,3.7,0,7.4-3.27,8.4-7.33l3.45-13.72"/><path d="M77.33,250h-.85a5.81,5.81,0,0,1-.65,2.28,12.89,12.89,0,0,1-2.48.15H68.73c2.63-2.33,3.51-3,5-4.21,1.85-1.48,3.58-3,3.58-5.41,0-3-2.66-4.89-5.87-4.89s-5.21,2.18-5.21,4.49a1.33,1.33,0,1,0,2.66.08c0-.45-.18-1.33-1.48-1.33a3.94,3.94,0,0,1,3.66-2.33,3.75,3.75,0,0,1,3.81,4c0,2.18-1.55,3.91-2.36,4.81l-6,6c-.25.23-.25.28-.25,1H76.57l.75-4.56"/><path d="M115.48,244.41c.5,0,1.18,0,1.18-.72s-.68-.72-1.22-.72H94c-.54,0-1.22,0-1.22.72s.68.72,1.19.72h21.51m0-7c.54,0,1.22,0,1.22-.72s-.68-.72-1.18-.72H94c-.5,0-1.19,0-1.19.72s.68.72,1.22.72Z"/><path d="M143.29,245.63c-3.16,2.77-5.93,3.16-7.36,3.16-2.15,0-3.23-1.62-3.23-3.91a18.63,18.63,0,0,1,2.08-7.47c1.69-2.62,3.63-3.3,4.88-3.3,3.56,0,3.56,4.7,3.56,7.51,0,1.33,0,3.41.07,4m2.41-4.92c0-5.64-3.34-7.4-6-7.4-4.92,0-9.66,5.13-9.66,10.2,0,3.34,2.15,6.07,5.82,6.07a12.11,12.11,0,0,0,7.58-3c.47,1.9,1.65,3,3.27,3a3.32,3.32,0,0,0,3-2.55c0-.25-.21-.36-.43-.36s-.36.11-.47.36c-.65,1.76-1.94,1.76-2,1.76-1.11,0-1.11-2.8-1.11-3.66s0-.83.36-1.26a20.76,20.76,0,0,0,4.13-8.44c0-.07,0-.36-.43-.36s-.36.11-.54.76a21.21,21.21,0,0,1-3.52,7.11Z"/><path d="M164.23,250h-.85a5.81,5.81,0,0,1-.65,2.28,12.89,12.89,0,0,1-2.48.15h-4.61c2.63-2.33,3.51-3,5-4.21,1.85-1.48,3.59-3,3.59-5.41,0-3-2.66-4.89-5.87-4.89s-5.21,2.18-5.21,4.49a1.33,1.33,0,1,0,2.66.08c0-.45-.18-1.33-1.48-1.33a3.94,3.94,0,0,1,3.66-2.33,3.75,3.75,0,0,1,3.81,4c0,2.18-1.56,3.91-2.36,4.81l-6,6c-.25.23-.25.28-.25,1h10.32l.75-4.56"/><path d="M190.26,240.92h10c.5,0,1.18,0,1.18-.72s-.68-.72-1.18-.72h-10V229.43c0-.5,0-1.19-.72-1.19s-.72.68-.72,1.19v10.06H178.76c-.5,0-1.19,0-1.19.72s.68.72,1.19.72h10.05V251c0,.5,0,1.19.72,1.19s.72-.68.72-1.19V240.92"/><path d="M224.29,238.7c1.47,3.77,3.2,9.27,3.77,10.09s.93.79,1.9.79h.79c.36,0,.39-.25.39-.36s-.07-.18-.18-.32a4.7,4.7,0,0,1-.83-1.65l-7.33-20.44c-.75-2.08-2.69-2.55-4.38-2.55-.18,0-.65,0-.65.4a.37.37,0,0,0,.32.36c1.19.22,1.44.43,2.33,2.87l3.49,9.77L214,247.5c-.43.43-.65.65-.65,1.11a1.05,1.05,0,0,0,1.08,1,1.52,1.52,0,0,0,1.18-.76l8.66-10.2"/><path d="M245,250h-.85a5.81,5.81,0,0,1-.65,2.28,12.89,12.89,0,0,1-2.48.15h-4.61c2.63-2.33,3.51-3,5-4.21,1.85-1.48,3.59-3,3.59-5.41,0-3-2.66-4.89-5.87-4.89s-5.21,2.18-5.21,4.49a1.33,1.33,0,1,0,2.66.08c0-.45-.17-1.33-1.48-1.33a3.94,3.94,0,0,1,3.66-2.33,3.75,3.75,0,0,1,3.81,4c0,2.18-1.55,3.91-2.36,4.81l-6,6c-.25.23-.25.28-.25,1h10.32L245,250"/><path d="M266,239.24a6.63,6.63,0,0,0,.29-2.08c0-2.34-1.44-3.84-4.13-3.84a6.87,6.87,0,0,0-5.57,3.12,3.24,3.24,0,0,0-3.3-3.12,3,3,0,0,0-2.66,2,15.05,15.05,0,0,0-1.11,3.48c0,.36.36.36.43.36.36,0,.4,0,.61-.83.61-2.55,1.33-4.27,2.62-4.27.61,0,1.11.29,1.11,1.65a11.57,11.57,0,0,1-.57,3l-2.08,8.3c-.11.54-.32,1.36-.32,1.54a1,1,0,0,0,1,1,1.47,1.47,0,0,0,1.33-1c0-.07.47-1.76.68-2.66l.79-3.23c.21-.79.43-1.58.61-2.41.07-.22.36-1.4.4-1.62a10.6,10.6,0,0,1,2.44-3.3A5.71,5.71,0,0,1,262,234.1c1.54,0,1.94,1.22,1.94,2.51a9.11,9.11,0,0,1-.36,2.26l-4.1,16.52a2.23,2.23,0,0,0-.11.58,1,1,0,0,0,1,1c1.11,0,1.36-1,1.47-1.44l4.1-16.27"/><path d="M274.66,238.64c0-.68-.05-.7-.75-.7a6.84,6.84,0,0,1-4.91,1.6v.9a8.26,8.26,0,0,0,3.64-.7v12.78c0,.83,0,1.15-2.51,1.15h-1v.9c.45,0,3.53-.1,4.46-.1.78,0,3.93.08,4.49.1v-.9h-1c-2.51,0-2.51-.33-2.51-1.15V238.64"/><path d="M305.06,240.92h10c.5,0,1.18,0,1.18-.72s-.68-.72-1.18-.72h-10V229.43c0-.5,0-1.19-.72-1.19s-.72.68-.72,1.19v10.06H293.56c-.5,0-1.19,0-1.19.72s.68.72,1.19.72h10.05V251c0,.5,0,1.19.72,1.19s.72-.68.72-1.19V240.92"/><path d="M332.42,240.57a6.48,6.48,0,0,1,2.19-.32,4.61,4.61,0,0,1,1.69.22c-.54.25-.61.29-2,.29a6.48,6.48,0,0,1-1.9-.18m-1.18.47a7.36,7.36,0,0,0,3.09.5c.93,0,2.91,0,2.91-1.11,0-.86-1.26-1-2.62-1a7.92,7.92,0,0,0-3.34.68,2.35,2.35,0,0,1-1.44-2.08c0-2.19,3.52-3.48,6.75-3.48a5.41,5.41,0,0,1,3.3,1c.39.29.47.36.72.36a1,1,0,0,0,1-1c0-.68-2.19-2-4.63-2-4.13,0-8,2.41-8,5.14a3.31,3.31,0,0,0,1.44,2.55,6,6,0,0,0-3.27,4.85c0,2.33,2,4.52,5.85,4.52,4.74,0,6.75-3.16,6.75-3.7a.37.37,0,0,0-.39-.36.46.46,0,0,0-.36.25c-.5.83-1.37,2.15-5.67,2.15-2.19,0-5.24-.54-5.24-3.09A5.29,5.29,0,0,1,331.23,241Z"/><path d="M355.63,250h-.85a5.81,5.81,0,0,1-.65,2.28,12.89,12.89,0,0,1-2.48.15H347c2.63-2.33,3.51-3,5-4.21,1.86-1.48,3.59-3,3.59-5.41,0-3-2.66-4.89-5.87-4.89s-5.21,2.18-5.21,4.49a1.33,1.33,0,1,0,2.66.08c0-.45-.17-1.33-1.48-1.33a3.94,3.94,0,0,1,3.66-2.33,3.75,3.75,0,0,1,3.81,4c0,2.18-1.56,3.91-2.36,4.81l-6,6c-.25.23-.25.28-.25,1h10.32l.75-4.56"/><path d="M64.52,289.3a2.26,2.26,0,0,0,.14-.83,1,1,0,0,0-1-1,1.56,1.56,0,0,0-1.26.75c-.07.18-.36,1.29-.5,1.94-.25.93-.5,1.9-.72,2.87l-1.62,6.46c-.14.54-1.69,3.05-4.06,3.05-1.83,0-2.23-1.58-2.23-2.91,0-1.65.61-3.88,1.83-7a6.49,6.49,0,0,0,.72-2.59,2.85,2.85,0,0,0-2.94-2.94c-3.41,0-4.74,5.21-4.74,5.53s.36.36.43.36c.36,0,.4-.07.58-.65,1-3.37,2.41-4.45,3.63-4.45.29,0,.9,0,.9,1.15a7.64,7.64,0,0,1-.61,2.51c-1.44,3.81-2.08,5.85-2.08,7.54,0,3.2,2.26,4.27,4.38,4.27A5.08,5.08,0,0,0,59,301.76a13.8,13.8,0,0,1-2.33,5.53,5.14,5.14,0,0,1-4,2.26A2.9,2.9,0,0,1,49.94,308a2.05,2.05,0,0,0,1.54-.43,1.94,1.94,0,0,0,.72-1.47,1.22,1.22,0,0,0-1.33-1.26,2.07,2.07,0,0,0-2,2.33c0,1.8,1.58,3.13,3.81,3.13,3.7,0,7.4-3.27,8.4-7.33l3.45-13.72"/><path d="M71.51,300c2,0,3.36,1.35,3.36,4,0,3.11-1.8,4-3.26,4-1,0-3.21-.28-4.26-1.75a1.36,1.36,0,0,0,1.45-1.4A1.39,1.39,0,1,0,66,305c0,2.35,2.61,3.88,5.64,3.88,3.48,0,5.89-2.33,5.89-4.84,0-2-1.6-3.91-4.36-4.49,2.63-1,3.58-2.83,3.58-4.36,0-2-2.28-3.46-5.06-3.46s-4.91,1.35-4.91,3.36a1.29,1.29,0,1,0,2.58.05,1.27,1.27,0,0,0-1.28-1.3,4.76,4.76,0,0,1,3.53-1.38,2.52,2.52,0,0,1,2.71,2.73,4.81,4.81,0,0,1-1,3c-.83,1-1.53,1-2.78,1.08a7.82,7.82,0,0,0-.8.08c-.05,0-.25,0-.25.33s.22.35.65.35h1.35"/><path d="M115.48,298.21c.5,0,1.18,0,1.18-.72s-.68-.72-1.22-.72H94c-.54,0-1.22,0-1.22.72s.68.72,1.19.72h21.51m0-7c.54,0,1.22,0,1.22-.72s-.68-.72-1.18-.72H94c-.5,0-1.19,0-1.19.72s.68.72,1.22.72Z"/><path d="M143.29,299.43c-3.16,2.77-5.93,3.16-7.36,3.16-2.15,0-3.23-1.62-3.23-3.91a18.62,18.62,0,0,1,2.08-7.47c1.69-2.62,3.63-3.3,4.88-3.3,3.56,0,3.56,4.7,3.56,7.51,0,1.33,0,3.41.07,4m2.41-4.92c0-5.64-3.34-7.4-6-7.4-4.92,0-9.66,5.13-9.66,10.2,0,3.34,2.15,6.07,5.82,6.07a12.11,12.11,0,0,0,7.58-3c.47,1.9,1.65,3,3.27,3a3.32,3.32,0,0,0,3-2.55c0-.25-.21-.36-.43-.36s-.36.11-.47.36c-.65,1.76-1.94,1.76-2,1.76-1.11,0-1.11-2.8-1.11-3.66s0-.83.36-1.26a20.77,20.77,0,0,0,4.13-8.44c0-.07,0-.36-.43-.36s-.36.11-.54.75a21.2,21.2,0,0,1-3.52,7.11Z"/><path d="M158.41,300c2,0,3.36,1.35,3.36,4,0,3.11-1.8,4-3.26,4-1,0-3.21-.28-4.26-1.75a1.36,1.36,0,0,0,1.46-1.4,1.39,1.39,0,1,0-2.78.08c0,2.35,2.61,3.88,5.64,3.88,3.49,0,5.89-2.33,5.89-4.84,0-2-1.6-3.91-4.36-4.49,2.63-1,3.58-2.83,3.58-4.36,0-2-2.28-3.46-5.06-3.46s-4.91,1.35-4.91,3.36a1.29,1.29,0,1,0,2.58.05,1.27,1.27,0,0,0-1.28-1.3,4.77,4.77,0,0,1,3.53-1.38,2.52,2.52,0,0,1,2.71,2.73,4.81,4.81,0,0,1-1,3c-.83,1-1.53,1-2.78,1.08a7.79,7.79,0,0,0-.8.08c-.05,0-.25,0-.25.33s.23.35.65.35h1.35"/><path d="M190.26,294.72h10c.5,0,1.18,0,1.18-.72s-.68-.72-1.18-.72h-10V283.23c0-.5,0-1.18-.72-1.18s-.72.68-.72,1.18v10.06H178.76c-.5,0-1.19,0-1.19.72s.68.72,1.19.72h10.05v10.06c0,.5,0,1.19.72,1.19s.72-.68.72-1.19V294.72"/><path d="M224.29,292.5c1.47,3.77,3.2,9.27,3.77,10.09s.93.79,1.9.79h.79c.36,0,.39-.25.39-.36s-.07-.18-.18-.32a4.71,4.71,0,0,1-.83-1.65l-7.33-20.44c-.75-2.08-2.69-2.55-4.38-2.55-.18,0-.65,0-.65.4a.37.37,0,0,0,.32.36c1.19.22,1.44.43,2.33,2.87l3.49,9.77L214,301.3c-.43.43-.65.65-.65,1.11a1.05,1.05,0,0,0,1.08,1,1.52,1.52,0,0,0,1.18-.75l8.66-10.2"/><path d="M239.21,300c2,0,3.36,1.35,3.36,4,0,3.11-1.8,4-3.26,4-1,0-3.21-.28-4.26-1.75a1.36,1.36,0,0,0,1.46-1.4,1.39,1.39,0,1,0-2.78.08c0,2.35,2.61,3.88,5.64,3.88,3.48,0,5.89-2.33,5.89-4.84,0-2-1.6-3.91-4.36-4.49,2.63-1,3.58-2.83,3.58-4.36,0-2-2.28-3.46-5.06-3.46s-4.91,1.35-4.91,3.36a1.29,1.29,0,1,0,2.58.05,1.27,1.27,0,0,0-1.28-1.3,4.77,4.77,0,0,1,3.53-1.38A2.52,2.52,0,0,1,242,295.2a4.81,4.81,0,0,1-1,3c-.83,1-1.53,1-2.78,1.08a7.79,7.79,0,0,0-.8.08c-.05,0-.25,0-.25.33s.23.35.65.35h1.35"/><path d="M266,293a6.62,6.62,0,0,0,.29-2.08c0-2.33-1.44-3.84-4.13-3.84a6.87,6.87,0,0,0-5.57,3.12,3.24,3.24,0,0,0-3.3-3.12,3,3,0,0,0-2.66,2,15,15,0,0,0-1.11,3.48c0,.36.36.36.43.36.36,0,.4,0,.61-.83.61-2.55,1.33-4.27,2.62-4.27.61,0,1.11.29,1.11,1.65a11.57,11.57,0,0,1-.57,3l-2.08,8.3c-.11.54-.32,1.36-.32,1.54a1,1,0,0,0,1,1,1.47,1.47,0,0,0,1.33-1c0-.07.47-1.76.68-2.66l.79-3.23c.21-.79.43-1.58.61-2.41.07-.22.36-1.4.4-1.62a10.59,10.59,0,0,1,2.44-3.3A5.71,5.71,0,0,1,262,287.9c1.54,0,1.94,1.22,1.94,2.51a9.11,9.11,0,0,1-.36,2.26l-4.1,16.52a2.22,2.22,0,0,0-.11.58,1,1,0,0,0,1,1c1.11,0,1.36-1,1.47-1.44L266,293"/><path d="M274.66,292.44c0-.68-.05-.7-.75-.7a6.84,6.84,0,0,1-4.91,1.6v.9a8.26,8.26,0,0,0,3.64-.7v12.78c0,.83,0,1.15-2.51,1.15h-1v.9c.45,0,3.53-.1,4.46-.1.78,0,3.93.08,4.49.1v-.9h-1c-2.51,0-2.51-.33-2.51-1.15V292.44"/><path d="M305.06,294.72h10c.5,0,1.18,0,1.18-.72s-.68-.72-1.18-.72h-10V283.23c0-.5,0-1.18-.72-1.18s-.72.68-.72,1.18v10.06H293.56c-.5,0-1.19,0-1.19.72s.68.72,1.19.72h10.05v10.06c0,.5,0,1.19.72,1.19s.72-.68.72-1.19V294.72"/><path d="M332.42,294.37a6.47,6.47,0,0,1,2.19-.32,4.59,4.59,0,0,1,1.69.22c-.54.25-.61.29-2,.29a6.49,6.49,0,0,1-1.9-.18m-1.18.47a7.36,7.36,0,0,0,3.09.5c.93,0,2.91,0,2.91-1.11,0-.86-1.26-1-2.62-1a7.92,7.92,0,0,0-3.34.68,2.35,2.35,0,0,1-1.44-2.08c0-2.19,3.52-3.48,6.75-3.48a5.41,5.41,0,0,1,3.3,1c.39.29.47.36.72.36a1,1,0,0,0,1-1c0-.68-2.19-2-4.63-2-4.13,0-8,2.41-8,5.14a3.31,3.31,0,0,0,1.44,2.55,6,6,0,0,0-3.27,4.85c0,2.33,2,4.52,5.85,4.52,4.74,0,6.75-3.16,6.75-3.7a.37.37,0,0,0-.39-.36.46.46,0,0,0-.36.25c-.5.83-1.37,2.15-5.67,2.15-2.19,0-5.24-.54-5.24-3.09A5.29,5.29,0,0,1,331.23,294.83Z"/><path d="M349.81,300c2,0,3.36,1.35,3.36,4,0,3.11-1.8,4-3.26,4-1,0-3.21-.28-4.26-1.75a1.36,1.36,0,0,0,1.46-1.4,1.39,1.39,0,1,0-2.78.08c0,2.35,2.61,3.88,5.64,3.88,3.49,0,5.89-2.33,5.89-4.84,0-2-1.6-3.91-4.36-4.49,2.63-1,3.58-2.83,3.58-4.36,0-2-2.28-3.46-5.06-3.46s-4.91,1.35-4.91,3.36a1.29,1.29,0,1,0,2.58.05,1.27,1.27,0,0,0-1.28-1.3,4.77,4.77,0,0,1,3.53-1.38,2.52,2.52,0,0,1,2.71,2.73,4.81,4.81,0,0,1-1,3c-.83,1-1.53,1-2.78,1.08a7.79,7.79,0,0,0-.8.08c-.05,0-.25,0-.25.33s.23.35.65.35h1.35"/><path d="M64.52,343.1a2.26,2.26,0,0,0,.14-.83,1,1,0,0,0-1-1,1.56,1.56,0,0,0-1.26.75c-.07.18-.36,1.29-.5,1.94-.25.93-.5,1.9-.72,2.87l-1.62,6.46c-.14.54-1.69,3.05-4.06,3.05-1.83,0-2.23-1.58-2.23-2.91,0-1.65.61-3.88,1.83-7a6.49,6.49,0,0,0,.72-2.59,2.85,2.85,0,0,0-2.94-2.94c-3.41,0-4.74,5.21-4.74,5.53s.36.36.43.36c.36,0,.4-.07.58-.65,1-3.37,2.41-4.45,3.63-4.45.29,0,.9,0,.9,1.15a7.64,7.64,0,0,1-.61,2.51c-1.44,3.81-2.08,5.85-2.08,7.54,0,3.2,2.26,4.27,4.38,4.27A5.08,5.08,0,0,0,59,355.56a13.8,13.8,0,0,1-2.33,5.53,5.14,5.14,0,0,1-4,2.26,2.9,2.9,0,0,1-2.73-1.51,2.05,2.05,0,0,0,1.54-.43,1.94,1.94,0,0,0,.72-1.47,1.22,1.22,0,0,0-1.33-1.26,2.07,2.07,0,0,0-2,2.33c0,1.8,1.58,3.13,3.81,3.13,3.7,0,7.4-3.27,8.4-7.33l3.45-13.72"/><path d="M73.19,348v9.17H66.57Zm4.74,10.07v-.9H75.14V346c0-.53,0-.7-.55-.7-.3,0-.4,0-.65.35l-8.3,11.53v.9H73v2.06c0,.85,0,1.15-2,1.15h-.68v.9c1.25,0,2.86-.1,3.76-.1s2.53,0,3.78.1v-.9h-.68c-2,0-2-.3-2-1.15v-2.06Z"/><path d="M115.48,352c.5,0,1.18,0,1.18-.72s-.68-.72-1.22-.72H94c-.54,0-1.22,0-1.22.72s.68.72,1.19.72h21.51m0-7c.54,0,1.22,0,1.22-.72s-.68-.72-1.18-.72H94c-.5,0-1.19,0-1.19.72s.68.72,1.22.72Z"/><path d="M143.29,353.23c-3.16,2.77-5.93,3.16-7.36,3.16-2.15,0-3.23-1.62-3.23-3.91a18.62,18.62,0,0,1,2.08-7.47c1.69-2.62,3.63-3.3,4.88-3.3,3.56,0,3.56,4.7,3.56,7.51,0,1.33,0,3.41.07,4m2.41-4.92c0-5.64-3.34-7.4-6-7.4-4.92,0-9.66,5.13-9.66,10.2,0,3.34,2.15,6.07,5.82,6.07a12.11,12.11,0,0,0,7.58-3c.47,1.9,1.65,3,3.27,3a3.32,3.32,0,0,0,3-2.55c0-.25-.21-.36-.43-.36s-.36.11-.47.36c-.65,1.76-1.94,1.76-2,1.76-1.11,0-1.11-2.8-1.11-3.66s0-.83.36-1.26a20.77,20.77,0,0,0,4.13-8.44c0-.07,0-.36-.43-.36s-.36.11-.54.75a21.2,21.2,0,0,1-3.52,7.11Z"/><path d="M160.09,348v9.17h-6.62Zm4.74,10.07v-.9H162V346c0-.53,0-.7-.55-.7-.3,0-.4,0-.65.35l-8.29,11.53v.9h7.37v2.06c0,.85,0,1.15-2,1.15h-.68v.9c1.25,0,2.86-.1,3.76-.1s2.53,0,3.79.1v-.9h-.68c-2,0-2-.3-2-1.15v-2.06Z"/><path d="M190.26,348.52h10c.5,0,1.18,0,1.18-.72s-.68-.72-1.18-.72h-10V337c0-.5,0-1.18-.72-1.18s-.72.68-.72,1.18v10.06H178.76c-.5,0-1.19,0-1.19.72s.68.72,1.19.72h10.05v10.06c0,.5,0,1.19.72,1.19s.72-.68.72-1.19V348.52"/><path d="M224.29,346.3c1.47,3.77,3.2,9.27,3.77,10.09s.93.79,1.9.79h.79c.36,0,.39-.25.39-.36s-.07-.18-.18-.32a4.71,4.71,0,0,1-.83-1.65l-7.33-20.44c-.75-2.08-2.69-2.55-4.38-2.55-.18,0-.65,0-.65.4a.37.37,0,0,0,.32.36c1.19.22,1.44.43,2.33,2.87l3.49,9.77L214,355.1c-.43.43-.65.65-.65,1.11a1.05,1.05,0,0,0,1.08,1,1.52,1.52,0,0,0,1.18-.75l8.66-10.2"/><path d="M240.89,348v9.17h-6.62Zm4.74,10.07v-.9h-2.78V346c0-.53,0-.7-.55-.7-.3,0-.4,0-.65.35l-8.29,11.53v.9h7.37v2.06c0,.85,0,1.15-2,1.15H238v.9c1.25,0,2.86-.1,3.76-.1s2.53,0,3.79.1v-.9h-.68c-2,0-2-.3-2-1.15v-2.06Z"/><path d="M266,346.84a6.62,6.62,0,0,0,.29-2.08c0-2.33-1.44-3.84-4.13-3.84a6.87,6.87,0,0,0-5.57,3.12,3.24,3.24,0,0,0-3.3-3.12,3,3,0,0,0-2.66,2,15,15,0,0,0-1.11,3.48c0,.36.36.36.43.36.36,0,.4,0,.61-.83.61-2.55,1.33-4.27,2.62-4.27.61,0,1.11.29,1.11,1.65a11.57,11.57,0,0,1-.57,3l-2.08,8.3c-.11.54-.32,1.36-.32,1.54a1,1,0,0,0,1,1,1.47,1.47,0,0,0,1.33-1c0-.07.47-1.76.68-2.66l.79-3.23c.21-.79.43-1.58.61-2.41.07-.22.36-1.4.4-1.62a10.6,10.6,0,0,1,2.44-3.3A5.71,5.71,0,0,1,262,341.7c1.54,0,1.94,1.22,1.94,2.51a9.11,9.11,0,0,1-.36,2.26L259.53,363a2.22,2.22,0,0,0-.11.58,1,1,0,0,0,1,1c1.11,0,1.36-1,1.47-1.44l4.1-16.27"/><path d="M274.66,346.24c0-.68-.05-.7-.75-.7a6.84,6.84,0,0,1-4.91,1.6v.9a8.26,8.26,0,0,0,3.64-.7v12.78c0,.83,0,1.15-2.51,1.15h-1v.9c.45,0,3.53-.1,4.46-.1.78,0,3.93.07,4.49.1v-.9h-1c-2.51,0-2.51-.33-2.51-1.15V346.24"/><path d="M305.06,348.52h10c.5,0,1.18,0,1.18-.72s-.68-.72-1.18-.72h-10V337c0-.5,0-1.18-.72-1.18s-.72.68-.72,1.18v10.06H293.56c-.5,0-1.19,0-1.19.72s.68.72,1.19.72h10.05v10.06c0,.5,0,1.19.72,1.19s.72-.68.72-1.19V348.52"/><path d="M332.42,348.17a6.47,6.47,0,0,1,2.19-.32,4.59,4.59,0,0,1,1.69.22c-.54.25-.61.29-2,.29a6.49,6.49,0,0,1-1.9-.18m-1.18.47a7.36,7.36,0,0,0,3.09.5c.93,0,2.91,0,2.91-1.11,0-.86-1.26-1-2.62-1a7.92,7.92,0,0,0-3.34.68,2.35,2.35,0,0,1-1.44-2.08c0-2.19,3.52-3.48,6.75-3.48a5.41,5.41,0,0,1,3.3,1c.39.29.47.36.72.36a1,1,0,0,0,1-1c0-.68-2.19-2-4.63-2-4.13,0-8,2.41-8,5.14a3.31,3.31,0,0,0,1.44,2.55,6,6,0,0,0-3.27,4.85c0,2.33,2,4.53,5.85,4.53,4.74,0,6.75-3.16,6.75-3.7a.37.37,0,0,0-.39-.36.46.46,0,0,0-.36.25c-.5.83-1.37,2.15-5.67,2.15-2.19,0-5.24-.54-5.24-3.09A5.29,5.29,0,0,1,331.23,348.63Z"/><path d="M351.49,348v9.17h-6.62Zm4.74,10.07v-.9h-2.78V346c0-.53,0-.7-.55-.7-.3,0-.4,0-.65.35l-8.3,11.53v.9h7.37v2.06c0,.85,0,1.15-2,1.15h-.68v.9c1.25,0,2.86-.1,3.76-.1s2.53,0,3.79.1v-.9h-.68c-2,0-2-.3-2-1.15v-2.06Z"/></g></svg>