<svg id="Layer_1" data-name="Layer 1" xmlns="http://www.w3.org/2000/svg" xmlns:xlink="http://www.w3.org/1999/xlink" viewBox="0 0 911 727"><defs><style>.cls-1,.cls-13{fill:none;}.cls-2{clip-path:url(#clip-path);}.cls-3{fill:#fff;}.cls-4{fill:#00f4ff;}.cls-5{clip-path:url(#clip-path-2);}.cls-11,.cls-6,.cls-7{font-size:22px;}.cls-14,.cls-15,.cls-17,.cls-6{font-family:ArialMT, Arial;}.cls-7{font-family:Arial-ItalicMT, Arial;font-style:italic;}.cls-8{clip-path:url(#clip-path-4);}.cls-9{clip-path:url(#clip-path-6);}.cls-10{clip-path:url(#clip-path-8);}.cls-11{font-family:Arial-BoldMT, Arial;font-weight:700;}.cls-12{clip-path:url(#clip-path-10);}.cls-13{stroke:#000;stroke-width:2px;}.cls-14{font-size:24px;}.cls-15{font-size:16px;}.cls-16{letter-spacing:-0.02em;}.cls-17{font-size:36px;}.cls-18{clip-path:url(#clip-path-12);}</style><clipPath id="clip-path"><rect class="cls-1" x="-31" width="1024" height="768"/></clipPath><clipPath id="clip-path-2"><rect class="cls-1" x="31.67" y="86.09" width="469.85" height="85.88"/></clipPath><clipPath id="clip-path-4"><rect class="cls-1" x="31.67" y="204.31" width="469.85" height="85.88"/></clipPath><clipPath id="clip-path-6"><rect class="cls-1" x="31.67" y="322.53" width="469.85" height="85.88"/></clipPath><clipPath id="clip-path-8"><rect class="cls-1" x="31.67" y="438.6" width="469.85" height="129.92"/></clipPath><clipPath id="clip-path-10"><rect class="cls-1" x="31.67" y="600.85" width="469.85" height="85.88"/></clipPath><clipPath id="clip-path-12"><rect class="cls-1" x="104.41" y="528.78" width="324.59" height="38.14"/></clipPath></defs><title>estimating_sems-01</title><g class="cls-2"><rect class="cls-3" x="-31" width="1024" height="768"/><rect class="cls-4" x="33.81" y="86.09" width="465.56" height="85.88"/></g><g class="cls-5"><text class="cls-6" transform="translate(129 124)">Specify an estimable model, </text><text class="cls-6" transform="translate(152 150)">code into </text><text class="cls-7" transform="translate(247.4 150)">lavaan</text><text class="cls-6" transform="translate(312.23 150)"><tspan xml:space="preserve"> syntax</tspan></text></g><g class="cls-2"><rect class="cls-4" x="33.81" y="204.31" width="465.56" height="85.88"/></g><g class="cls-8"><text class="cls-6" transform="translate(53 242)">Software estimates plausible starting values </text><text class="cls-6" transform="translate(181 268)">for all parameters</text></g><g class="cls-2"><rect class="cls-4" x="33.81" y="322.53" width="465.56" height="85.88"/></g><g class="cls-9"><text class="cls-6" transform="translate(45 360)">Software estimates model-implied covariance </text><text class="cls-6" transform="translate(82 386)">matrix (</text><polygon points="156.5 370.25 167.4 370.25 167.4 372.92 160.42 372.92 164.49 377.77 160 383.35 167.73 383.35 167.73 386 156.29 386 156.29 383.06 160.51 377.77 156.5 373.09 156.5 370.25"/><text class="cls-6" transform="translate(168.53 386)">) at current parameter values</text></g><g class="cls-2"><rect class="cls-4" x="33.81" y="440.74" width="465.56" height="127.78"/></g><g class="cls-10"><text class="cls-6" transform="translate(64 465)">Compare model-implied covariance (</text><polygon points="424.65 449.25 435.55 449.25 435.55 451.92 428.57 451.92 432.64 456.77 428.15 462.35 435.88 462.35 435.88 465 424.44 465 424.44 462.06 428.67 456.77 424.65 452.09 424.65 449.25"/><text class="cls-6" transform="translate(436.68 465)">) to </text><text class="cls-6" transform="translate(46 491)">observed covariance (</text><text class="cls-11" transform="translate(262.44 491)">S</text><text class="cls-6" transform="translate(277.12 491)">) according to sample </text><text class="cls-6" transform="translate(161 517)">log-likelihood function</text></g><g class="cls-2"><rect class="cls-4" x="33.81" y="600.85" width="465.56" height="85.88"/></g><g class="cls-12"><text class="cls-6" transform="translate(90 638)">Update model parameters to reduce </text><text class="cls-6" transform="translate(68 664)">discrepancies (using derivative matrices)</text></g><g class="cls-2"><polyline class="cls-13" points="266.59 171.97 266.59 194.71 266.59 195.71"/><polygon points="261.79 194.71 266.59 204.31 271.39 194.71 261.79 194.71"/><polyline class="cls-13" points="266.59 313.93 266.59 312.93 266.59 290.19"/><polygon points="261.79 312.93 266.59 322.53 271.39 312.93 261.79 312.93"/><polyline class="cls-13" points="266.59 408.41 266.59 431.14 266.59 432.14"/><polygon points="261.79 431.14 266.59 440.74 271.39 431.14 261.79 431.14"/><polyline class="cls-13" points="266.59 568.52 266.59 591.25 266.59 592.25"/><polygon points="261.79 591.25 266.59 600.85 271.39 591.25 261.79 591.25"/><polyline class="cls-13" points="507.9 365.4 508.9 365.4 567.3 365.4 567.3 643.7 499.3 643.7"/><polygon points="508.9 360.6 499.3 365.4 508.9 370.2 508.9 360.6"/><text class="cls-14" transform="translate(578 471)"><tspan xml:space="preserve">Repeat until there is minimal  </tspan></text><text class="cls-14" transform="translate(604 499)">change in log-likelihood </text><text class="cls-14" transform="translate(598 527)">(e.g., 10</text><text class="cls-15" transform="translate(686.05 519.76)">-5</text><text class="cls-14" transform="translate(700.28 527)">).<tspan class="cls-16" x="14.66" y="0"> </tspan><tspan x="20.9" y="0" xml:space="preserve">This is called  </tspan></text><text class="cls-14" transform="translate(621 555)">model convergence.</text><text class="cls-17" transform="translate(38 51)">Estimating SEMs</text></g><g class="cls-18"><path d="M112.5,566.48c0-.1,0-.17-.56-.73-4.13-4.21-5.19-10.52-5.19-15.64,0-5.81,1.26-11.63,5.32-15.8.43-.4.43-.47.43-.57a.3.3,0,0,0-.33-.33c-.33,0-3.31,2.27-5.26,6.51a26,26,0,0,0,.1,20.61c2,4.11,4.83,6.28,5.16,6.28a.3.3,0,0,0,.33-.33"/><path d="M138.82,537.78c.3-.47.56-.47,1.29-.57a15.17,15.17,0,0,1,1.72-.1h.69v-1.57c-1.32,0-2.84.1-3.77.1-1.29,0-3.14,0-4.36-.1v1.57a6.81,6.81,0,0,1,2.51.33,1.33,1.33,0,0,1-.23.4L130.49,547l-6.71-9.92h2.81v-1.57c-1.36.1-4.56.1-6.05.1-1.32,0-4.3,0-5.46-.1v1.57h3.24l8.23,12.19v7.58H123v1.57c1.19-.1,4.43-.1,5.82-.1s4.59,0,5.85.1v-1.57H131v-7.58l7.77-11.53"/><path d="M145.85,560.75a3.07,3.07,0,0,0-.21,1,2.06,2.06,0,0,0,2.19,2c2.31,0,3.32-3.22,3.32-3.57s-.3-.3-.37-.3c-.32,0-.35.14-.44.4-.53,1.87-1.55,2.82-2.45,2.82-.46,0-.58-.3-.58-.82a3.85,3.85,0,0,1,.37-1.49c.23-.63.48-1.26.74-1.86s1-2.68,1.13-3a2.79,2.79,0,0,0,.14-.75,2.06,2.06,0,0,0-2.19-2c-2.28,0-3.35,3.17-3.35,3.57s.32.3.39.3c.32,0,.35-.12.41-.37.6-2,1.62-2.84,2.47-2.84.37,0,.58.19.58.82a6.33,6.33,0,0,1-.72,2.33l-1.45,3.75m4.71-11.84a.89.89,0,0,0-.92-.89,1.37,1.37,0,0,0-1.29,1.28.89.89,0,0,0,.92.89A1.37,1.37,0,0,0,150.56,548.91Z"/><path d="M183.19,550.77c.56,0,1.16,0,1.16-.67s-.6-.67-1.16-.67H165.31c-.56,0-1.16,0-1.16.67s.59.67,1.16.67h17.89"/><path d="M203.55,547.37c.2-.87.56-2.31.56-2.54a1.48,1.48,0,0,0-1.56-1.47,2.41,2.41,0,0,0-2.25,2.07l-4.4,17.74a3.21,3.21,0,0,0-.13.87,1.45,1.45,0,0,0,1.56,1.47,2.29,2.29,0,0,0,2-1.3c.2-.4,1.29-5,1.52-6a9.28,9.28,0,0,0,3.27.53,6.41,6.41,0,0,0,4.63-2,4.33,4.33,0,0,0,3.87,2,3.3,3.3,0,0,0,2.88-1.9,10.77,10.77,0,0,0,1.26-3.31c0-.47-.5-.47-.79-.47s-.5,0-.66.17-.07.13-.27,1c-.66,2.67-1.42,3.34-2.25,3.34-.36,0-.76-.13-.76-1.24a10.66,10.66,0,0,1,.46-2.44l.86-3.41c.17-.74.5-2.1.73-3s.53-2.1.53-2.34a1.48,1.48,0,0,0-1.55-1.47,2.29,2.29,0,0,0-2.18,1.77l-2.28,9.25a3.54,3.54,0,0,1-1.29,1.67,4.44,4.44,0,0,1-2.94,1.2c-2.25,0-2.45-1.64-2.45-2.64a10.45,10.45,0,0,1,.33-2.31l1.32-5.21"/><path d="M227.4,550.11a24.57,24.57,0,0,0-2.18-10.42c-2-4.11-4.83-6.28-5.16-6.28a.31.31,0,0,0-.33.33c0,.1,0,.17.63.77,3.24,3.31,5.13,8.62,5.13,15.6,0,5.71-1.22,11.59-5.32,15.8-.43.4-.43.47-.43.57a.31.31,0,0,0,.33.33c.33,0,3.31-2.27,5.26-6.51a24.5,24.5,0,0,0,2.08-10.19"/><path d="M237.42,533.69a1.64,1.64,0,0,0,.21-.75,1.32,1.32,0,0,0-2.63-.19l-3,10.1a3.34,3.34,0,0,0-.11.37c0,.28.72.51.9.51s.18,0,.35-.4l4.34-9.65"/><path d="M255.81,547.64a.83.83,0,0,0,.4-.64.88.88,0,0,0-.23-.5l-7.54-9.39h6.74c4.89,0,7.8.9,8.53,6.48h1.56l-1-8.05H243.11c-.66,0-1.06,0-1.06.8,0,.33,0,.4.33.77l9.42,11.73-9.36,8.39a.82.82,0,0,0-.4.63c0,.6.56.6,1.06.6h21.13l1-8.69h-1.56c-.69,5.78-4,6.48-8.63,6.48h-8.89l9.62-8.62"/><path d="M284.54,539.42c.37,0,.92,0,.92-.56s-.53-.58-.92-.58H270.79c-.37,0-.92,0-.92.56s.53.58.92.58h13.75"/><path d="M295.73,529.86c0-.63,0-.65-.69-.65a6.25,6.25,0,0,1-4.52,1.49v.84a7.54,7.54,0,0,0,3.35-.65v11.89c0,.77,0,1.07-2.31,1.07h-.88v.84c.41,0,3.25-.09,4.11-.09s3.62.07,4.13.09v-.84H298c-2.31,0-2.31-.3-2.31-1.07V529.86"/><path d="M313.77,566.48c0-.1,0-.17-.56-.73-4.13-4.21-5.19-10.52-5.19-15.64,0-5.81,1.26-11.63,5.32-15.8.43-.4.43-.47.43-.57a.3.3,0,0,0-.33-.33c-.33,0-3.31,2.27-5.26,6.51a26,26,0,0,0,.1,20.61c2,4.11,4.83,6.28,5.16,6.28a.3.3,0,0,0,.33-.33"/><path d="M340.08,537.78c.3-.47.56-.47,1.29-.57a15.18,15.18,0,0,1,1.72-.1h.69v-1.57c-1.32,0-2.84.1-3.77.1-1.29,0-3.14,0-4.36-.1v1.57a6.81,6.81,0,0,1,2.51.33,1.33,1.33,0,0,1-.23.4L331.75,547,325,537.11h2.81v-1.57c-1.36.1-4.56.1-6.05.1-1.32,0-4.3,0-5.45-.1v1.57h3.24l8.23,12.19v7.58h-3.57v1.57c1.19-.1,4.43-.1,5.82-.1s4.59,0,5.85.1v-1.57h-3.6v-7.58l7.77-11.53"/><path d="M347.11,560.75a3.07,3.07,0,0,0-.21,1,2.06,2.06,0,0,0,2.19,2c2.31,0,3.32-3.22,3.32-3.57s-.3-.3-.37-.3c-.32,0-.35.14-.44.4-.53,1.87-1.55,2.82-2.45,2.82-.46,0-.58-.3-.58-.82a3.85,3.85,0,0,1,.37-1.49c.23-.63.48-1.26.74-1.86s1-2.68,1.13-3a2.78,2.78,0,0,0,.14-.75,2.06,2.06,0,0,0-2.19-2c-2.29,0-3.35,3.17-3.35,3.57s.32.3.39.3c.32,0,.35-.12.41-.37.6-2,1.61-2.84,2.47-2.84.37,0,.58.19.58.82a6.32,6.32,0,0,1-.72,2.33l-1.45,3.75m4.71-11.84a.89.89,0,0,0-.92-.89,1.37,1.37,0,0,0-1.29,1.28.89.89,0,0,0,.92.89A1.37,1.37,0,0,0,351.82,548.91Z"/><path d="M384.45,550.77c.56,0,1.16,0,1.16-.67s-.6-.67-1.16-.67H366.57c-.56,0-1.16,0-1.16.67s.59.67,1.16.67h17.89"/><path d="M404.81,547.37c.2-.87.56-2.31.56-2.54a1.48,1.48,0,0,0-1.56-1.47,2.41,2.41,0,0,0-2.25,2.07l-4.4,17.74a3.21,3.21,0,0,0-.13.87,1.45,1.45,0,0,0,1.56,1.47,2.29,2.29,0,0,0,2-1.3c.2-.4,1.29-5,1.52-6a9.28,9.28,0,0,0,3.27.53,6.41,6.41,0,0,0,4.63-2,4.33,4.33,0,0,0,3.87,2,3.3,3.3,0,0,0,2.88-1.9,10.77,10.77,0,0,0,1.26-3.31c0-.47-.5-.47-.79-.47s-.5,0-.66.17-.07.13-.27,1c-.66,2.67-1.42,3.34-2.25,3.34-.36,0-.76-.13-.76-1.24a10.67,10.67,0,0,1,.46-2.44l.86-3.41c.17-.74.5-2.1.73-3s.53-2.1.53-2.34a1.48,1.48,0,0,0-1.55-1.47,2.29,2.29,0,0,0-2.18,1.77l-2.28,9.25a3.54,3.54,0,0,1-1.29,1.67,4.44,4.44,0,0,1-2.94,1.2c-2.25,0-2.45-1.64-2.45-2.64a10.44,10.44,0,0,1,.33-2.31l1.32-5.21"/><path d="M428.66,550.11a24.57,24.57,0,0,0-2.18-10.42c-2-4.11-4.83-6.28-5.16-6.28a.31.31,0,0,0-.33.33c0,.1,0,.17.63.77,3.24,3.31,5.13,8.62,5.13,15.6,0,5.71-1.22,11.59-5.32,15.8-.43.4-.43.47-.43.57a.31.31,0,0,0,.33.33c.33,0,3.31-2.27,5.26-6.51a24.5,24.5,0,0,0,2.08-10.19"/></g></svg>